<?xml version="1.0" standalone="no"?>
<!DOCTYPE svg PUBLIC "-//W3C//DTD SVG 20010904//EN"
 "http://www.w3.org/TR/2001/REC-SVG-20010904/DTD/svg10.dtd">
<svg version="1.0" xmlns="http://www.w3.org/2000/svg"
 width="240.000000pt" height="240.000000pt" viewBox="0 0 240.000000 240.000000"
 preserveAspectRatio="xMidYMid meet">

<g transform="translate(0.000000,240.000000) scale(0.100000,-0.100000)"
fill="#000000" stroke="none">
<path d="M979 2101 c-91 -53 -281 -163 -422 -245 l-257 -149 0 -207 0 -208
247 143 248 143 3 -577 2 -577 171 -98 c94 -53 173 -96 175 -93 2 2 3 445 2
984 l-3 980 -166 -96z"/>
<path d="M1250 1216 c0 -542 2 -986 5 -986 3 0 82 44 175 97 l170 97 2 262 3
262 90 -53 c50 -30 93 -54 98 -55 4 0 7 83 7 184 l0 184 -100 57 -100 56 0
130 c0 72 3 128 8 126 182 -106 467 -269 477 -274 13 -4 15 24 15 200 l0 205
-152 88 c-120 69 -655 380 -690 401 -5 2 -8 -439 -8 -981z"/>
</g>
</svg>
