<svg id="svg" version="1.1" xmlns="http://www.w3.org/2000/svg" xmlns:xlink="http://www.w3.org/1999/xlink" width="400" height="400" viewBox="0, 0, 400,400"><g id="svgg"><path id="path0" d="M187.993 33.382 C 188.194 33.911,188.109 34.382,187.752 34.716 C 187.448 34.999,187.200 35.674,187.200 36.216 C 187.200 37.469,184.425 37.747,184.368 36.500 C 184.334 35.728,184.194 36.038,183.827 37.700 C 183.551 38.953,182.060 39.237,181.200 38.200 C 180.474 37.325,180.166 37.461,180.184 38.649 C 180.206 40.115,179.081 40.778,178.092 39.883 C 177.000 38.895,175.875 38.976,176.206 40.019 C 176.349 40.470,176.288 41.055,176.071 41.319 C 175.854 41.584,175.614 42.250,175.538 42.800 C 175.372 44.002,173.363 44.489,172.955 43.427 C 172.823 43.082,172.559 42.800,172.370 42.800 C 172.180 42.800,172.123 43.056,172.243 43.369 C 172.897 45.073,170.470 46.342,169.507 44.800 C 169.232 44.360,168.655 44.000,168.224 44.000 C 167.614 44.000,167.547 44.107,167.920 44.480 C 168.598 45.158,168.516 46.381,167.773 46.666 C 167.428 46.798,166.942 46.702,166.693 46.453 C 165.471 45.231,164.205 45.922,164.091 47.872 C 163.924 50.743,162.240 51.894,161.125 49.900 C 160.636 49.026,160.616 49.040,160.411 50.400 C 160.175 51.967,158.248 52.712,157.755 51.427 C 157.623 51.082,157.172 50.800,156.754 50.800 C 156.112 50.800,156.066 50.917,156.458 51.544 C 156.827 52.135,156.787 52.484,156.262 53.234 C 155.898 53.753,155.600 54.498,155.600 54.889 C 155.600 55.742,152.825 55.949,152.764 55.100 C 152.744 54.825,152.559 55.185,152.352 55.900 C 151.917 57.408,149.978 57.781,149.232 56.500 C 148.880 55.896,148.823 55.944,148.812 56.851 C 148.794 58.444,147.841 59.050,146.616 58.247 C 145.308 57.390,144.235 57.392,144.564 58.251 C 144.701 58.609,144.647 59.104,144.442 59.351 C 144.238 59.598,144.010 60.340,143.935 61.000 C 143.790 62.287,142.339 62.899,141.477 62.037 C 141.168 61.728,140.902 61.947,140.542 62.803 C 139.950 64.211,138.660 64.405,137.907 63.200 C 137.252 62.150,136.648 62.174,136.926 63.239 C 137.396 65.035,135.575 66.016,134.400 64.600 C 133.502 63.518,132.900 63.940,132.613 65.851 C 132.461 66.869,132.241 67.949,132.125 68.251 C 131.814 69.062,129.634 68.946,129.293 68.100 C 129.083 67.578,128.959 67.756,128.806 68.800 C 128.574 70.376,126.988 71.037,126.316 69.836 C 126.120 69.486,125.564 69.214,125.080 69.232 C 124.596 69.249,124.425 69.354,124.700 69.465 C 125.378 69.738,125.333 70.992,124.624 71.580 C 124.307 71.843,123.992 72.450,123.924 72.929 C 123.786 73.900,122.199 74.359,121.477 73.637 C 121.168 73.328,120.902 73.547,120.542 74.403 C 119.950 75.811,118.660 76.005,117.907 74.800 C 117.632 74.360,117.056 74.000,116.627 74.000 C 115.881 74.000,115.879 74.023,116.573 74.530 C 117.888 75.493,116.554 77.541,115.000 76.945 C 114.670 76.818,114.400 76.554,114.400 76.357 C 114.400 76.161,114.065 76.000,113.655 76.000 C 113.077 76.000,112.954 76.223,113.102 77.000 C 113.214 77.584,113.107 78.000,112.847 78.000 C 112.601 78.000,112.400 78.414,112.400 78.920 C 112.400 80.818,110.501 81.450,109.423 79.911 C 108.803 79.027,108.800 79.029,108.800 80.297 C 108.800 82.058,107.546 82.746,106.409 81.609 C 105.285 80.485,104.909 80.597,105.114 81.995 C 105.238 82.841,105.101 83.263,104.645 83.438 C 104.290 83.574,104.000 84.135,104.000 84.685 C 104.000 85.607,103.879 85.672,102.420 85.533 C 101.050 85.403,100.811 85.503,100.613 86.291 C 100.324 87.442,98.135 87.598,97.693 86.500 C 97.483 85.978,97.359 86.156,97.206 87.200 C 96.976 88.767,95.049 89.513,94.555 88.227 C 94.153 87.181,93.289 87.483,93.501 88.595 C 93.630 89.268,93.483 89.670,93.046 89.838 C 92.691 89.974,92.400 90.390,92.400 90.763 C 92.400 92.212,90.337 92.977,89.280 91.920 C 88.907 91.547,88.800 91.675,88.800 92.496 C 88.800 93.077,88.610 93.670,88.377 93.814 C 87.703 94.231,86.000 93.642,86.000 92.992 C 86.000 92.667,85.809 92.400,85.576 92.400 C 85.343 92.400,85.270 92.590,85.414 92.823 C 86.390 94.401,84.362 96.080,83.012 94.811 C 82.537 94.365,81.800 94.014,81.374 94.032 C 80.948 94.049,80.825 94.154,81.100 94.265 C 81.696 94.505,81.770 96.248,81.200 96.600 C 80.980 96.736,80.800 97.190,80.800 97.610 C 80.800 99.223,78.094 99.462,77.466 97.905 C 77.355 97.627,77.249 97.963,77.232 98.651 C 77.182 100.607,74.400 101.710,74.400 99.773 C 74.400 98.615,73.647 99.241,73.525 100.500 C 73.383 101.978,72.103 102.487,71.216 101.419 C 70.326 100.347,69.149 100.614,69.595 101.786 C 69.810 102.353,69.819 102.865,69.615 102.990 C 69.421 103.111,69.143 103.747,68.999 104.405 C 68.658 105.956,66.599 106.160,66.012 104.700 C 65.680 103.873,65.649 103.901,65.625 105.051 C 65.589 106.860,62.800 108.165,62.800 106.373 C 62.800 106.168,62.620 106.000,62.400 106.000 C 62.180 106.000,62.000 106.428,62.000 106.951 C 62.000 107.474,61.741 108.117,61.424 108.380 C 61.107 108.643,60.792 109.250,60.724 109.729 C 60.580 110.744,58.711 111.156,57.776 110.380 C 57.300 109.985,57.200 110.080,57.200 110.924 C 57.200 111.569,56.926 112.033,56.456 112.182 C 55.480 112.492,54.400 112.059,54.400 111.357 C 54.400 111.051,54.245 110.800,54.055 110.800 C 53.866 110.800,53.797 111.251,53.903 111.802 C 54.262 113.684,52.675 114.619,51.358 113.300 C 49.080 111.019,49.200 109.056,49.200 148.655 L 49.200 184.800 50.351 184.800 C 50.984 184.800,51.726 185.070,52.000 185.400 C 52.786 186.347,54.113 186.185,53.794 185.181 C 53.651 184.730,53.712 184.145,53.929 183.881 C 54.146 183.616,54.386 182.950,54.462 182.400 C 54.640 181.110,56.581 180.762,57.421 181.870 C 57.947 182.563,57.975 182.556,57.987 181.733 C 58.017 179.690,59.300 178.875,60.400 180.200 C 61.138 181.089,61.965 180.954,61.712 179.987 C 61.596 179.540,61.774 178.865,62.109 178.487 C 62.443 178.109,62.783 177.440,62.863 177.000 C 63.033 176.061,64.570 175.712,65.422 176.418 C 65.892 176.808,66.000 176.754,66.000 176.129 C 66.000 174.432,68.010 173.787,68.893 175.200 C 69.592 176.320,69.808 176.202,69.804 174.700 C 69.800 173.310,71.191 172.631,72.126 173.566 C 72.952 174.392,73.904 174.079,73.707 173.047 C 73.607 172.523,73.722 171.972,73.962 171.823 C 74.203 171.675,74.400 171.210,74.400 170.790 C 74.400 169.232,76.785 168.872,77.438 170.331 C 77.661 170.831,77.795 170.646,77.968 169.600 C 78.228 168.033,80.154 167.294,80.645 168.573 C 80.777 168.918,81.158 169.200,81.492 169.200 C 81.973 169.200,82.000 169.082,81.621 168.626 C 81.267 168.199,81.258 167.838,81.586 167.226 C 82.107 166.252,82.905 166.163,83.600 167.000 C 84.427 167.997,86.136 167.802,85.586 166.774 C 85.309 166.256,85.283 165.772,85.517 165.474 C 85.722 165.213,86.008 164.505,86.152 163.900 C 86.468 162.580,88.477 162.314,89.168 163.500 C 89.507 164.082,89.578 163.985,89.588 162.927 C 89.603 161.380,90.856 160.765,91.960 161.764 C 92.961 162.669,93.518 162.551,93.312 161.476 C 93.209 160.937,93.399 160.333,93.768 160.027 C 94.116 159.738,94.400 159.168,94.400 158.759 C 94.400 157.836,96.169 157.311,96.989 157.991 C 97.462 158.384,97.613 158.286,97.823 157.450 C 98.212 155.902,100.800 155.548,100.800 157.043 C 100.800 157.349,100.949 157.600,101.131 157.600 C 101.313 157.600,101.385 157.076,101.291 156.436 C 101.047 154.776,102.429 154.029,103.591 155.191 C 104.036 155.636,104.773 156.000,105.229 156.000 C 105.972 156.000,105.994 155.937,105.446 155.388 C 104.847 154.790,104.961 153.600,105.616 153.600 C 105.798 153.600,106.004 153.105,106.073 152.500 C 106.190 151.488,106.335 151.403,107.881 151.433 C 109.292 151.461,109.581 151.333,109.681 150.633 C 109.831 149.583,111.878 149.216,112.245 150.173 C 112.642 151.208,113.141 150.884,113.275 149.503 C 113.417 148.031,114.352 147.609,115.323 148.580 C 116.131 149.388,117.252 149.400,116.944 148.599 C 116.494 147.426,118.293 144.400,119.439 144.400 C 120.138 144.400,120.543 144.660,120.684 145.200 C 121.001 146.412,121.485 146.157,121.297 144.877 C 121.099 143.528,122.006 142.621,123.181 142.994 C 123.631 143.137,124.000 143.422,124.000 143.627 C 124.000 143.832,124.245 144.000,124.545 144.000 C 124.909 144.000,125.026 143.671,124.899 143.005 C 124.670 141.809,125.721 141.233,126.848 141.937 C 127.985 142.647,129.338 142.537,129.039 141.758 C 128.667 140.788,129.613 138.090,130.397 137.885 C 132.552 137.321,132.400 130.037,132.400 233.769 L 132.400 329.098 134.000 329.354 C 135.357 329.571,135.600 329.757,135.600 330.581 C 135.600 331.116,135.780 331.664,136.000 331.800 C 136.220 331.936,136.400 332.487,136.400 333.024 C 136.400 334.098,137.142 334.293,138.352 333.537 C 139.554 332.787,140.519 333.410,140.314 334.805 C 140.113 336.174,140.570 336.377,141.200 335.200 C 142.085 333.547,144.270 334.677,143.903 336.598 C 143.676 337.784,144.212 337.961,144.516 336.800 C 144.787 335.764,146.732 335.687,147.033 336.700 C 147.147 337.085,147.478 337.869,147.769 338.442 C 148.114 339.125,148.169 339.712,147.928 340.142 C 147.436 341.022,148.481 341.027,149.816 340.153 C 151.016 339.367,152.000 339.951,152.000 341.449 C 152.000 342.523,152.590 342.723,152.955 341.773 C 153.449 340.487,155.376 341.233,155.606 342.800 C 155.759 343.844,155.883 344.022,156.093 343.500 C 156.259 343.088,156.798 342.800,157.402 342.800 C 158.685 342.800,160.355 346.090,159.558 347.050 C 159.197 347.485,159.269 347.600,159.902 347.600 C 160.342 347.600,160.933 347.321,161.216 346.981 C 162.128 345.881,163.401 346.418,163.396 347.900 C 163.392 349.246,164.132 349.676,164.555 348.573 C 165.044 347.298,166.970 348.033,167.247 349.600 C 167.383 350.370,167.518 350.781,167.547 350.514 C 167.734 348.788,170.800 349.237,170.800 350.990 C 170.800 351.520,170.996 352.074,171.235 352.222 C 171.474 352.369,171.581 352.830,171.472 353.245 C 171.245 354.115,172.014 354.248,173.152 353.537 C 174.354 352.787,175.319 353.410,175.114 354.805 C 174.994 355.619,175.108 356.000,175.469 356.000 C 175.761 356.000,176.000 355.733,176.000 355.408 C 176.000 354.758,177.703 354.169,178.377 354.586 C 178.610 354.730,178.800 355.507,178.800 356.313 C 178.800 357.753,178.811 357.763,179.423 356.889 C 180.501 355.350,182.400 355.982,182.400 357.880 C 182.400 358.386,182.601 358.800,182.847 358.800 C 183.107 358.800,183.214 359.216,183.102 359.800 C 182.880 360.961,183.958 361.215,184.800 360.200 C 185.709 359.105,187.295 360.149,186.918 361.593 C 186.675 362.521,187.398 362.703,187.745 361.800 C 188.090 360.901,189.895 361.057,190.417 362.031 C 190.661 362.488,190.763 363.118,190.643 363.431 C 190.491 363.828,190.723 364.000,191.413 364.000 L 192.400 364.000 192.400 198.800 L 192.400 33.600 190.987 33.600 C 190.131 33.600,189.488 33.375,189.355 33.027 C 189.234 32.712,188.808 32.479,188.409 32.509 C 187.848 32.552,187.753 32.751,187.993 33.382 M210.578 33.063 C 210.320 33.471,209.668 33.712,208.880 33.690 L 207.600 33.654 207.600 198.827 L 207.600 364.000 208.624 364.000 C 209.187 364.000,209.545 363.835,209.421 363.634 C 209.296 363.432,209.371 362.802,209.587 362.234 C 210.032 361.063,211.859 360.767,212.255 361.800 C 212.596 362.688,213.327 362.529,213.089 361.619 C 212.784 360.452,213.682 359.445,214.730 359.778 C 215.209 359.930,215.600 360.222,215.600 360.427 C 215.600 360.632,215.954 360.800,216.387 360.800 C 216.938 360.800,217.103 360.611,216.934 360.173 C 216.721 359.616,216.921 358.976,217.987 356.800 C 218.502 355.748,220.419 355.797,220.724 356.871 C 220.945 357.650,221.021 357.541,221.194 356.200 C 221.438 354.302,223.448 353.531,223.876 355.171 C 223.996 355.627,224.378 356.000,224.727 356.000 C 225.219 356.000,225.253 355.893,224.880 355.520 C 223.623 354.263,225.143 352.409,226.631 353.384 C 227.852 354.184,228.848 354.189,228.543 353.395 C 228.415 353.062,228.486 352.567,228.700 352.295 C 228.914 352.023,229.205 351.317,229.346 350.727 C 229.748 349.042,232.112 348.751,232.531 350.334 C 232.628 350.700,232.728 350.421,232.754 349.714 C 232.825 347.746,234.794 347.128,235.793 348.759 C 236.108 349.274,236.227 349.124,236.393 348.000 C 236.625 346.428,237.881 345.893,238.784 346.981 C 239.067 347.321,239.658 347.600,240.098 347.600 C 240.758 347.600,240.812 347.497,240.408 347.010 C 239.541 345.965,241.366 342.800,242.836 342.800 C 243.658 342.800,244.015 343.006,244.053 343.500 C 244.082 343.885,244.217 343.570,244.353 342.800 C 244.641 341.167,245.982 340.698,247.203 341.803 C 247.901 342.434,247.947 342.412,248.070 341.375 C 248.252 339.841,249.332 339.234,250.308 340.117 C 251.281 340.998,252.167 341.012,251.833 340.142 C 251.694 339.780,251.839 339.195,252.154 338.842 C 252.469 338.489,252.788 337.750,252.864 337.200 C 253.019 336.064,254.463 335.623,255.422 336.418 C 255.892 336.808,256.000 336.754,256.000 336.129 C 256.000 334.432,258.010 333.787,258.893 335.200 C 259.592 336.320,259.808 336.202,259.804 334.700 C 259.800 333.310,261.191 332.631,262.126 333.566 C 262.681 334.121,263.731 334.135,263.389 333.582 C 263.247 333.353,263.417 332.729,263.766 332.196 C 264.114 331.664,264.400 330.958,264.400 330.628 C 264.400 329.853,265.864 329.071,266.839 329.326 C 267.578 329.519,267.599 328.488,267.698 286.262 L 267.800 243.000 269.038 242.879 C 270.659 242.721,272.528 246.759,271.100 247.335 C 270.825 247.446,271.076 247.551,271.657 247.568 C 272.251 247.586,272.815 247.337,272.945 247.000 C 273.498 245.557,275.591 246.640,275.612 248.380 C 275.623 249.266,275.678 249.308,276.032 248.700 C 276.652 247.635,278.800 247.752,278.800 248.850 C 278.800 249.590,278.963 249.667,280.057 249.449 C 281.456 249.169,282.400 249.714,282.400 250.800 C 282.400 251.186,282.683 251.737,283.028 252.023 C 283.373 252.310,283.570 252.872,283.465 253.272 C 283.348 253.721,283.490 254.000,283.837 254.000 C 284.147 254.000,284.400 253.832,284.400 253.627 C 284.400 253.000,286.002 252.704,286.619 253.216 C 287.331 253.807,287.384 255.459,286.700 255.735 C 286.383 255.863,286.439 255.948,286.853 255.968 C 287.213 255.986,287.604 255.627,287.724 255.171 C 288.016 254.054,290.044 254.246,290.569 255.440 C 290.849 256.078,291.277 256.270,292.355 256.240 C 293.475 256.208,293.804 256.368,293.920 257.000 C 294.001 257.440,294.345 258.016,294.684 258.281 C 295.068 258.581,295.227 259.145,295.106 259.781 C 294.889 260.913,295.748 261.234,296.155 260.173 C 296.635 258.923,298.583 259.625,298.725 261.100 C 298.829 262.177,299.018 262.400,299.825 262.400 L 300.800 262.400 300.800 230.825 L 300.800 199.251 299.509 199.125 C 298.632 199.040,298.070 198.701,297.755 198.066 C 297.501 197.553,297.092 196.932,296.846 196.686 C 296.153 195.993,296.312 194.482,297.100 194.276 C 297.635 194.136,297.591 194.082,296.914 194.046 C 296.403 194.020,295.847 194.339,295.600 194.800 C 294.723 196.439,292.818 195.509,292.775 193.420 C 292.751 192.289,292.723 192.266,292.388 193.100 C 291.732 194.732,290.140 194.289,289.159 192.201 C 288.694 191.212,288.417 190.132,288.544 189.801 C 288.846 189.015,287.852 189.014,287.200 189.800 C 286.130 191.090,283.952 189.746,284.557 188.169 C 284.677 187.856,284.601 187.600,284.387 187.600 C 284.174 187.600,284.000 187.881,284.000 188.225 C 284.000 189.669,281.425 188.742,281.153 187.200 C 281.017 186.430,280.882 186.115,280.853 186.500 C 280.762 187.707,278.081 187.461,277.768 186.216 C 277.633 185.675,277.269 185.023,276.961 184.767 C 276.652 184.511,276.394 183.829,276.387 183.251 C 276.376 182.349,276.306 182.288,275.887 182.825 C 274.639 184.425,272.543 183.659,272.910 181.737 C 273.132 180.577,272.925 180.557,272.039 181.651 C 271.255 182.620,269.738 182.412,269.525 181.307 C 269.434 180.836,268.950 180.644,267.800 180.626 C 265.895 180.595,265.036 178.177,266.769 177.724 C 267.585 177.511,267.594 177.319,267.696 157.854 L 267.800 138.200 269.086 138.076 C 270.178 137.970,270.411 138.105,270.628 138.968 C 270.843 139.827,271.002 139.920,271.656 139.570 C 272.822 138.946,274.000 139.484,274.000 140.640 C 274.000 141.182,274.270 141.729,274.600 141.855 C 274.930 141.982,275.200 142.516,275.200 143.043 C 275.200 144.164,275.477 144.236,276.440 143.364 C 277.637 142.280,278.912 142.993,278.719 144.639 C 278.548 146.108,278.974 146.509,279.316 145.200 C 279.734 143.603,282.400 144.433,282.400 146.160 C 282.400 146.782,282.507 146.853,282.880 146.480 C 283.713 145.647,285.185 145.909,285.585 146.961 C 285.786 147.490,286.142 148.040,286.375 148.185 C 286.609 148.329,286.800 148.977,286.800 149.624 C 286.800 150.861,287.463 151.223,287.855 150.200 C 288.407 148.762,291.033 150.047,290.513 151.500 C 290.414 151.775,290.528 152.000,290.767 152.000 C 291.005 152.000,291.200 151.809,291.200 151.575 C 291.200 150.465,293.796 151.399,294.051 152.600 C 294.191 153.260,294.327 153.575,294.353 153.300 C 294.439 152.392,297.200 152.669,297.200 153.586 C 297.200 154.018,297.560 154.565,298.000 154.800 C 298.888 155.275,299.094 157.015,298.300 157.335 C 297.900 157.496,297.900 157.543,298.300 157.568 C 298.575 157.586,299.160 157.240,299.600 156.800 C 300.831 155.569,302.400 156.273,302.400 158.057 C 302.400 158.784,302.457 158.800,303.029 158.229 C 303.374 157.883,303.810 157.600,303.996 157.600 C 304.849 157.600,305.600 158.146,305.600 158.766 C 305.600 159.141,305.864 159.796,306.187 160.224 C 306.510 160.651,306.780 161.315,306.787 161.700 C 306.803 162.568,307.133 162.584,308.040 161.764 C 309.133 160.775,310.400 161.379,310.400 162.889 C 310.400 164.081,310.427 164.100,311.167 163.430 C 312.415 162.301,313.756 162.753,314.047 164.400 C 314.183 165.170,314.318 165.485,314.347 165.100 C 314.432 163.977,316.726 164.153,317.168 165.316 C 317.360 165.820,317.817 166.482,318.184 166.787 C 318.619 167.147,318.770 167.665,318.618 168.270 C 318.361 169.293,319.081 169.577,319.455 168.600 C 320.054 167.041,322.533 168.406,322.101 170.057 C 321.994 170.466,322.108 170.800,322.353 170.800 C 322.599 170.800,322.800 170.551,322.800 170.247 C 322.800 169.635,323.818 169.277,324.900 169.509 C 325.307 169.596,325.600 170.024,325.599 170.529 C 325.599 171.286,325.820 171.400,327.291 171.400 C 328.656 171.400,329.012 171.552,329.138 172.190 C 329.223 172.625,329.569 173.181,329.905 173.427 C 330.299 173.715,330.445 174.254,330.314 174.937 C 330.075 176.189,330.589 176.341,331.200 175.200 C 332.085 173.547,334.270 174.677,333.903 176.598 C 333.672 177.801,334.215 177.952,334.524 176.771 C 334.818 175.643,336.926 175.828,337.138 177.000 C 337.217 177.440,337.557 178.109,337.891 178.487 C 338.226 178.865,338.404 179.540,338.288 179.987 C 338.032 180.964,338.865 181.085,339.616 180.181 C 340.503 179.113,341.783 179.622,341.925 181.100 C 342.059 182.483,342.557 182.809,342.955 181.773 C 343.449 180.487,345.376 181.233,345.606 182.800 C 345.759 183.844,345.883 184.022,346.093 183.500 C 346.549 182.368,348.725 182.563,349.026 183.762 C 349.159 184.291,349.613 184.815,350.034 184.925 C 350.785 185.121,350.800 184.393,350.800 148.829 C 350.800 109.336,350.902 111.098,348.733 113.267 C 347.333 114.667,345.646 113.478,346.203 111.485 C 346.444 110.621,346.432 110.622,345.680 111.557 C 344.652 112.836,342.800 112.488,342.800 111.016 C 342.800 110.483,342.620 109.936,342.400 109.800 C 342.180 109.664,342.000 109.113,342.000 108.576 C 342.000 107.435,341.548 107.353,340.184 108.247 C 338.984 109.033,338.000 108.449,338.000 106.951 C 338.000 105.891,337.411 105.672,337.055 106.600 C 336.464 108.142,334.414 106.935,334.375 105.020 C 334.351 103.889,334.323 103.866,333.988 104.700 C 333.521 105.859,331.200 106.017,331.200 104.889 C 331.200 104.498,330.927 103.788,330.593 103.311 C 329.945 102.387,329.948 101.585,330.600 101.106 C 330.820 100.944,330.617 100.809,330.149 100.806 C 329.681 100.803,329.067 101.079,328.784 101.419 C 327.886 102.502,326.628 101.971,326.368 100.400 C 326.192 99.331,326.065 99.162,325.831 99.685 C 325.080 101.370,322.800 100.797,322.800 98.922 C 322.800 98.032,322.743 98.000,322.171 98.571 C 321.130 99.613,319.200 98.988,319.200 97.610 C 319.200 97.190,319.020 96.736,318.800 96.600 C 318.230 96.248,318.304 94.505,318.900 94.265 C 319.175 94.154,319.035 94.049,318.589 94.032 C 318.143 94.014,317.470 94.360,317.093 94.800 C 315.944 96.142,314.422 95.286,314.375 93.271 C 314.350 92.210,314.346 92.208,313.978 93.127 C 313.400 94.568,311.475 94.204,311.193 92.600 C 311.055 91.811,310.875 91.571,310.668 91.900 C 310.107 92.790,308.087 92.510,307.780 91.500 C 307.629 91.005,307.234 90.291,306.903 89.913 C 306.571 89.535,306.396 88.860,306.512 88.413 C 306.757 87.480,306.092 87.295,305.745 88.200 C 305.111 89.851,302.816 88.661,302.788 86.667 C 302.777 85.886,302.735 85.869,302.368 86.500 C 301.637 87.755,299.624 87.418,299.338 85.992 C 299.205 85.327,298.940 84.686,298.748 84.568 C 298.557 84.450,298.400 83.913,298.400 83.376 C 298.400 82.259,297.930 82.121,297.184 83.019 C 296.272 84.119,294.999 83.582,295.004 82.100 C 295.008 80.589,294.606 80.457,293.637 81.653 C 292.643 82.882,291.210 82.086,291.175 80.286 C 291.152 79.115,291.117 79.080,290.788 79.900 C 289.904 82.099,286.800 79.628,286.800 76.725 C 286.800 76.326,286.530 76.000,286.200 76.000 C 285.870 76.000,285.600 76.168,285.600 76.373 C 285.600 78.269,282.822 76.746,282.775 74.824 C 282.750 73.813,282.745 73.812,282.388 74.700 C 281.897 75.919,280.099 75.937,279.651 74.727 C 279.397 74.041,278.993 73.848,277.764 73.827 C 276.472 73.805,276.178 73.648,276.076 72.929 C 276.008 72.450,275.693 71.843,275.376 71.580 C 275.059 71.317,274.800 70.674,274.800 70.151 C 274.800 68.991,274.629 68.971,273.591 70.009 C 272.458 71.142,271.200 70.458,271.200 68.709 C 271.200 67.620,271.131 67.536,270.700 68.096 C 270.220 68.719,269.551 68.949,268.515 68.847 C 268.016 68.799,267.051 65.942,267.115 64.700 C 267.153 63.952,266.211 63.735,265.801 64.398 C 264.766 66.073,262.570 65.256,263.043 63.371 C 263.191 62.780,263.113 62.400,262.843 62.400 C 262.600 62.400,262.400 62.667,262.400 62.992 C 262.400 63.705,260.502 64.262,259.951 63.711 C 259.736 63.496,259.479 62.453,259.380 61.393 C 259.153 58.980,259.119 58.950,257.157 59.473 C 255.437 59.932,254.841 59.513,255.345 58.200 C 255.501 57.792,255.323 57.600,254.787 57.600 C 254.354 57.600,254.000 57.768,254.000 57.973 C 254.000 58.600,252.398 58.896,251.781 58.384 C 251.461 58.119,251.195 57.429,251.188 56.851 C 251.177 55.944,251.120 55.896,250.768 56.500 C 249.533 58.620,247.617 57.039,247.605 53.892 C 247.600 52.294,246.442 52.003,244.965 53.229 C 244.531 53.589,244.261 53.582,243.800 53.200 C 243.071 52.595,243.013 51.342,243.700 51.065 C 243.999 50.944,243.918 50.850,243.500 50.832 C 243.115 50.814,242.436 51.164,241.991 51.609 C 240.854 52.746,239.600 52.058,239.600 50.297 C 239.600 49.029,239.597 49.027,238.977 49.911 C 237.642 51.817,236.016 50.730,235.884 47.843 C 235.794 45.872,235.190 45.500,233.648 46.463 C 233.240 46.718,232.612 46.813,232.253 46.676 C 231.488 46.382,231.372 44.559,232.100 44.265 C 232.375 44.154,232.238 44.049,231.796 44.032 C 231.354 44.014,230.761 44.371,230.477 44.825 C 229.649 46.151,228.229 45.700,228.072 44.063 C 227.950 42.791,227.908 42.759,227.205 43.396 C 226.237 44.272,224.646 44.041,224.483 43.000 C 224.415 42.560,224.164 41.807,223.926 41.327 C 223.688 40.847,223.602 40.172,223.734 39.827 C 224.063 38.969,222.878 39.006,221.908 39.883 C 220.919 40.778,219.794 40.115,219.816 38.649 C 219.833 37.507,219.313 37.239,218.945 38.200 C 218.477 39.418,216.461 38.931,216.048 37.500 C 215.841 36.785,215.656 36.425,215.636 36.700 C 215.561 37.745,212.800 37.306,212.800 36.249 C 212.800 35.726,212.523 35.068,212.185 34.788 C 211.847 34.507,211.622 33.917,211.685 33.476 C 211.831 32.456,211.127 32.193,210.578 33.063 " stroke="none" fill="#1c64c4" fill-rule="evenodd"></path><path id="path1" d="M189.363 31.351 C 188.853 32.681,189.369 33.397,190.931 33.526 C 192.436 33.650,192.453 33.635,192.327 32.326 C 192.184 30.832,189.856 30.066,189.363 31.351 M207.886 31.048 C 207.292 31.642,207.594 33.505,208.315 33.694 C 209.713 34.059,210.865 33.300,210.727 32.103 C 210.600 31.003,208.653 30.280,207.886 31.048 M187.276 32.685 C 186.767 32.783,186.253 33.118,186.133 33.431 C 186.013 33.744,185.686 34.000,185.406 34.000 C 184.534 34.000,183.952 35.068,184.226 36.162 C 184.603 37.664,187.200 37.722,187.200 36.229 C 187.200 35.694,187.425 35.019,187.700 34.729 C 187.975 34.438,188.214 33.795,188.232 33.300 C 188.249 32.805,188.249 32.425,188.232 32.454 C 188.214 32.484,187.784 32.588,187.276 32.685 M211.696 33.349 C 211.652 33.880,211.882 34.536,212.208 34.807 C 212.534 35.077,212.800 35.726,212.800 36.249 C 212.800 37.306,215.561 37.745,215.636 36.700 C 215.656 36.425,215.841 36.785,216.048 37.500 C 216.706 39.779,219.200 39.199,219.200 36.767 C 219.200 36.141,218.911 36.000,217.628 36.000 C 216.302 36.000,216.036 35.859,215.928 35.100 C 215.846 34.522,215.478 34.154,214.900 34.072 C 214.405 34.002,214.000 33.687,214.000 33.372 C 214.000 33.057,213.745 32.800,213.433 32.800 C 213.121 32.800,212.620 32.706,212.321 32.591 C 211.964 32.454,211.748 32.716,211.696 33.349 M180.800 36.920 C 180.800 38.619,183.196 39.630,183.757 38.167 C 184.386 36.528,184.056 36.000,182.400 36.000 C 180.997 36.000,180.800 36.113,180.800 36.920 M177.600 38.526 C 177.600 39.830,178.641 40.696,179.534 40.133 C 180.772 39.352,180.376 37.817,178.900 37.675 C 177.754 37.564,177.600 37.665,177.600 38.526 M219.745 38.200 C 219.206 39.605,220.703 40.910,221.805 39.996 C 222.933 39.060,222.557 37.600,221.187 37.600 C 220.479 37.600,219.879 37.849,219.745 38.200 M174.854 39.946 C 174.384 40.416,173.713 40.800,173.363 40.800 C 173.012 40.800,172.634 41.150,172.522 41.578 C 172.375 42.137,171.907 42.391,170.859 42.478 C 169.267 42.611,168.657 43.863,169.618 45.022 C 170.673 46.293,172.842 44.928,172.243 43.369 C 172.123 43.056,172.180 42.800,172.370 42.800 C 172.559 42.800,172.823 43.082,172.955 43.427 C 173.313 44.361,175.359 44.020,175.517 43.000 C 175.585 42.560,175.832 41.815,176.065 41.344 C 176.798 39.861,175.935 38.865,174.854 39.946 M223.734 39.827 C 223.602 40.172,223.688 40.847,223.926 41.327 C 224.164 41.807,224.415 42.560,224.483 43.000 C 224.648 44.053,226.241 44.268,227.233 43.370 C 227.974 42.700,228.000 42.720,228.000 43.951 C 228.000 45.364,228.893 45.990,229.954 45.320 C 231.320 44.459,230.765 42.614,229.100 42.476 C 227.925 42.379,227.600 42.184,227.600 41.576 C 227.600 41.015,227.323 40.800,226.600 40.800 C 226.012 40.800,225.600 40.570,225.600 40.243 C 225.600 39.936,225.315 39.576,224.967 39.443 C 224.077 39.101,224.004 39.124,223.734 39.827 M166.000 45.124 C 166.000 45.552,166.268 46.124,166.595 46.396 C 167.455 47.110,168.481 46.581,168.328 45.502 C 168.155 44.282,166.000 43.932,166.000 45.124 M231.673 45.500 C 231.774 46.373,232.006 46.600,232.800 46.600 C 233.594 46.600,233.826 46.373,233.927 45.500 C 234.041 44.507,233.931 44.400,232.800 44.400 C 231.669 44.400,231.559 44.507,231.673 45.500 M235.819 46.417 C 235.048 48.392,236.879 51.447,238.300 50.558 C 239.406 49.865,239.475 47.600,238.389 47.600 C 237.916 47.600,237.198 47.195,236.794 46.700 C 236.182 45.951,236.019 45.903,235.819 46.417 M163.600 47.000 C 163.326 47.330,162.584 47.600,161.951 47.600 C 160.694 47.600,160.412 48.528,161.214 50.026 C 162.167 51.807,163.742 50.773,164.150 48.100 C 164.433 46.249,164.354 46.092,163.600 47.000 M157.675 50.500 C 157.786 51.650,157.939 51.800,159.000 51.800 C 160.061 51.800,160.214 51.650,160.325 50.500 C 160.446 49.249,160.396 49.200,159.000 49.200 C 157.604 49.200,157.554 49.249,157.675 50.500 M239.600 50.386 C 239.600 51.771,240.644 52.543,241.710 51.946 C 243.109 51.163,242.602 49.200,241.000 49.200 C 239.715 49.200,239.600 49.297,239.600 50.386 M154.900 51.065 C 154.625 51.176,154.400 51.522,154.400 51.833 C 154.400 52.145,154.023 52.400,153.563 52.400 C 153.062 52.400,152.641 52.721,152.516 53.200 C 152.374 53.742,151.967 54.002,151.253 54.006 C 149.688 54.015,149.119 54.542,149.268 55.843 C 149.481 57.709,151.814 57.770,152.346 55.924 C 152.556 55.196,152.744 54.825,152.764 55.100 C 152.821 55.888,155.600 55.753,155.600 54.962 C 155.600 54.611,155.902 53.812,156.271 53.188 C 157.170 51.665,156.394 50.462,154.900 51.065 M243.700 51.065 C 243.020 51.339,243.069 52.593,243.783 53.186 C 244.709 53.955,245.995 52.879,245.559 51.700 C 245.235 50.825,244.726 50.651,243.700 51.065 M247.605 54.563 C 247.619 56.616,248.051 57.248,249.352 57.121 C 251.430 56.919,251.221 54.315,249.100 53.970 C 247.766 53.753,247.601 53.818,247.605 54.563 M146.000 56.986 C 146.000 58.225,147.375 59.085,148.226 58.379 C 149.421 57.387,148.940 56.000,147.400 56.000 C 146.179 56.000,146.000 56.126,146.000 56.986 M251.200 56.951 C 251.200 58.165,252.128 58.940,253.181 58.606 C 254.759 58.105,254.290 56.000,252.600 56.000 C 251.393 56.000,251.200 56.131,251.200 56.951 M143.300 57.865 C 143.025 57.976,142.800 58.322,142.800 58.633 C 142.800 58.971,142.396 59.200,141.800 59.200 C 141.026 59.200,140.800 59.406,140.800 60.111 C 140.800 60.932,140.643 61.006,139.200 60.869 C 137.665 60.722,137.600 60.764,137.600 61.878 C 137.600 64.169,139.691 64.826,140.542 62.803 C 140.902 61.947,141.168 61.728,141.477 62.037 C 142.339 62.899,143.790 62.287,143.935 61.000 C 144.010 60.340,144.238 59.598,144.442 59.351 C 144.647 59.104,144.701 58.609,144.564 58.251 C 144.305 57.576,144.141 57.526,143.300 57.865 M255.356 58.170 C 254.958 59.208,255.464 59.961,256.397 59.717 C 256.979 59.565,257.204 59.233,257.121 58.652 C 256.975 57.635,255.695 57.286,255.356 58.170 M259.454 61.403 C 259.127 62.256,259.868 64.000,260.557 64.000 C 261.891 64.000,262.400 63.491,262.400 62.157 C 262.400 60.653,259.980 60.034,259.454 61.403 M134.433 63.300 C 134.010 64.415,134.577 65.200,135.806 65.200 C 136.834 65.200,137.249 64.473,136.926 63.239 C 136.618 62.060,134.887 62.103,134.433 63.300 M263.074 63.239 C 262.598 65.060,263.836 65.985,265.234 64.853 C 265.974 64.253,266.036 64.014,265.639 63.273 C 265.023 62.121,263.372 62.099,263.074 63.239 M131.600 65.200 C 131.160 65.640,130.429 66.000,129.975 66.000 C 128.425 66.000,129.077 68.569,130.666 68.723 C 132.029 68.855,132.124 68.719,132.623 65.900 C 132.925 64.195,132.735 64.065,131.600 65.200 M267.089 64.700 C 266.297 66.203,268.442 69.302,269.900 68.760 C 271.240 68.262,271.196 66.000,269.847 66.000 C 269.230 66.000,268.819 65.718,268.684 65.200 C 268.482 64.426,267.411 64.090,267.089 64.700 M126.006 68.500 C 126.022 70.843,128.503 71.207,128.725 68.900 C 128.846 67.653,128.792 67.600,127.425 67.600 C 126.212 67.600,126.001 67.734,126.006 68.500 M271.200 68.786 C 271.200 70.171,272.244 70.943,273.310 70.346 C 274.709 69.563,274.202 67.600,272.600 67.600 C 271.315 67.600,271.200 67.697,271.200 68.786 M122.800 70.000 C 122.565 70.440,122.018 70.800,121.586 70.800 C 121.154 70.800,120.800 71.051,120.800 71.357 C 120.800 72.002,119.948 72.400,118.567 72.400 C 117.775 72.400,117.600 72.602,117.600 73.520 C 117.600 75.774,119.700 76.404,120.542 74.403 C 120.902 73.547,121.168 73.328,121.477 73.637 C 122.199 74.359,123.786 73.900,123.924 72.929 C 123.992 72.450,124.307 71.843,124.624 71.580 C 125.389 70.945,125.357 69.746,124.567 69.443 C 123.556 69.055,123.255 69.150,122.800 70.000 M274.800 70.151 C 274.800 70.674,275.059 71.317,275.376 71.580 C 275.693 71.843,276.008 72.450,276.076 72.929 C 276.178 73.648,276.472 73.805,277.764 73.827 C 279.008 73.848,279.396 74.038,279.661 74.754 C 279.916 75.441,280.254 75.624,281.097 75.527 C 282.675 75.345,283.041 72.400,281.486 72.400 C 280.957 72.400,280.198 72.040,279.800 71.600 C 279.402 71.160,278.756 70.800,278.365 70.800 C 277.974 70.800,277.540 70.440,277.400 70.000 C 277.003 68.749,274.800 68.877,274.800 70.151 M282.800 74.776 C 282.800 76.867,284.140 77.803,285.371 76.571 C 286.459 75.484,285.949 74.530,284.080 74.156 C 282.952 73.930,282.800 74.004,282.800 74.776 M114.400 75.557 C 114.400 77.352,116.468 77.676,117.011 75.967 C 117.357 74.876,116.921 74.400,115.576 74.400 C 114.546 74.400,114.400 74.543,114.400 75.557 M111.213 76.776 C 110.970 77.229,110.407 77.600,109.961 77.600 C 109.291 77.600,109.171 77.820,109.275 78.860 C 109.515 81.276,112.042 81.441,112.327 79.060 C 112.396 78.477,112.634 78.000,112.854 78.000 C 113.533 78.000,113.043 76.216,112.327 76.080 C 111.957 76.009,111.455 76.323,111.213 76.776 M286.800 76.725 C 286.800 79.628,289.904 82.099,290.788 79.900 C 291.117 79.080,291.152 79.115,291.175 80.286 C 291.225 82.847,294.000 82.911,294.000 80.351 C 294.000 79.339,293.855 79.200,292.803 79.200 C 292.040 79.200,291.426 78.910,291.107 78.400 C 290.832 77.960,290.303 77.600,289.931 77.600 C 289.558 77.600,289.140 77.240,289.000 76.800 C 288.665 75.744,286.800 75.680,286.800 76.725 M106.000 80.386 C 106.000 81.771,107.044 82.543,108.110 81.946 C 109.509 81.163,109.002 79.200,107.400 79.200 C 106.115 79.200,106.000 79.297,106.000 80.386 M102.621 81.535 C 102.464 82.029,101.864 82.412,100.986 82.576 C 100.224 82.719,99.600 83.013,99.600 83.228 C 99.600 83.444,99.139 83.795,98.575 84.010 C 96.927 84.636,97.307 86.952,99.086 87.124 C 100.151 87.227,100.413 87.088,100.607 86.316 C 100.811 85.500,101.039 85.402,102.420 85.533 C 103.879 85.672,104.000 85.607,104.000 84.685 C 104.000 84.135,104.282 83.577,104.627 83.445 C 105.036 83.288,105.209 82.821,105.127 82.102 C 104.965 80.698,103.026 80.259,102.621 81.535 M294.954 81.377 C 294.565 82.388,294.982 83.396,295.839 83.519 C 296.911 83.673,297.739 82.668,297.406 81.619 C 297.101 80.658,295.298 80.480,294.954 81.377 M298.400 83.349 C 298.400 83.901,298.557 84.450,298.748 84.568 C 298.940 84.686,299.208 85.339,299.343 86.017 C 299.721 87.903,302.138 87.643,302.326 85.697 C 302.419 84.732,302.263 84.324,301.726 84.122 C 301.326 83.972,300.820 83.632,300.600 83.365 C 299.709 82.286,298.400 82.276,298.400 83.349 M94.244 86.629 C 93.824 87.725,94.737 88.861,95.927 88.724 C 97.795 88.508,97.741 86.000,95.868 86.000 C 94.980 86.000,94.399 86.225,94.244 86.629 M302.800 86.767 C 302.800 88.952,305.326 89.832,305.830 87.823 C 306.174 86.451,305.765 86.000,304.176 86.000 C 303.086 86.000,302.800 86.160,302.800 86.767 M90.924 88.371 C 90.804 88.827,90.402 89.200,90.029 89.200 C 89.656 89.200,88.964 89.560,88.492 90.000 C 88.020 90.440,87.266 90.800,86.817 90.800 C 85.502 90.800,85.645 93.496,86.977 93.830 C 88.278 94.156,88.800 93.774,88.800 92.496 C 88.800 91.675,88.907 91.547,89.280 91.920 C 90.337 92.977,92.400 92.212,92.400 90.763 C 92.400 90.390,92.683 89.977,93.028 89.845 C 93.405 89.700,93.605 89.243,93.528 88.702 C 93.348 87.436,91.238 87.167,90.924 88.371 M306.524 88.254 C 306.386 88.614,306.484 89.199,306.742 89.554 C 307.000 89.909,307.407 90.695,307.645 91.300 C 308.115 92.494,310.051 92.878,310.668 91.900 C 310.875 91.571,311.056 91.811,311.195 92.600 C 311.550 94.604,313.754 94.361,313.924 92.300 C 314.031 91.012,313.932 90.800,313.224 90.800 C 312.771 90.800,312.040 90.440,311.600 90.000 C 311.160 89.560,310.461 89.200,310.047 89.200 C 309.630 89.200,309.200 88.843,309.084 88.400 C 308.823 87.400,306.894 87.291,306.524 88.254 M82.880 92.880 C 81.884 93.876,83.222 95.873,84.546 95.366 C 85.277 95.085,85.823 93.485,85.414 92.823 C 85.061 92.251,83.473 92.287,82.880 92.880 M314.400 93.347 C 314.400 95.174,315.864 96.079,316.993 94.950 C 318.136 93.807,317.611 92.617,315.900 92.476 C 314.535 92.363,314.400 92.441,314.400 93.347 M79.316 95.200 C 79.201 95.640,78.811 96.000,78.450 96.000 C 78.088 96.000,77.568 96.360,77.293 96.800 C 76.981 97.300,76.360 97.600,75.639 97.600 C 74.388 97.600,73.931 98.250,74.271 99.548 C 74.794 101.551,77.177 100.829,77.232 98.651 C 77.249 97.963,77.355 97.627,77.466 97.905 C 78.094 99.462,80.800 99.223,80.800 97.610 C 80.800 97.190,80.980 96.736,81.200 96.600 C 81.420 96.464,81.600 95.913,81.600 95.376 C 81.600 94.095,79.644 93.944,79.316 95.200 M318.400 95.376 C 318.400 95.913,318.580 96.464,318.800 96.600 C 319.020 96.736,319.200 97.190,319.200 97.610 C 319.200 98.988,321.130 99.613,322.171 98.571 C 322.743 98.000,322.800 98.032,322.800 98.922 C 322.800 100.963,325.344 101.360,325.837 99.396 C 326.136 98.206,325.778 97.600,324.776 97.600 C 324.349 97.600,323.640 97.240,323.200 96.800 C 322.760 96.360,322.061 96.000,321.647 96.000 C 321.230 96.000,320.800 95.643,320.684 95.200 C 320.356 93.944,318.400 94.095,318.400 95.376 M70.924 99.854 C 70.559 100.804,71.337 101.800,72.444 101.800 C 73.230 101.800,73.422 101.569,73.525 100.500 C 73.668 99.018,71.455 98.469,70.924 99.854 M326.475 100.500 C 326.616 101.965,328.150 102.375,328.920 101.154 C 329.582 100.105,328.964 99.200,327.587 99.200 C 326.432 99.200,326.358 99.286,326.475 100.500 M330.600 101.106 C 329.948 101.585,329.945 102.387,330.593 103.311 C 330.927 103.788,331.200 104.509,331.200 104.914 C 331.200 105.504,331.459 105.626,332.500 105.525 C 334.052 105.376,334.834 102.400,333.320 102.400 C 332.920 102.400,332.368 102.040,332.093 101.600 C 331.559 100.745,331.237 100.638,330.600 101.106 M67.745 101.800 C 67.618 102.130,67.163 102.400,66.733 102.400 C 66.075 102.400,65.971 102.636,66.076 103.900 C 66.250 106.007,68.556 106.424,68.994 104.427 C 69.141 103.757,69.411 103.117,69.593 103.004 C 69.776 102.891,69.831 102.439,69.716 102.000 C 69.471 101.063,68.081 100.922,67.745 101.800 M63.100 104.276 C 62.230 104.503,62.191 105.734,63.029 106.571 C 64.246 107.789,65.600 107.025,65.600 105.120 C 65.600 103.973,65.014 103.775,63.100 104.276 M334.400 105.099 C 334.400 107.355,336.642 107.963,337.366 105.904 C 337.830 104.584,337.699 104.431,335.850 104.131 C 334.453 103.904,334.400 103.939,334.400 105.099 M59.200 106.800 C 59.200 107.422,58.933 107.600,58.003 107.600 C 57.240 107.600,56.626 107.890,56.307 108.400 C 56.032 108.840,55.510 109.200,55.147 109.200 C 54.352 109.200,53.977 110.025,54.267 111.134 C 54.713 112.839,57.200 112.661,57.200 110.924 C 57.200 110.080,57.300 109.985,57.776 110.380 C 58.711 111.156,60.580 110.744,60.724 109.729 C 60.792 109.250,61.107 108.643,61.424 108.380 C 62.621 107.387,62.141 106.000,60.600 106.000 C 59.467 106.000,59.200 106.152,59.200 106.800 M338.000 106.951 C 338.000 108.295,338.921 108.977,339.974 108.414 C 341.455 107.621,341.069 106.000,339.400 106.000 C 338.193 106.000,338.000 106.131,338.000 106.951 M342.000 108.576 C 342.000 109.113,342.180 109.664,342.400 109.800 C 342.620 109.936,342.800 110.483,342.800 111.016 C 342.800 112.345,344.670 112.866,345.477 111.762 C 346.268 110.681,345.977 109.425,344.900 109.272 C 344.405 109.202,344.000 108.906,344.000 108.615 C 344.000 108.114,343.173 107.600,342.367 107.600 C 342.165 107.600,342.000 108.039,342.000 108.576 M51.000 111.200 C 50.536 111.951,51.155 113.532,52.020 113.806 C 53.134 114.160,54.066 113.290,53.920 112.034 C 53.790 110.916,51.568 110.281,51.000 111.200 M346.212 111.562 C 345.912 112.506,346.602 114.000,347.338 114.000 C 348.355 114.000,349.277 112.964,349.138 111.978 C 348.950 110.646,346.608 110.314,346.212 111.562 M130.358 137.888 C 129.486 138.089,128.570 141.133,129.196 141.749 C 129.537 142.084,129.786 142.021,130.171 141.500 C 130.455 141.115,131.073 140.800,131.544 140.800 C 132.226 140.800,132.400 140.559,132.400 139.614 C 132.400 138.368,131.516 137.621,130.358 137.888 M267.867 138.267 C 267.148 138.986,267.609 140.800,268.511 140.800 C 269.012 140.800,269.730 141.160,270.107 141.600 C 270.484 142.040,271.171 142.400,271.634 142.400 C 272.138 142.400,272.559 142.720,272.684 143.200 C 273.014 144.460,275.200 144.323,275.200 143.043 C 275.200 142.516,274.930 141.982,274.600 141.855 C 274.270 141.729,274.000 141.182,274.000 140.640 C 274.000 139.484,272.822 138.946,271.656 139.570 C 271.004 139.919,270.844 139.828,270.634 138.992 C 270.390 138.021,268.585 137.548,267.867 138.267 M124.945 142.200 C 124.567 143.185,125.110 144.000,126.145 144.000 C 127.259 144.000,127.829 142.958,127.158 142.149 C 126.552 141.419,125.233 141.449,124.945 142.200 M121.618 143.378 C 120.719 144.461,121.262 145.800,122.600 145.800 C 123.626 145.800,123.819 145.633,123.932 144.643 C 124.121 142.988,122.622 142.168,121.618 143.378 M276.418 143.378 C 275.519 144.461,276.062 145.800,277.400 145.800 C 278.426 145.800,278.619 145.633,278.732 144.643 C 278.921 142.988,277.422 142.168,276.418 143.378 M117.571 146.173 C 116.358 148.753,117.111 150.247,118.693 148.400 C 119.070 147.960,119.709 147.600,120.113 147.600 C 121.460 147.600,120.891 144.634,119.514 144.475 C 118.571 144.366,118.315 144.590,117.571 146.173 M279.467 144.667 C 278.789 145.345,279.199 147.600,280.000 147.600 C 280.440 147.600,281.160 147.960,281.600 148.400 C 282.040 148.840,282.850 149.200,283.400 149.200 C 284.133 149.200,284.400 149.413,284.400 150.000 C 284.400 150.622,284.667 150.800,285.600 150.800 C 286.850 150.800,287.432 148.838,286.375 148.185 C 286.142 148.040,285.786 147.490,285.585 146.961 C 285.185 145.909,283.713 145.647,282.880 146.480 C 282.507 146.853,282.400 146.782,282.400 146.160 C 282.400 144.769,280.389 143.745,279.467 144.667 M113.467 148.267 C 113.320 148.413,113.200 149.043,113.200 149.667 C 113.200 151.107,115.353 151.386,115.718 149.993 C 116.046 148.738,114.319 147.414,113.467 148.267 M109.885 149.848 C 109.728 150.005,109.600 150.434,109.600 150.801 C 109.600 151.326,109.235 151.462,107.900 151.435 C 106.396 151.404,106.184 151.511,106.064 152.365 C 105.989 152.896,105.681 153.576,105.381 153.876 C 104.618 154.640,105.098 155.600,106.243 155.600 C 106.933 155.600,107.200 155.377,107.200 154.800 C 107.200 154.236,107.467 154.000,108.104 154.000 C 108.601 154.000,109.232 153.640,109.507 153.200 C 109.830 152.684,110.440 152.400,111.229 152.400 C 112.366 152.400,112.442 152.310,112.325 151.100 C 112.202 149.818,110.691 149.043,109.885 149.848 M287.843 150.233 C 287.214 151.872,287.544 152.400,289.200 152.400 C 290.533 152.400,290.800 152.533,290.800 153.200 C 290.800 153.776,291.067 154.000,291.753 154.000 C 292.359 154.000,292.780 154.282,292.909 154.774 C 293.042 155.282,293.605 155.640,294.556 155.818 C 295.355 155.968,296.000 156.327,296.000 156.621 C 296.000 157.396,296.707 157.710,297.823 157.430 C 299.060 157.119,299.174 155.428,298.000 154.800 C 297.560 154.565,297.200 154.018,297.200 153.586 C 297.200 152.669,294.439 152.392,294.353 153.300 C 294.327 153.575,294.191 153.260,294.051 152.600 C 293.796 151.399,291.200 150.465,291.200 151.575 C 291.200 151.809,291.005 152.000,290.767 152.000 C 290.528 152.000,290.414 151.775,290.513 151.500 C 291.042 150.024,288.404 148.771,287.843 150.233 M101.817 154.938 C 100.645 155.795,101.155 157.400,102.600 157.400 C 103.604 157.400,103.820 157.225,103.924 156.327 C 104.081 154.967,102.869 154.169,101.817 154.938 M98.554 156.306 C 98.309 156.468,97.978 157.014,97.820 157.521 C 97.591 158.257,97.420 158.349,96.972 157.976 C 96.168 157.309,94.400 157.847,94.400 158.759 C 94.400 159.168,94.121 159.733,93.781 160.016 C 92.797 160.832,93.216 162.179,94.500 162.327 C 95.386 162.429,95.600 162.292,95.600 161.627 C 95.600 161.026,95.857 160.800,96.538 160.800 C 97.054 160.800,97.802 160.440,98.200 160.000 C 98.598 159.560,99.346 159.200,99.862 159.200 C 100.662 159.200,100.800 159.000,100.800 157.843 C 100.800 156.265,99.729 155.532,98.554 156.306 M299.900 156.432 C 298.512 157.240,298.989 159.200,300.573 159.200 C 301.595 159.200,302.011 159.405,302.200 160.000 C 302.358 160.497,302.805 160.800,303.380 160.800 C 303.970 160.800,304.383 161.091,304.516 161.600 C 304.657 162.141,305.062 162.400,305.763 162.400 C 306.954 162.400,307.135 161.476,306.187 160.224 C 305.864 159.796,305.600 159.141,305.600 158.766 C 305.600 158.146,304.849 157.600,303.996 157.600 C 303.810 157.600,303.374 157.883,303.029 158.229 C 302.457 158.800,302.400 158.784,302.400 158.057 C 302.400 156.548,301.124 155.719,299.900 156.432 M90.100 161.465 C 88.824 161.980,89.541 164.000,91.000 164.000 C 92.194 164.000,92.400 163.865,92.400 163.080 C 92.400 161.605,91.434 160.927,90.100 161.465 M308.080 161.680 C 307.007 162.753,307.501 164.000,309.000 164.000 C 310.277 164.000,310.400 163.899,310.400 162.843 C 310.400 161.354,309.072 160.688,308.080 161.680 M86.159 163.876 C 86.011 164.494,85.731 165.202,85.538 165.449 C 85.079 166.036,85.534 167.200,86.223 167.200 C 86.518 167.200,86.904 166.950,87.080 166.645 C 87.256 166.339,87.760 166.022,88.200 165.939 C 88.818 165.823,89.000 165.472,89.000 164.395 C 89.000 162.447,86.605 162.009,86.159 163.876 M311.235 163.358 C 310.444 164.311,310.853 165.779,311.954 165.935 C 312.479 166.009,313.278 166.414,313.730 166.835 C 314.181 167.256,314.856 167.600,315.229 167.600 C 315.602 167.600,316.001 167.960,316.116 168.400 C 316.255 168.934,316.662 169.200,317.336 169.200 C 318.724 169.200,319.138 167.824,318.097 166.666 C 317.669 166.190,317.208 165.485,317.072 165.100 C 316.910 164.642,316.407 164.400,315.613 164.400 C 314.744 164.400,314.385 164.599,314.347 165.100 C 314.318 165.485,314.183 165.170,314.047 164.400 C 313.770 162.829,312.167 162.235,311.235 163.358 M81.599 167.201 C 81.256 167.843,81.261 168.192,81.621 168.626 C 82.737 169.970,84.646 168.715,83.721 167.246 C 83.106 166.270,82.109 166.249,81.599 167.201 M78.285 168.248 C 77.314 169.219,78.021 170.800,79.425 170.800 C 80.792 170.800,80.846 170.747,80.725 169.500 C 80.602 168.218,79.091 167.443,78.285 168.248 M319.443 168.633 C 318.846 170.189,319.159 170.800,320.553 170.800 C 322.023 170.800,322.613 169.881,321.928 168.657 C 321.459 167.819,319.761 167.802,319.443 168.633 M75.100 169.632 C 74.715 169.856,74.400 170.303,74.400 170.625 C 74.400 170.947,74.192 171.545,73.937 171.952 C 73.682 172.360,73.587 172.988,73.724 173.347 C 74.075 174.260,75.232 174.163,75.484 173.200 C 75.619 172.682,76.030 172.400,76.647 172.400 C 77.790 172.400,77.987 170.844,76.971 169.829 C 76.243 169.100,76.049 169.080,75.100 169.632 M323.541 169.501 C 322.930 169.632,322.418 170.714,322.405 171.900 C 322.402 172.175,322.829 172.400,323.353 172.400 C 323.970 172.400,324.381 172.682,324.516 173.200 C 324.676 173.813,325.062 174.000,326.163 174.000 C 327.306 174.000,327.600 174.155,327.600 174.757 C 327.600 175.533,329.275 176.248,330.018 175.789 C 330.597 175.431,330.474 173.683,329.845 173.320 C 329.539 173.144,329.220 172.640,329.136 172.200 C 329.011 171.550,328.665 171.400,327.291 171.400 C 325.830 171.400,325.599 171.283,325.599 170.547 C 325.600 169.676,324.744 169.241,323.541 169.501 M69.885 173.448 C 69.469 173.865,69.537 175.514,69.982 175.789 C 70.937 176.379,72.445 175.517,72.322 174.451 C 72.201 173.407,70.590 172.744,69.885 173.448 M66.480 174.880 C 66.216 175.144,66.000 175.706,66.000 176.129 C 66.000 176.754,65.892 176.808,65.422 176.418 C 64.570 175.712,63.033 176.061,62.863 177.000 C 62.783 177.440,62.450 178.102,62.124 178.470 C 61.303 179.396,61.620 180.573,62.733 180.732 C 63.397 180.826,63.720 180.628,63.876 180.032 C 63.997 179.568,64.420 179.200,64.833 179.200 C 65.239 179.200,65.758 178.851,65.986 178.425 C 66.237 177.958,66.917 177.601,67.701 177.525 C 68.707 177.428,69.030 177.192,69.131 176.478 C 69.370 174.789,67.624 173.736,66.480 174.880 M331.139 175.374 C 330.457 176.871,330.964 177.673,332.497 177.526 C 333.507 177.428,333.829 177.192,333.931 176.478 C 334.211 174.499,331.946 173.603,331.139 175.374 M334.384 177.042 C 333.865 178.407,334.143 179.200,335.141 179.200 C 335.580 179.200,335.999 179.555,336.124 180.032 C 336.280 180.628,336.603 180.826,337.267 180.732 C 338.380 180.573,338.697 179.396,337.876 178.470 C 337.550 178.102,337.217 177.440,337.138 177.000 C 336.895 175.658,334.898 175.689,334.384 177.042 M266.156 178.171 C 265.562 179.717,266.153 180.599,267.800 180.626 C 268.950 180.644,269.434 180.836,269.525 181.307 C 269.693 182.177,271.090 182.589,271.819 181.984 C 272.736 181.223,272.577 179.200,271.600 179.200 C 271.160 179.200,270.440 178.840,270.000 178.400 C 269.050 177.450,266.491 177.297,266.156 178.171 M58.243 180.233 C 57.639 181.806,57.956 182.400,59.400 182.400 C 60.594 182.400,60.800 182.265,60.800 181.480 C 60.800 179.817,58.780 178.832,58.243 180.233 M339.695 180.065 C 338.599 181.161,339.092 182.400,340.625 182.400 C 341.992 182.400,342.046 182.347,341.925 181.100 C 341.789 179.684,340.619 179.141,339.695 180.065 M273.067 181.067 C 272.138 181.995,273.461 184.066,274.765 183.725 C 276.504 183.270,276.229 180.800,274.440 180.800 C 273.831 180.800,273.213 180.920,273.067 181.067 M54.667 181.467 C 54.520 181.613,54.400 182.066,54.400 182.472 C 54.400 182.878,54.180 183.564,53.910 183.995 C 53.099 185.295,54.222 186.087,55.193 184.900 C 55.597 184.405,56.304 184.000,56.764 184.000 C 57.619 184.000,57.856 183.133,57.357 181.833 C 57.116 181.204,55.191 180.942,54.667 181.467 M342.827 181.950 C 342.059 183.384,342.300 184.000,343.629 184.000 C 344.854 184.000,346.000 184.759,346.000 185.571 C 346.000 185.807,346.360 186.000,346.800 186.000 C 347.240 186.000,347.600 186.258,347.600 186.573 C 347.600 187.283,348.928 187.740,350.000 187.400 C 351.073 187.060,351.098 185.203,350.034 184.925 C 349.613 184.815,349.159 184.291,349.026 183.762 C 348.725 182.563,346.549 182.368,346.093 183.500 C 345.883 184.022,345.759 183.844,345.606 182.800 C 345.355 181.097,343.575 180.552,342.827 181.950 M276.400 183.351 C 276.400 183.874,276.652 184.511,276.961 184.767 C 277.269 185.023,277.633 185.675,277.768 186.216 C 278.081 187.461,280.762 187.707,280.853 186.500 C 280.882 186.115,281.017 186.430,281.153 187.200 C 281.537 189.376,284.000 189.571,284.000 187.425 C 284.000 186.111,283.907 186.000,282.809 186.000 C 281.980 186.000,281.419 185.696,280.963 185.000 C 280.603 184.450,280.149 184.000,279.954 184.000 C 279.759 184.000,279.240 183.640,278.800 183.200 C 277.665 182.065,276.400 182.144,276.400 183.351 M49.200 185.973 C 49.200 187.262,50.187 187.849,51.600 187.400 C 53.280 186.867,52.262 184.800,50.320 184.800 C 49.348 184.800,49.200 184.955,49.200 185.973 M284.557 188.169 C 284.437 188.482,284.544 189.122,284.796 189.593 C 285.624 191.139,288.107 189.899,287.476 188.254 C 287.161 187.432,284.865 187.365,284.557 188.169 M288.544 189.801 C 288.057 191.070,289.923 194.063,291.114 193.925 C 292.485 193.767,293.061 190.800,291.720 190.800 C 291.320 190.800,290.768 190.440,290.493 190.000 C 289.903 189.056,288.871 188.950,288.544 189.801 M292.800 193.520 C 292.800 195.522,294.745 196.398,295.608 194.785 C 296.344 193.409,295.737 192.400,294.173 192.400 C 292.936 192.400,292.800 192.511,292.800 193.520 M296.400 195.320 C 296.400 195.826,296.601 196.441,296.846 196.686 C 297.092 196.932,297.501 197.553,297.755 198.066 C 298.663 199.897,300.800 199.588,300.800 197.625 C 300.800 196.267,300.669 196.000,300.000 196.000 C 299.467 196.000,299.200 195.733,299.200 195.200 C 299.200 194.552,298.933 194.400,297.800 194.400 C 296.606 194.400,296.400 194.535,296.400 195.320 M267.867 243.067 C 267.317 243.616,267.604 245.627,268.269 245.882 C 268.638 246.023,269.264 246.464,269.660 246.860 C 270.395 247.595,271.600 247.477,271.600 246.671 C 271.600 244.167,269.141 241.793,267.867 243.067 M272.783 247.231 C 272.100 248.507,272.595 249.200,274.187 249.200 C 275.395 249.200,275.600 249.066,275.600 248.280 C 275.600 246.443,273.603 245.700,272.783 247.231 M276.267 248.267 C 275.608 248.926,276.002 250.800,276.800 250.800 C 277.240 250.800,277.960 251.160,278.400 251.600 C 278.840 252.040,279.539 252.400,279.953 252.400 C 280.370 252.400,280.800 252.757,280.916 253.200 C 281.058 253.744,281.462 254.000,282.175 254.000 C 283.472 254.000,283.916 253.012,283.049 252.054 C 282.692 251.659,282.400 251.058,282.400 250.717 C 282.400 249.709,281.418 249.176,280.057 249.449 C 278.963 249.667,278.800 249.590,278.800 248.850 C 278.800 248.006,276.953 247.580,276.267 248.267 M284.629 253.429 C 283.862 254.196,283.850 254.442,284.538 255.383 C 285.309 256.437,287.200 255.933,287.200 254.672 C 287.200 252.960,285.783 252.274,284.629 253.429 M287.885 254.648 C 287.080 255.453,287.600 257.600,288.600 257.600 C 289.208 257.600,289.600 257.828,289.600 258.182 C 289.600 258.529,290.159 258.869,290.986 259.024 C 291.864 259.188,292.464 259.571,292.621 260.065 C 292.990 261.228,294.955 260.917,295.132 259.668 C 295.205 259.155,294.995 258.525,294.666 258.268 C 294.337 258.010,294.001 257.440,293.920 257.000 C 293.804 256.368,293.475 256.208,292.355 256.240 C 291.277 256.270,290.849 256.078,290.569 255.440 C 290.204 254.609,288.443 254.090,287.885 254.648 M296.285 259.848 C 295.314 260.819,296.021 262.400,297.425 262.400 C 298.792 262.400,298.846 262.347,298.725 261.100 C 298.602 259.818,297.091 259.043,296.285 259.848 M132.400 330.800 C 132.400 332.219,132.508 332.400,133.353 332.400 C 133.970 332.400,134.381 332.682,134.516 333.200 C 134.833 334.414,136.400 334.267,136.400 333.024 C 136.400 332.487,136.220 331.936,136.000 331.800 C 135.780 331.664,135.600 331.134,135.600 330.623 C 135.600 329.997,135.306 329.615,134.700 329.452 C 132.717 328.921,132.400 329.106,132.400 330.800 M265.100 329.624 C 264.715 329.853,264.400 330.307,264.400 330.634 C 264.400 330.961,264.114 331.664,263.766 332.196 C 263.417 332.729,263.247 333.353,263.389 333.582 C 263.838 334.309,265.262 334.049,265.484 333.200 C 265.621 332.675,266.030 332.400,266.671 332.400 C 267.556 332.400,267.637 332.258,267.524 330.900 C 267.390 329.280,266.483 328.802,265.100 329.624 M138.095 333.665 C 137.260 334.500,137.524 335.494,138.658 335.779 C 139.941 336.101,140.513 335.612,140.334 334.346 C 140.182 333.276,138.881 332.879,138.095 333.665 M259.885 333.448 C 259.450 333.883,259.546 335.519,260.023 335.814 C 261.023 336.432,262.454 335.607,262.325 334.486 C 262.201 333.408,260.604 332.729,259.885 333.448 M141.139 335.374 C 140.457 336.871,140.964 337.673,142.497 337.526 C 143.507 337.428,143.829 337.192,143.931 336.478 C 144.211 334.499,141.946 333.603,141.139 335.374 M256.480 334.880 C 256.216 335.144,256.000 335.706,256.000 336.129 C 256.000 336.754,255.892 336.808,255.422 336.418 C 254.463 335.623,253.019 336.064,252.864 337.200 C 252.788 337.750,252.469 338.489,252.154 338.842 C 251.839 339.195,251.694 339.780,251.833 340.142 C 252.190 341.071,253.630 340.971,253.884 340.000 C 253.999 339.560,254.426 339.200,254.833 339.200 C 255.239 339.200,255.758 338.851,255.986 338.425 C 256.237 337.958,256.917 337.601,257.701 337.525 C 258.707 337.428,259.030 337.192,259.131 336.478 C 259.370 334.789,257.624 333.736,256.480 334.880 M144.374 337.069 C 143.884 338.356,144.142 339.200,145.023 339.200 C 145.380 339.200,146.015 339.605,146.436 340.100 C 147.564 341.429,148.633 340.139,147.785 338.471 C 147.486 337.882,147.147 337.085,147.033 336.700 C 146.690 335.545,144.856 335.799,144.374 337.069 M149.900 340.032 C 148.544 340.822,149.010 342.400,150.600 342.400 C 151.794 342.400,152.000 342.265,152.000 341.480 C 152.000 339.935,151.115 339.325,149.900 340.032 M248.480 340.080 C 247.407 341.153,247.901 342.400,249.400 342.400 C 250.594 342.400,250.800 342.265,250.800 341.480 C 250.800 340.502,250.128 339.600,249.400 339.600 C 249.158 339.600,248.744 339.816,248.480 340.080 M152.827 341.950 C 151.994 343.506,152.283 344.000,154.025 344.000 C 155.618 344.000,155.648 343.974,155.525 342.700 C 155.370 341.091,153.556 340.587,152.827 341.950 M244.667 341.467 C 244.520 341.613,244.379 342.288,244.354 342.967 C 244.328 343.645,244.225 343.885,244.124 343.500 C 244.004 343.041,243.551 342.800,242.806 342.800 C 241.612 342.800,239.614 345.851,240.193 346.789 C 240.578 347.411,241.994 347.281,242.255 346.600 C 242.382 346.270,242.826 346.000,243.243 346.000 C 243.659 346.000,244.000 345.807,244.000 345.571 C 244.000 344.759,245.146 344.000,246.371 344.000 C 247.387 344.000,247.600 343.840,247.600 343.080 C 247.600 341.582,245.633 340.500,244.667 341.467 M156.267 343.067 C 155.648 343.685,156.007 345.677,156.772 345.877 C 157.197 345.988,157.641 346.331,157.760 346.639 C 157.999 347.264,159.427 347.403,159.778 346.836 C 160.691 345.358,157.452 341.881,156.267 343.067 M161.232 346.961 C 160.383 347.984,160.868 349.000,162.205 349.000 C 163.266 349.000,163.400 348.865,163.400 347.800 C 163.400 346.426,162.095 345.921,161.232 346.961 M236.684 346.650 C 236.528 346.806,236.400 347.443,236.400 348.067 C 236.400 349.397,238.598 349.791,239.076 348.546 C 239.556 347.296,237.593 345.741,236.684 346.650 M233.457 348.072 C 233.081 348.283,232.780 348.987,232.754 349.720 C 232.728 350.424,232.627 350.693,232.528 350.319 C 232.111 348.736,229.745 349.051,229.341 350.744 C 229.203 351.325,228.914 352.023,228.700 352.295 C 228.124 353.027,228.651 354.000,229.625 354.000 C 230.138 354.000,230.558 353.683,230.684 353.200 C 230.799 352.760,231.189 352.400,231.550 352.400 C 231.912 352.400,232.432 352.040,232.707 351.600 C 233.022 351.095,233.640 350.800,234.380 350.800 C 235.757 350.800,236.164 350.307,235.842 349.025 C 235.579 347.976,234.441 347.522,233.457 348.072 M164.428 348.747 C 163.753 350.009,164.308 350.800,165.868 350.800 C 167.187 350.800,167.245 350.740,167.125 349.500 C 166.970 347.893,165.157 347.386,164.428 348.747 M168.300 349.632 C 167.337 350.193,167.340 352.400,168.304 352.400 C 168.691 352.400,169.232 352.760,169.507 353.200 C 169.782 353.640,170.281 354.000,170.616 354.000 C 171.412 354.000,171.833 352.873,171.253 352.293 C 171.004 352.044,170.800 351.432,170.800 350.934 C 170.800 349.625,169.487 348.941,168.300 349.632 M225.046 353.411 C 223.670 354.787,224.862 356.465,226.640 355.654 C 227.827 355.114,227.788 354.153,226.546 353.330 C 225.801 352.835,225.611 352.846,225.046 353.411 M172.895 353.665 C 172.104 354.456,172.317 355.188,173.465 355.625 C 174.745 356.111,175.321 355.670,175.134 354.346 C 174.982 353.276,173.681 352.879,172.895 353.665 M176.500 354.658 C 175.185 355.208,175.936 357.600,177.424 357.600 C 178.825 357.600,178.846 357.576,178.724 356.100 C 178.599 354.594,177.836 354.099,176.500 354.658 M221.485 354.648 C 221.328 354.805,221.189 355.578,221.175 356.367 C 221.152 357.657,221.112 357.707,220.778 356.873 C 220.351 355.810,218.496 355.761,217.987 356.800 C 216.921 358.976,216.721 359.616,216.934 360.173 C 217.269 361.046,218.296 360.956,218.893 360.000 C 219.168 359.560,219.666 359.200,220.000 359.200 C 220.334 359.200,220.832 358.840,221.107 358.400 C 221.429 357.884,222.040 357.600,222.828 357.600 C 223.994 357.600,224.043 357.533,223.924 356.100 C 223.802 354.625,222.364 353.769,221.485 354.648 M179.680 356.480 C 178.906 357.254,179.071 359.200,179.911 359.200 C 180.302 359.200,180.941 359.572,181.330 360.027 C 181.720 360.482,182.255 360.783,182.519 360.696 C 183.127 360.495,183.403 358.800,182.828 358.800 C 182.593 358.800,182.400 358.386,182.400 357.880 C 182.400 356.809,181.712 356.000,180.800 356.000 C 180.448 356.000,179.944 356.216,179.680 356.480 M184.880 360.080 C 183.906 361.054,184.296 362.400,185.553 362.400 C 186.912 362.400,187.476 361.133,186.536 360.193 C 185.817 359.475,185.507 359.453,184.880 360.080 M213.272 360.257 C 212.642 361.383,213.179 362.400,214.404 362.400 C 215.324 362.400,216.000 361.806,216.000 360.996 C 216.000 359.892,213.808 359.299,213.272 360.257 M187.867 361.467 C 187.720 361.613,187.600 362.243,187.600 362.867 C 187.600 364.146,190.185 364.625,190.643 363.431 C 191.177 362.041,188.902 360.431,187.867 361.467 M209.597 362.207 C 209.061 363.617,209.371 364.000,211.049 364.000 C 212.389 364.000,212.445 363.943,212.325 362.700 C 212.153 360.908,210.224 360.560,209.597 362.207 " stroke="none" fill="#2064c4" fill-rule="evenodd"></path><path id="path2" d="M189.363 31.351 C 188.853 32.681,189.369 33.397,190.931 33.526 C 192.436 33.650,192.453 33.635,192.327 32.326 C 192.184 30.832,189.856 30.066,189.363 31.351 M207.886 31.048 C 207.292 31.642,207.594 33.505,208.315 33.694 C 209.713 34.059,210.865 33.300,210.727 32.103 C 210.600 31.003,208.653 30.280,207.886 31.048 M187.276 32.685 C 186.767 32.783,186.253 33.118,186.133 33.431 C 186.013 33.744,185.686 34.000,185.406 34.000 C 184.534 34.000,183.952 35.068,184.226 36.162 C 184.603 37.664,187.200 37.722,187.200 36.229 C 187.200 35.694,187.425 35.019,187.700 34.729 C 187.975 34.438,188.214 33.795,188.232 33.300 C 188.249 32.805,188.249 32.425,188.232 32.454 C 188.214 32.484,187.784 32.588,187.276 32.685 M211.696 33.349 C 211.652 33.880,211.882 34.536,212.208 34.807 C 212.534 35.077,212.800 35.726,212.800 36.249 C 212.800 37.306,215.561 37.745,215.636 36.700 C 215.656 36.425,215.841 36.785,216.048 37.500 C 216.706 39.779,219.200 39.199,219.200 36.767 C 219.200 36.141,218.911 36.000,217.628 36.000 C 216.302 36.000,216.036 35.859,215.928 35.100 C 215.846 34.522,215.478 34.154,214.900 34.072 C 214.405 34.002,214.000 33.687,214.000 33.372 C 214.000 33.057,213.745 32.800,213.433 32.800 C 213.121 32.800,212.620 32.706,212.321 32.591 C 211.964 32.454,211.748 32.716,211.696 33.349 M180.800 36.920 C 180.800 38.619,183.196 39.630,183.757 38.167 C 184.386 36.528,184.056 36.000,182.400 36.000 C 180.997 36.000,180.800 36.113,180.800 36.920 M177.600 38.526 C 177.600 39.830,178.641 40.696,179.534 40.133 C 180.772 39.352,180.376 37.817,178.900 37.675 C 177.754 37.564,177.600 37.665,177.600 38.526 M219.745 38.200 C 219.206 39.605,220.703 40.910,221.805 39.996 C 222.933 39.060,222.557 37.600,221.187 37.600 C 220.479 37.600,219.879 37.849,219.745 38.200 M174.854 39.946 C 174.384 40.416,173.713 40.800,173.363 40.800 C 173.012 40.800,172.634 41.150,172.522 41.578 C 172.375 42.137,171.907 42.391,170.859 42.478 C 169.267 42.611,168.657 43.863,169.618 45.022 C 170.673 46.293,172.842 44.928,172.243 43.369 C 172.123 43.056,172.180 42.800,172.370 42.800 C 172.559 42.800,172.823 43.082,172.955 43.427 C 173.313 44.361,175.359 44.020,175.517 43.000 C 175.585 42.560,175.832 41.815,176.065 41.344 C 176.798 39.861,175.935 38.865,174.854 39.946 M223.734 39.827 C 223.602 40.172,223.688 40.847,223.926 41.327 C 224.164 41.807,224.415 42.560,224.483 43.000 C 224.648 44.053,226.241 44.268,227.233 43.370 C 227.974 42.700,228.000 42.720,228.000 43.951 C 228.000 45.364,228.893 45.990,229.954 45.320 C 231.320 44.459,230.765 42.614,229.100 42.476 C 227.925 42.379,227.600 42.184,227.600 41.576 C 227.600 41.015,227.323 40.800,226.600 40.800 C 226.012 40.800,225.600 40.570,225.600 40.243 C 225.600 39.936,225.315 39.576,224.967 39.443 C 224.077 39.101,224.004 39.124,223.734 39.827 M166.000 45.124 C 166.000 45.552,166.268 46.124,166.595 46.396 C 167.455 47.110,168.481 46.581,168.328 45.502 C 168.155 44.282,166.000 43.932,166.000 45.124 M231.673 45.500 C 231.774 46.373,232.006 46.600,232.800 46.600 C 233.594 46.600,233.826 46.373,233.927 45.500 C 234.041 44.507,233.931 44.400,232.800 44.400 C 231.669 44.400,231.559 44.507,231.673 45.500 M235.819 46.417 C 235.048 48.392,236.879 51.447,238.300 50.558 C 239.406 49.865,239.475 47.600,238.389 47.600 C 237.916 47.600,237.198 47.195,236.794 46.700 C 236.182 45.951,236.019 45.903,235.819 46.417 M163.600 47.000 C 163.326 47.330,162.584 47.600,161.951 47.600 C 160.694 47.600,160.412 48.528,161.214 50.026 C 162.167 51.807,163.742 50.773,164.150 48.100 C 164.433 46.249,164.354 46.092,163.600 47.000 M157.675 50.500 C 157.786 51.650,157.939 51.800,159.000 51.800 C 160.061 51.800,160.214 51.650,160.325 50.500 C 160.446 49.249,160.396 49.200,159.000 49.200 C 157.604 49.200,157.554 49.249,157.675 50.500 M239.600 50.386 C 239.600 51.771,240.644 52.543,241.710 51.946 C 243.109 51.163,242.602 49.200,241.000 49.200 C 239.715 49.200,239.600 49.297,239.600 50.386 M154.900 51.065 C 154.625 51.176,154.400 51.522,154.400 51.833 C 154.400 52.145,154.023 52.400,153.563 52.400 C 153.062 52.400,152.641 52.721,152.516 53.200 C 152.374 53.742,151.967 54.002,151.253 54.006 C 149.688 54.015,149.119 54.542,149.268 55.843 C 149.481 57.709,151.814 57.770,152.346 55.924 C 152.556 55.196,152.744 54.825,152.764 55.100 C 152.821 55.888,155.600 55.753,155.600 54.962 C 155.600 54.611,155.902 53.812,156.271 53.188 C 157.170 51.665,156.394 50.462,154.900 51.065 M243.700 51.065 C 243.020 51.339,243.069 52.593,243.783 53.186 C 244.709 53.955,245.995 52.879,245.559 51.700 C 245.235 50.825,244.726 50.651,243.700 51.065 M247.605 54.563 C 247.619 56.616,248.051 57.248,249.352 57.121 C 251.430 56.919,251.221 54.315,249.100 53.970 C 247.766 53.753,247.601 53.818,247.605 54.563 M146.000 56.986 C 146.000 58.225,147.375 59.085,148.226 58.379 C 149.421 57.387,148.940 56.000,147.400 56.000 C 146.179 56.000,146.000 56.126,146.000 56.986 M251.200 56.951 C 251.200 58.165,252.128 58.940,253.181 58.606 C 254.759 58.105,254.290 56.000,252.600 56.000 C 251.393 56.000,251.200 56.131,251.200 56.951 M143.300 57.865 C 143.025 57.976,142.800 58.322,142.800 58.633 C 142.800 58.971,142.396 59.200,141.800 59.200 C 141.026 59.200,140.800 59.406,140.800 60.111 C 140.800 60.932,140.643 61.006,139.200 60.869 C 137.665 60.722,137.600 60.764,137.600 61.878 C 137.600 64.169,139.691 64.826,140.542 62.803 C 140.902 61.947,141.168 61.728,141.477 62.037 C 142.339 62.899,143.790 62.287,143.935 61.000 C 144.010 60.340,144.238 59.598,144.442 59.351 C 144.647 59.104,144.701 58.609,144.564 58.251 C 144.305 57.576,144.141 57.526,143.300 57.865 M255.356 58.170 C 254.958 59.208,255.464 59.961,256.397 59.717 C 256.979 59.565,257.204 59.233,257.121 58.652 C 256.975 57.635,255.695 57.286,255.356 58.170 M259.454 61.403 C 259.127 62.256,259.868 64.000,260.557 64.000 C 261.891 64.000,262.400 63.491,262.400 62.157 C 262.400 60.653,259.980 60.034,259.454 61.403 M134.433 63.300 C 134.010 64.415,134.577 65.200,135.806 65.200 C 136.834 65.200,137.249 64.473,136.926 63.239 C 136.618 62.060,134.887 62.103,134.433 63.300 M263.074 63.239 C 262.598 65.060,263.836 65.985,265.234 64.853 C 265.974 64.253,266.036 64.014,265.639 63.273 C 265.023 62.121,263.372 62.099,263.074 63.239 M131.600 65.200 C 131.160 65.640,130.429 66.000,129.975 66.000 C 128.425 66.000,129.077 68.569,130.666 68.723 C 132.029 68.855,132.124 68.719,132.623 65.900 C 132.925 64.195,132.735 64.065,131.600 65.200 M267.089 64.700 C 266.297 66.203,268.442 69.302,269.900 68.760 C 271.240 68.262,271.196 66.000,269.847 66.000 C 269.230 66.000,268.819 65.718,268.684 65.200 C 268.482 64.426,267.411 64.090,267.089 64.700 M126.006 68.500 C 126.022 70.843,128.503 71.207,128.725 68.900 C 128.846 67.653,128.792 67.600,127.425 67.600 C 126.212 67.600,126.001 67.734,126.006 68.500 M271.200 68.786 C 271.200 70.171,272.244 70.943,273.310 70.346 C 274.709 69.563,274.202 67.600,272.600 67.600 C 271.315 67.600,271.200 67.697,271.200 68.786 M122.800 70.000 C 122.565 70.440,122.018 70.800,121.586 70.800 C 121.154 70.800,120.800 71.051,120.800 71.357 C 120.800 72.002,119.948 72.400,118.567 72.400 C 117.775 72.400,117.600 72.602,117.600 73.520 C 117.600 75.774,119.700 76.404,120.542 74.403 C 120.902 73.547,121.168 73.328,121.477 73.637 C 122.199 74.359,123.786 73.900,123.924 72.929 C 123.992 72.450,124.307 71.843,124.624 71.580 C 125.389 70.945,125.357 69.746,124.567 69.443 C 123.556 69.055,123.255 69.150,122.800 70.000 M274.800 70.151 C 274.800 70.674,275.059 71.317,275.376 71.580 C 275.693 71.843,276.008 72.450,276.076 72.929 C 276.178 73.648,276.472 73.805,277.764 73.827 C 279.008 73.848,279.396 74.038,279.661 74.754 C 279.916 75.441,280.254 75.624,281.097 75.527 C 282.675 75.345,283.041 72.400,281.486 72.400 C 280.957 72.400,280.198 72.040,279.800 71.600 C 279.402 71.160,278.756 70.800,278.365 70.800 C 277.974 70.800,277.540 70.440,277.400 70.000 C 277.003 68.749,274.800 68.877,274.800 70.151 M282.800 74.776 C 282.800 76.867,284.140 77.803,285.371 76.571 C 286.459 75.484,285.949 74.530,284.080 74.156 C 282.952 73.930,282.800 74.004,282.800 74.776 M114.400 75.557 C 114.400 77.352,116.468 77.676,117.011 75.967 C 117.357 74.876,116.921 74.400,115.576 74.400 C 114.546 74.400,114.400 74.543,114.400 75.557 M111.213 76.776 C 110.970 77.229,110.407 77.600,109.961 77.600 C 109.291 77.600,109.171 77.820,109.275 78.860 C 109.515 81.276,112.042 81.441,112.327 79.060 C 112.396 78.477,112.634 78.000,112.854 78.000 C 113.533 78.000,113.043 76.216,112.327 76.080 C 111.957 76.009,111.455 76.323,111.213 76.776 M286.800 76.725 C 286.800 79.628,289.904 82.099,290.788 79.900 C 291.117 79.080,291.152 79.115,291.175 80.286 C 291.225 82.847,294.000 82.911,294.000 80.351 C 294.000 79.339,293.855 79.200,292.803 79.200 C 292.040 79.200,291.426 78.910,291.107 78.400 C 290.832 77.960,290.303 77.600,289.931 77.600 C 289.558 77.600,289.140 77.240,289.000 76.800 C 288.665 75.744,286.800 75.680,286.800 76.725 M106.000 80.386 C 106.000 81.771,107.044 82.543,108.110 81.946 C 109.509 81.163,109.002 79.200,107.400 79.200 C 106.115 79.200,106.000 79.297,106.000 80.386 M102.621 81.535 C 102.464 82.029,101.864 82.412,100.986 82.576 C 100.224 82.719,99.600 83.013,99.600 83.228 C 99.600 83.444,99.139 83.795,98.575 84.010 C 96.927 84.636,97.307 86.952,99.086 87.124 C 100.151 87.227,100.413 87.088,100.607 86.316 C 100.811 85.500,101.039 85.402,102.420 85.533 C 103.879 85.672,104.000 85.607,104.000 84.685 C 104.000 84.135,104.282 83.577,104.627 83.445 C 105.036 83.288,105.209 82.821,105.127 82.102 C 104.965 80.698,103.026 80.259,102.621 81.535 M294.954 81.377 C 294.565 82.388,294.982 83.396,295.839 83.519 C 296.911 83.673,297.739 82.668,297.406 81.619 C 297.101 80.658,295.298 80.480,294.954 81.377 M298.400 83.349 C 298.400 83.901,298.557 84.450,298.748 84.568 C 298.940 84.686,299.208 85.339,299.343 86.017 C 299.721 87.903,302.138 87.643,302.326 85.697 C 302.419 84.732,302.263 84.324,301.726 84.122 C 301.326 83.972,300.820 83.632,300.600 83.365 C 299.709 82.286,298.400 82.276,298.400 83.349 M94.244 86.629 C 93.824 87.725,94.737 88.861,95.927 88.724 C 97.795 88.508,97.741 86.000,95.868 86.000 C 94.980 86.000,94.399 86.225,94.244 86.629 M302.800 86.767 C 302.800 88.952,305.326 89.832,305.830 87.823 C 306.174 86.451,305.765 86.000,304.176 86.000 C 303.086 86.000,302.800 86.160,302.800 86.767 M90.924 88.371 C 90.804 88.827,90.402 89.200,90.029 89.200 C 89.656 89.200,88.964 89.560,88.492 90.000 C 88.020 90.440,87.266 90.800,86.817 90.800 C 85.502 90.800,85.645 93.496,86.977 93.830 C 88.278 94.156,88.800 93.774,88.800 92.496 C 88.800 91.675,88.907 91.547,89.280 91.920 C 90.337 92.977,92.400 92.212,92.400 90.763 C 92.400 90.390,92.683 89.977,93.028 89.845 C 93.405 89.700,93.605 89.243,93.528 88.702 C 93.348 87.436,91.238 87.167,90.924 88.371 M306.524 88.254 C 306.386 88.614,306.484 89.199,306.742 89.554 C 307.000 89.909,307.407 90.695,307.645 91.300 C 308.115 92.494,310.051 92.878,310.668 91.900 C 310.875 91.571,311.056 91.811,311.195 92.600 C 311.550 94.604,313.754 94.361,313.924 92.300 C 314.031 91.012,313.932 90.800,313.224 90.800 C 312.771 90.800,312.040 90.440,311.600 90.000 C 311.160 89.560,310.461 89.200,310.047 89.200 C 309.630 89.200,309.200 88.843,309.084 88.400 C 308.823 87.400,306.894 87.291,306.524 88.254 M82.880 92.880 C 81.884 93.876,83.222 95.873,84.546 95.366 C 85.277 95.085,85.823 93.485,85.414 92.823 C 85.061 92.251,83.473 92.287,82.880 92.880 M314.400 93.347 C 314.400 95.174,315.864 96.079,316.993 94.950 C 318.136 93.807,317.611 92.617,315.900 92.476 C 314.535 92.363,314.400 92.441,314.400 93.347 M79.316 95.200 C 79.201 95.640,78.811 96.000,78.450 96.000 C 78.088 96.000,77.568 96.360,77.293 96.800 C 76.981 97.300,76.360 97.600,75.639 97.600 C 74.388 97.600,73.931 98.250,74.271 99.548 C 74.794 101.551,77.177 100.829,77.232 98.651 C 77.249 97.963,77.355 97.627,77.466 97.905 C 78.094 99.462,80.800 99.223,80.800 97.610 C 80.800 97.190,80.980 96.736,81.200 96.600 C 81.420 96.464,81.600 95.913,81.600 95.376 C 81.600 94.095,79.644 93.944,79.316 95.200 M318.400 95.376 C 318.400 95.913,318.580 96.464,318.800 96.600 C 319.020 96.736,319.200 97.190,319.200 97.610 C 319.200 98.988,321.130 99.613,322.171 98.571 C 322.743 98.000,322.800 98.032,322.800 98.922 C 322.800 100.963,325.344 101.360,325.837 99.396 C 326.136 98.206,325.778 97.600,324.776 97.600 C 324.349 97.600,323.640 97.240,323.200 96.800 C 322.760 96.360,322.061 96.000,321.647 96.000 C 321.230 96.000,320.800 95.643,320.684 95.200 C 320.356 93.944,318.400 94.095,318.400 95.376 M70.924 99.854 C 70.559 100.804,71.337 101.800,72.444 101.800 C 73.230 101.800,73.422 101.569,73.525 100.500 C 73.668 99.018,71.455 98.469,70.924 99.854 M326.475 100.500 C 326.616 101.965,328.150 102.375,328.920 101.154 C 329.582 100.105,328.964 99.200,327.587 99.200 C 326.432 99.200,326.358 99.286,326.475 100.500 M330.600 101.106 C 329.948 101.585,329.945 102.387,330.593 103.311 C 330.927 103.788,331.200 104.509,331.200 104.914 C 331.200 105.504,331.459 105.626,332.500 105.525 C 334.052 105.376,334.834 102.400,333.320 102.400 C 332.920 102.400,332.368 102.040,332.093 101.600 C 331.559 100.745,331.237 100.638,330.600 101.106 M67.745 101.800 C 67.618 102.130,67.163 102.400,66.733 102.400 C 66.075 102.400,65.971 102.636,66.076 103.900 C 66.250 106.007,68.556 106.424,68.994 104.427 C 69.141 103.757,69.411 103.117,69.593 103.004 C 69.776 102.891,69.831 102.439,69.716 102.000 C 69.471 101.063,68.081 100.922,67.745 101.800 M63.100 104.276 C 62.230 104.503,62.191 105.734,63.029 106.571 C 64.246 107.789,65.600 107.025,65.600 105.120 C 65.600 103.973,65.014 103.775,63.100 104.276 M334.400 105.099 C 334.400 107.355,336.642 107.963,337.366 105.904 C 337.830 104.584,337.699 104.431,335.850 104.131 C 334.453 103.904,334.400 103.939,334.400 105.099 M59.200 106.800 C 59.200 107.422,58.933 107.600,58.003 107.600 C 57.240 107.600,56.626 107.890,56.307 108.400 C 56.032 108.840,55.510 109.200,55.147 109.200 C 54.352 109.200,53.977 110.025,54.267 111.134 C 54.713 112.839,57.200 112.661,57.200 110.924 C 57.200 110.080,57.300 109.985,57.776 110.380 C 58.711 111.156,60.580 110.744,60.724 109.729 C 60.792 109.250,61.107 108.643,61.424 108.380 C 62.621 107.387,62.141 106.000,60.600 106.000 C 59.467 106.000,59.200 106.152,59.200 106.800 M338.000 106.951 C 338.000 108.295,338.921 108.977,339.974 108.414 C 341.455 107.621,341.069 106.000,339.400 106.000 C 338.193 106.000,338.000 106.131,338.000 106.951 M342.000 108.576 C 342.000 109.113,342.180 109.664,342.400 109.800 C 342.620 109.936,342.800 110.483,342.800 111.016 C 342.800 112.345,344.670 112.866,345.477 111.762 C 346.268 110.681,345.977 109.425,344.900 109.272 C 344.405 109.202,344.000 108.906,344.000 108.615 C 344.000 108.114,343.173 107.600,342.367 107.600 C 342.165 107.600,342.000 108.039,342.000 108.576 M51.000 111.200 C 50.536 111.951,51.155 113.532,52.020 113.806 C 53.134 114.160,54.066 113.290,53.920 112.034 C 53.790 110.916,51.568 110.281,51.000 111.200 M346.212 111.562 C 345.912 112.506,346.602 114.000,347.338 114.000 C 348.355 114.000,349.277 112.964,349.138 111.978 C 348.950 110.646,346.608 110.314,346.212 111.562 M130.358 137.888 C 129.486 138.089,128.570 141.133,129.196 141.749 C 129.537 142.084,129.786 142.021,130.171 141.500 C 130.455 141.115,131.073 140.800,131.544 140.800 C 132.226 140.800,132.400 140.559,132.400 139.614 C 132.400 138.368,131.516 137.621,130.358 137.888 M267.867 138.267 C 267.148 138.986,267.609 140.800,268.511 140.800 C 269.012 140.800,269.730 141.160,270.107 141.600 C 270.484 142.040,271.171 142.400,271.634 142.400 C 272.138 142.400,272.559 142.720,272.684 143.200 C 273.014 144.460,275.200 144.323,275.200 143.043 C 275.200 142.516,274.930 141.982,274.600 141.855 C 274.270 141.729,274.000 141.182,274.000 140.640 C 274.000 139.484,272.822 138.946,271.656 139.570 C 271.004 139.919,270.844 139.828,270.634 138.992 C 270.390 138.021,268.585 137.548,267.867 138.267 M124.945 142.200 C 124.567 143.185,125.110 144.000,126.145 144.000 C 127.259 144.000,127.829 142.958,127.158 142.149 C 126.552 141.419,125.233 141.449,124.945 142.200 M121.618 143.378 C 120.719 144.461,121.262 145.800,122.600 145.800 C 123.626 145.800,123.819 145.633,123.932 144.643 C 124.121 142.988,122.622 142.168,121.618 143.378 M276.418 143.378 C 275.519 144.461,276.062 145.800,277.400 145.800 C 278.426 145.800,278.619 145.633,278.732 144.643 C 278.921 142.988,277.422 142.168,276.418 143.378 M117.571 146.173 C 116.358 148.753,117.111 150.247,118.693 148.400 C 119.070 147.960,119.709 147.600,120.113 147.600 C 121.460 147.600,120.891 144.634,119.514 144.475 C 118.571 144.366,118.315 144.590,117.571 146.173 M279.467 144.667 C 278.789 145.345,279.199 147.600,280.000 147.600 C 280.440 147.600,281.160 147.960,281.600 148.400 C 282.040 148.840,282.850 149.200,283.400 149.200 C 284.133 149.200,284.400 149.413,284.400 150.000 C 284.400 150.622,284.667 150.800,285.600 150.800 C 286.850 150.800,287.432 148.838,286.375 148.185 C 286.142 148.040,285.786 147.490,285.585 146.961 C 285.185 145.909,283.713 145.647,282.880 146.480 C 282.507 146.853,282.400 146.782,282.400 146.160 C 282.400 144.769,280.389 143.745,279.467 144.667 M113.467 148.267 C 113.320 148.413,113.200 149.043,113.200 149.667 C 113.200 151.107,115.353 151.386,115.718 149.993 C 116.046 148.738,114.319 147.414,113.467 148.267 M109.885 149.848 C 109.728 150.005,109.600 150.434,109.600 150.801 C 109.600 151.326,109.235 151.462,107.900 151.435 C 106.396 151.404,106.184 151.511,106.064 152.365 C 105.989 152.896,105.681 153.576,105.381 153.876 C 104.618 154.640,105.098 155.600,106.243 155.600 C 106.933 155.600,107.200 155.377,107.200 154.800 C 107.200 154.236,107.467 154.000,108.104 154.000 C 108.601 154.000,109.232 153.640,109.507 153.200 C 109.830 152.684,110.440 152.400,111.229 152.400 C 112.366 152.400,112.442 152.310,112.325 151.100 C 112.202 149.818,110.691 149.043,109.885 149.848 M287.843 150.233 C 287.214 151.872,287.544 152.400,289.200 152.400 C 290.533 152.400,290.800 152.533,290.800 153.200 C 290.800 153.776,291.067 154.000,291.753 154.000 C 292.359 154.000,292.780 154.282,292.909 154.774 C 293.042 155.282,293.605 155.640,294.556 155.818 C 295.355 155.968,296.000 156.327,296.000 156.621 C 296.000 157.396,296.707 157.710,297.823 157.430 C 299.060 157.119,299.174 155.428,298.000 154.800 C 297.560 154.565,297.200 154.018,297.200 153.586 C 297.200 152.669,294.439 152.392,294.353 153.300 C 294.327 153.575,294.191 153.260,294.051 152.600 C 293.796 151.399,291.200 150.465,291.200 151.575 C 291.200 151.809,291.005 152.000,290.767 152.000 C 290.528 152.000,290.414 151.775,290.513 151.500 C 291.042 150.024,288.404 148.771,287.843 150.233 M101.817 154.938 C 100.645 155.795,101.155 157.400,102.600 157.400 C 103.604 157.400,103.820 157.225,103.924 156.327 C 104.081 154.967,102.869 154.169,101.817 154.938 M98.554 156.306 C 98.309 156.468,97.978 157.014,97.820 157.521 C 97.591 158.257,97.420 158.349,96.972 157.976 C 96.168 157.309,94.400 157.847,94.400 158.759 C 94.400 159.168,94.121 159.733,93.781 160.016 C 92.797 160.832,93.216 162.179,94.500 162.327 C 95.386 162.429,95.600 162.292,95.600 161.627 C 95.600 161.026,95.857 160.800,96.538 160.800 C 97.054 160.800,97.802 160.440,98.200 160.000 C 98.598 159.560,99.346 159.200,99.862 159.200 C 100.662 159.200,100.800 159.000,100.800 157.843 C 100.800 156.265,99.729 155.532,98.554 156.306 M299.900 156.432 C 298.512 157.240,298.989 159.200,300.573 159.200 C 301.595 159.200,302.011 159.405,302.200 160.000 C 302.358 160.497,302.805 160.800,303.380 160.800 C 303.970 160.800,304.383 161.091,304.516 161.600 C 304.657 162.141,305.062 162.400,305.763 162.400 C 306.954 162.400,307.135 161.476,306.187 160.224 C 305.864 159.796,305.600 159.141,305.600 158.766 C 305.600 158.146,304.849 157.600,303.996 157.600 C 303.810 157.600,303.374 157.883,303.029 158.229 C 302.457 158.800,302.400 158.784,302.400 158.057 C 302.400 156.548,301.124 155.719,299.900 156.432 M90.100 161.465 C 88.824 161.980,89.541 164.000,91.000 164.000 C 92.194 164.000,92.400 163.865,92.400 163.080 C 92.400 161.605,91.434 160.927,90.100 161.465 M308.080 161.680 C 307.007 162.753,307.501 164.000,309.000 164.000 C 310.277 164.000,310.400 163.899,310.400 162.843 C 310.400 161.354,309.072 160.688,308.080 161.680 M86.159 163.876 C 86.011 164.494,85.731 165.202,85.538 165.449 C 85.079 166.036,85.534 167.200,86.223 167.200 C 86.518 167.200,86.904 166.950,87.080 166.645 C 87.256 166.339,87.760 166.022,88.200 165.939 C 88.818 165.823,89.000 165.472,89.000 164.395 C 89.000 162.447,86.605 162.009,86.159 163.876 M311.235 163.358 C 310.444 164.311,310.853 165.779,311.954 165.935 C 312.479 166.009,313.278 166.414,313.730 166.835 C 314.181 167.256,314.856 167.600,315.229 167.600 C 315.602 167.600,316.001 167.960,316.116 168.400 C 316.255 168.934,316.662 169.200,317.336 169.200 C 318.724 169.200,319.138 167.824,318.097 166.666 C 317.669 166.190,317.208 165.485,317.072 165.100 C 316.910 164.642,316.407 164.400,315.613 164.400 C 314.744 164.400,314.385 164.599,314.347 165.100 C 314.318 165.485,314.183 165.170,314.047 164.400 C 313.770 162.829,312.167 162.235,311.235 163.358 M81.599 167.201 C 81.256 167.843,81.261 168.192,81.621 168.626 C 82.737 169.970,84.646 168.715,83.721 167.246 C 83.106 166.270,82.109 166.249,81.599 167.201 M78.285 168.248 C 77.314 169.219,78.021 170.800,79.425 170.800 C 80.792 170.800,80.846 170.747,80.725 169.500 C 80.602 168.218,79.091 167.443,78.285 168.248 M319.443 168.633 C 318.846 170.189,319.159 170.800,320.553 170.800 C 322.023 170.800,322.613 169.881,321.928 168.657 C 321.459 167.819,319.761 167.802,319.443 168.633 M75.100 169.632 C 74.715 169.856,74.400 170.303,74.400 170.625 C 74.400 170.947,74.192 171.545,73.937 171.952 C 73.682 172.360,73.587 172.988,73.724 173.347 C 74.075 174.260,75.232 174.163,75.484 173.200 C 75.619 172.682,76.030 172.400,76.647 172.400 C 77.790 172.400,77.987 170.844,76.971 169.829 C 76.243 169.100,76.049 169.080,75.100 169.632 M323.541 169.501 C 322.930 169.632,322.418 170.714,322.405 171.900 C 322.402 172.175,322.829 172.400,323.353 172.400 C 323.970 172.400,324.381 172.682,324.516 173.200 C 324.676 173.813,325.062 174.000,326.163 174.000 C 327.306 174.000,327.600 174.155,327.600 174.757 C 327.600 175.533,329.275 176.248,330.018 175.789 C 330.597 175.431,330.474 173.683,329.845 173.320 C 329.539 173.144,329.220 172.640,329.136 172.200 C 329.011 171.550,328.665 171.400,327.291 171.400 C 325.830 171.400,325.599 171.283,325.599 170.547 C 325.600 169.676,324.744 169.241,323.541 169.501 M69.885 173.448 C 69.469 173.865,69.537 175.514,69.982 175.789 C 70.937 176.379,72.445 175.517,72.322 174.451 C 72.201 173.407,70.590 172.744,69.885 173.448 M66.480 174.880 C 66.216 175.144,66.000 175.706,66.000 176.129 C 66.000 176.754,65.892 176.808,65.422 176.418 C 64.570 175.712,63.033 176.061,62.863 177.000 C 62.783 177.440,62.450 178.102,62.124 178.470 C 61.303 179.396,61.620 180.573,62.733 180.732 C 63.397 180.826,63.720 180.628,63.876 180.032 C 63.997 179.568,64.420 179.200,64.833 179.200 C 65.239 179.200,65.758 178.851,65.986 178.425 C 66.237 177.958,66.917 177.601,67.701 177.525 C 68.707 177.428,69.030 177.192,69.131 176.478 C 69.370 174.789,67.624 173.736,66.480 174.880 M331.139 175.374 C 330.457 176.871,330.964 177.673,332.497 177.526 C 333.507 177.428,333.829 177.192,333.931 176.478 C 334.211 174.499,331.946 173.603,331.139 175.374 M334.384 177.042 C 333.865 178.407,334.143 179.200,335.141 179.200 C 335.580 179.200,335.999 179.555,336.124 180.032 C 336.280 180.628,336.603 180.826,337.267 180.732 C 338.380 180.573,338.697 179.396,337.876 178.470 C 337.550 178.102,337.217 177.440,337.138 177.000 C 336.895 175.658,334.898 175.689,334.384 177.042 M266.156 178.171 C 265.562 179.717,266.153 180.599,267.800 180.626 C 268.950 180.644,269.434 180.836,269.525 181.307 C 269.693 182.177,271.090 182.589,271.819 181.984 C 272.736 181.223,272.577 179.200,271.600 179.200 C 271.160 179.200,270.440 178.840,270.000 178.400 C 269.050 177.450,266.491 177.297,266.156 178.171 M58.243 180.233 C 57.639 181.806,57.956 182.400,59.400 182.400 C 60.594 182.400,60.800 182.265,60.800 181.480 C 60.800 179.817,58.780 178.832,58.243 180.233 M339.695 180.065 C 338.599 181.161,339.092 182.400,340.625 182.400 C 341.992 182.400,342.046 182.347,341.925 181.100 C 341.789 179.684,340.619 179.141,339.695 180.065 M273.067 181.067 C 272.138 181.995,273.461 184.066,274.765 183.725 C 276.504 183.270,276.229 180.800,274.440 180.800 C 273.831 180.800,273.213 180.920,273.067 181.067 M54.667 181.467 C 54.520 181.613,54.400 182.066,54.400 182.472 C 54.400 182.878,54.180 183.564,53.910 183.995 C 53.099 185.295,54.222 186.087,55.193 184.900 C 55.597 184.405,56.304 184.000,56.764 184.000 C 57.619 184.000,57.856 183.133,57.357 181.833 C 57.116 181.204,55.191 180.942,54.667 181.467 M342.827 181.950 C 342.059 183.384,342.300 184.000,343.629 184.000 C 344.854 184.000,346.000 184.759,346.000 185.571 C 346.000 185.807,346.360 186.000,346.800 186.000 C 347.240 186.000,347.600 186.258,347.600 186.573 C 347.600 187.283,348.928 187.740,350.000 187.400 C 351.073 187.060,351.098 185.203,350.034 184.925 C 349.613 184.815,349.159 184.291,349.026 183.762 C 348.725 182.563,346.549 182.368,346.093 183.500 C 345.883 184.022,345.759 183.844,345.606 182.800 C 345.355 181.097,343.575 180.552,342.827 181.950 M276.400 183.351 C 276.400 183.874,276.652 184.511,276.961 184.767 C 277.269 185.023,277.633 185.675,277.768 186.216 C 278.081 187.461,280.762 187.707,280.853 186.500 C 280.882 186.115,281.017 186.430,281.153 187.200 C 281.537 189.376,284.000 189.571,284.000 187.425 C 284.000 186.111,283.907 186.000,282.809 186.000 C 281.980 186.000,281.419 185.696,280.963 185.000 C 280.603 184.450,280.149 184.000,279.954 184.000 C 279.759 184.000,279.240 183.640,278.800 183.200 C 277.665 182.065,276.400 182.144,276.400 183.351 M49.200 185.973 C 49.200 187.262,50.187 187.849,51.600 187.400 C 53.280 186.867,52.262 184.800,50.320 184.800 C 49.348 184.800,49.200 184.955,49.200 185.973 M284.557 188.169 C 284.437 188.482,284.544 189.122,284.796 189.593 C 285.624 191.139,288.107 189.899,287.476 188.254 C 287.161 187.432,284.865 187.365,284.557 188.169 M288.544 189.801 C 288.057 191.070,289.923 194.063,291.114 193.925 C 292.485 193.767,293.061 190.800,291.720 190.800 C 291.320 190.800,290.768 190.440,290.493 190.000 C 289.903 189.056,288.871 188.950,288.544 189.801 M292.800 193.520 C 292.800 195.522,294.745 196.398,295.608 194.785 C 296.344 193.409,295.737 192.400,294.173 192.400 C 292.936 192.400,292.800 192.511,292.800 193.520 M296.400 195.320 C 296.400 195.826,296.601 196.441,296.846 196.686 C 297.092 196.932,297.501 197.553,297.755 198.066 C 298.663 199.897,300.800 199.588,300.800 197.625 C 300.800 196.267,300.669 196.000,300.000 196.000 C 299.467 196.000,299.200 195.733,299.200 195.200 C 299.200 194.552,298.933 194.400,297.800 194.400 C 296.606 194.400,296.400 194.535,296.400 195.320 M267.867 243.067 C 267.317 243.616,267.604 245.627,268.269 245.882 C 268.638 246.023,269.264 246.464,269.660 246.860 C 270.395 247.595,271.600 247.477,271.600 246.671 C 271.600 244.167,269.141 241.793,267.867 243.067 M272.783 247.231 C 272.100 248.507,272.595 249.200,274.187 249.200 C 275.395 249.200,275.600 249.066,275.600 248.280 C 275.600 246.443,273.603 245.700,272.783 247.231 M276.267 248.267 C 275.608 248.926,276.002 250.800,276.800 250.800 C 277.240 250.800,277.960 251.160,278.400 251.600 C 278.840 252.040,279.539 252.400,279.953 252.400 C 280.370 252.400,280.800 252.757,280.916 253.200 C 281.058 253.744,281.462 254.000,282.175 254.000 C 283.472 254.000,283.916 253.012,283.049 252.054 C 282.692 251.659,282.400 251.058,282.400 250.717 C 282.400 249.709,281.418 249.176,280.057 249.449 C 278.963 249.667,278.800 249.590,278.800 248.850 C 278.800 248.006,276.953 247.580,276.267 248.267 M284.629 253.429 C 283.862 254.196,283.850 254.442,284.538 255.383 C 285.309 256.437,287.200 255.933,287.200 254.672 C 287.200 252.960,285.783 252.274,284.629 253.429 M287.885 254.648 C 287.080 255.453,287.600 257.600,288.600 257.600 C 289.208 257.600,289.600 257.828,289.600 258.182 C 289.600 258.529,290.159 258.869,290.986 259.024 C 291.864 259.188,292.464 259.571,292.621 260.065 C 292.990 261.228,294.955 260.917,295.132 259.668 C 295.205 259.155,294.995 258.525,294.666 258.268 C 294.337 258.010,294.001 257.440,293.920 257.000 C 293.804 256.368,293.475 256.208,292.355 256.240 C 291.277 256.270,290.849 256.078,290.569 255.440 C 290.204 254.609,288.443 254.090,287.885 254.648 M296.285 259.848 C 295.314 260.819,296.021 262.400,297.425 262.400 C 298.792 262.400,298.846 262.347,298.725 261.100 C 298.602 259.818,297.091 259.043,296.285 259.848 M132.400 330.800 C 132.400 332.219,132.508 332.400,133.353 332.400 C 133.970 332.400,134.381 332.682,134.516 333.200 C 134.833 334.414,136.400 334.267,136.400 333.024 C 136.400 332.487,136.220 331.936,136.000 331.800 C 135.780 331.664,135.600 331.134,135.600 330.623 C 135.600 329.997,135.306 329.615,134.700 329.452 C 132.717 328.921,132.400 329.106,132.400 330.800 M265.100 329.624 C 264.715 329.853,264.400 330.307,264.400 330.634 C 264.400 330.961,264.114 331.664,263.766 332.196 C 263.417 332.729,263.247 333.353,263.389 333.582 C 263.838 334.309,265.262 334.049,265.484 333.200 C 265.621 332.675,266.030 332.400,266.671 332.400 C 267.556 332.400,267.637 332.258,267.524 330.900 C 267.390 329.280,266.483 328.802,265.100 329.624 M138.095 333.665 C 137.260 334.500,137.524 335.494,138.658 335.779 C 139.941 336.101,140.513 335.612,140.334 334.346 C 140.182 333.276,138.881 332.879,138.095 333.665 M259.885 333.448 C 259.450 333.883,259.546 335.519,260.023 335.814 C 261.023 336.432,262.454 335.607,262.325 334.486 C 262.201 333.408,260.604 332.729,259.885 333.448 M141.139 335.374 C 140.457 336.871,140.964 337.673,142.497 337.526 C 143.507 337.428,143.829 337.192,143.931 336.478 C 144.211 334.499,141.946 333.603,141.139 335.374 M256.480 334.880 C 256.216 335.144,256.000 335.706,256.000 336.129 C 256.000 336.754,255.892 336.808,255.422 336.418 C 254.463 335.623,253.019 336.064,252.864 337.200 C 252.788 337.750,252.469 338.489,252.154 338.842 C 251.839 339.195,251.694 339.780,251.833 340.142 C 252.190 341.071,253.630 340.971,253.884 340.000 C 253.999 339.560,254.426 339.200,254.833 339.200 C 255.239 339.200,255.758 338.851,255.986 338.425 C 256.237 337.958,256.917 337.601,257.701 337.525 C 258.707 337.428,259.030 337.192,259.131 336.478 C 259.370 334.789,257.624 333.736,256.480 334.880 M144.374 337.069 C 143.884 338.356,144.142 339.200,145.023 339.200 C 145.380 339.200,146.015 339.605,146.436 340.100 C 147.564 341.429,148.633 340.139,147.785 338.471 C 147.486 337.882,147.147 337.085,147.033 336.700 C 146.690 335.545,144.856 335.799,144.374 337.069 M149.900 340.032 C 148.544 340.822,149.010 342.400,150.600 342.400 C 151.794 342.400,152.000 342.265,152.000 341.480 C 152.000 339.935,151.115 339.325,149.900 340.032 M248.480 340.080 C 247.407 341.153,247.901 342.400,249.400 342.400 C 250.594 342.400,250.800 342.265,250.800 341.480 C 250.800 340.502,250.128 339.600,249.400 339.600 C 249.158 339.600,248.744 339.816,248.480 340.080 M152.827 341.950 C 151.994 343.506,152.283 344.000,154.025 344.000 C 155.618 344.000,155.648 343.974,155.525 342.700 C 155.370 341.091,153.556 340.587,152.827 341.950 M244.667 341.467 C 244.520 341.613,244.379 342.288,244.354 342.967 C 244.328 343.645,244.225 343.885,244.124 343.500 C 244.004 343.041,243.551 342.800,242.806 342.800 C 241.612 342.800,239.614 345.851,240.193 346.789 C 240.578 347.411,241.994 347.281,242.255 346.600 C 242.382 346.270,242.826 346.000,243.243 346.000 C 243.659 346.000,244.000 345.807,244.000 345.571 C 244.000 344.759,245.146 344.000,246.371 344.000 C 247.387 344.000,247.600 343.840,247.600 343.080 C 247.600 341.582,245.633 340.500,244.667 341.467 M156.267 343.067 C 155.648 343.685,156.007 345.677,156.772 345.877 C 157.197 345.988,157.641 346.331,157.760 346.639 C 157.999 347.264,159.427 347.403,159.778 346.836 C 160.691 345.358,157.452 341.881,156.267 343.067 M161.232 346.961 C 160.383 347.984,160.868 349.000,162.205 349.000 C 163.266 349.000,163.400 348.865,163.400 347.800 C 163.400 346.426,162.095 345.921,161.232 346.961 M236.684 346.650 C 236.528 346.806,236.400 347.443,236.400 348.067 C 236.400 349.397,238.598 349.791,239.076 348.546 C 239.556 347.296,237.593 345.741,236.684 346.650 M233.457 348.072 C 233.081 348.283,232.780 348.987,232.754 349.720 C 232.728 350.424,232.627 350.693,232.528 350.319 C 232.111 348.736,229.745 349.051,229.341 350.744 C 229.203 351.325,228.914 352.023,228.700 352.295 C 228.124 353.027,228.651 354.000,229.625 354.000 C 230.138 354.000,230.558 353.683,230.684 353.200 C 230.799 352.760,231.189 352.400,231.550 352.400 C 231.912 352.400,232.432 352.040,232.707 351.600 C 233.022 351.095,233.640 350.800,234.380 350.800 C 235.757 350.800,236.164 350.307,235.842 349.025 C 235.579 347.976,234.441 347.522,233.457 348.072 M164.428 348.747 C 163.753 350.009,164.308 350.800,165.868 350.800 C 167.187 350.800,167.245 350.740,167.125 349.500 C 166.970 347.893,165.157 347.386,164.428 348.747 M168.300 349.632 C 167.337 350.193,167.340 352.400,168.304 352.400 C 168.691 352.400,169.232 352.760,169.507 353.200 C 169.782 353.640,170.281 354.000,170.616 354.000 C 171.412 354.000,171.833 352.873,171.253 352.293 C 171.004 352.044,170.800 351.432,170.800 350.934 C 170.800 349.625,169.487 348.941,168.300 349.632 M225.046 353.411 C 223.670 354.787,224.862 356.465,226.640 355.654 C 227.827 355.114,227.788 354.153,226.546 353.330 C 225.801 352.835,225.611 352.846,225.046 353.411 M172.895 353.665 C 172.104 354.456,172.317 355.188,173.465 355.625 C 174.745 356.111,175.321 355.670,175.134 354.346 C 174.982 353.276,173.681 352.879,172.895 353.665 M176.500 354.658 C 175.185 355.208,175.936 357.600,177.424 357.600 C 178.825 357.600,178.846 357.576,178.724 356.100 C 178.599 354.594,177.836 354.099,176.500 354.658 M221.485 354.648 C 221.328 354.805,221.189 355.578,221.175 356.367 C 221.152 357.657,221.112 357.707,220.778 356.873 C 220.351 355.810,218.496 355.761,217.987 356.800 C 216.921 358.976,216.721 359.616,216.934 360.173 C 217.269 361.046,218.296 360.956,218.893 360.000 C 219.168 359.560,219.666 359.200,220.000 359.200 C 220.334 359.200,220.832 358.840,221.107 358.400 C 221.429 357.884,222.040 357.600,222.828 357.600 C 223.994 357.600,224.043 357.533,223.924 356.100 C 223.802 354.625,222.364 353.769,221.485 354.648 M179.680 356.480 C 178.906 357.254,179.071 359.200,179.911 359.200 C 180.302 359.200,180.941 359.572,181.330 360.027 C 181.720 360.482,182.255 360.783,182.519 360.696 C 183.127 360.495,183.403 358.800,182.828 358.800 C 182.593 358.800,182.400 358.386,182.400 357.880 C 182.400 356.809,181.712 356.000,180.800 356.000 C 180.448 356.000,179.944 356.216,179.680 356.480 M184.880 360.080 C 183.906 361.054,184.296 362.400,185.553 362.400 C 186.912 362.400,187.476 361.133,186.536 360.193 C 185.817 359.475,185.507 359.453,184.880 360.080 M213.272 360.257 C 212.642 361.383,213.179 362.400,214.404 362.400 C 215.324 362.400,216.000 361.806,216.000 360.996 C 216.000 359.892,213.808 359.299,213.272 360.257 M187.867 361.467 C 187.720 361.613,187.600 362.243,187.600 362.867 C 187.600 364.146,190.185 364.625,190.643 363.431 C 191.177 362.041,188.902 360.431,187.867 361.467 M209.597 362.207 C 209.061 363.617,209.371 364.000,211.049 364.000 C 212.389 364.000,212.445 363.943,212.325 362.700 C 212.153 360.908,210.224 360.560,209.597 362.207 " stroke="none" fill="#2064c4" fill-rule="evenodd"></path></g></svg>