<svg id="svg" version="1.1" xmlns="http://www.w3.org/2000/svg" xmlns:xlink="http://www.w3.org/1999/xlink" width="400" height="400" viewBox="0, 0, 400,400"><g id="svgg"><path id="path0" d="M186.267 5.067 C 186.120 5.213,186.000 5.743,186.000 6.243 C 186.000 6.743,185.820 7.264,185.600 7.400 C 185.380 7.536,185.200 8.180,185.200 8.832 C 185.200 9.691,184.939 10.136,184.251 10.450 C 183.141 10.956,181.600 10.337,181.600 9.386 C 181.600 9.064,181.445 8.800,181.255 8.800 C 181.066 8.800,180.993 9.230,181.094 9.755 C 181.519 11.983,179.042 13.417,177.907 11.600 C 177.327 10.671,176.314 10.510,176.656 11.401 C 177.400 13.340,175.277 14.939,174.000 13.400 C 173.726 13.070,173.052 12.800,172.502 12.800 C 171.717 12.800,171.597 12.914,171.942 13.331 C 172.263 13.717,172.261 14.233,171.936 15.231 C 170.935 18.298,170.861 18.400,169.631 18.400 C 168.856 18.400,168.226 18.088,167.811 17.500 C 167.179 16.602,167.177 16.603,167.271 17.860 C 167.440 20.148,165.889 21.089,164.400 19.600 C 163.232 18.432,162.505 18.570,162.703 19.923 C 162.953 21.627,161.985 22.218,160.656 21.173 C 158.909 19.798,158.256 20.252,157.793 23.164 C 157.326 26.103,156.646 26.823,155.031 26.087 C 154.464 25.829,154.000 25.343,154.000 25.009 C 154.000 24.674,153.825 24.400,153.610 24.400 C 153.390 24.400,153.325 24.923,153.460 25.599 C 153.893 27.765,152.047 28.798,150.600 27.200 C 150.202 26.760,149.409 26.403,148.838 26.406 C 148.063 26.411,147.945 26.504,148.372 26.774 C 149.145 27.263,149.273 28.451,148.632 29.193 C 148.343 29.527,147.993 30.283,147.853 30.873 C 147.471 32.482,144.400 32.947,144.400 31.397 C 144.400 31.094,144.253 30.756,144.072 30.645 C 143.892 30.533,143.823 30.974,143.918 31.625 C 144.233 33.768,141.050 35.241,140.516 33.200 C 140.158 31.833,139.400 32.308,139.400 33.900 C 139.400 35.586,137.846 36.260,136.817 35.020 C 135.978 34.009,134.257 34.185,134.814 35.226 C 135.142 35.839,135.132 36.199,134.777 36.628 C 134.513 36.945,134.180 37.789,134.035 38.502 C 133.689 40.208,131.656 40.586,130.638 39.133 C 130.004 38.228,130.000 38.232,130.000 39.697 C 130.000 41.927,127.231 42.787,126.586 40.757 C 126.198 39.534,125.800 39.886,125.800 41.451 C 125.800 43.525,124.817 44.058,123.198 42.862 C 121.297 41.456,120.746 41.810,120.540 44.568 C 120.443 45.870,120.271 47.085,120.158 47.268 C 119.764 47.905,117.256 47.628,116.832 46.900 C 116.608 46.515,116.404 46.380,116.379 46.600 C 116.354 46.820,116.287 47.422,116.231 47.937 C 116.044 49.640,114.484 50.084,113.200 48.800 C 112.760 48.360,111.995 48.013,111.500 48.028 C 110.851 48.048,110.767 48.132,111.200 48.328 C 112.036 48.707,112.169 49.950,111.458 50.739 C 111.130 51.103,110.739 51.895,110.588 52.500 C 110.290 53.694,107.245 54.228,107.164 53.100 C 107.144 52.825,106.962 53.174,106.759 53.875 C 106.240 55.667,103.200 56.264,103.200 54.573 C 103.200 53.300,102.440 54.105,102.324 55.500 C 102.183 57.203,100.660 57.803,99.479 56.622 C 98.532 55.675,97.053 55.775,97.658 56.744 C 98.027 57.335,97.987 57.684,97.462 58.434 C 97.098 58.953,96.800 59.769,96.800 60.246 C 96.800 61.767,94.414 62.126,93.450 60.750 C 92.874 59.927,92.850 59.948,92.727 61.406 C 92.552 63.483,91.191 64.028,89.759 62.596 C 89.212 62.048,88.367 61.618,87.882 61.640 C 87.050 61.677,87.045 61.694,87.800 61.940 C 88.890 62.294,89.002 63.693,88.013 64.589 C 87.566 64.993,87.200 65.620,87.200 65.982 C 87.200 67.561,84.432 68.273,83.632 66.900 C 83.276 66.289,83.222 66.327,83.206 67.200 C 83.166 69.406,79.600 70.408,79.600 68.213 C 79.600 67.876,79.285 67.614,78.900 67.632 C 78.482 67.650,78.401 67.744,78.700 67.865 C 79.337 68.122,79.351 70.089,78.720 70.720 C 77.979 71.461,76.462 71.288,75.907 70.400 C 75.605 69.916,75.011 69.618,74.404 69.646 C 73.726 69.678,73.627 69.752,74.100 69.876 C 74.965 70.102,75.029 71.712,74.200 72.400 C 73.870 72.674,73.600 73.200,73.600 73.569 C 73.600 73.938,73.384 74.456,73.120 74.720 C 72.541 75.299,70.000 75.364,70.000 74.800 C 70.000 74.580,69.801 74.400,69.557 74.400 C 69.314 74.400,69.200 74.625,69.305 74.900 C 69.639 75.778,68.860 77.200,68.046 77.200 C 66.841 77.200,66.000 76.771,66.000 76.157 C 66.000 75.851,65.820 75.600,65.600 75.600 C 65.380 75.600,65.200 76.112,65.200 76.738 C 65.200 78.247,64.094 79.223,62.900 78.769 C 62.405 78.580,62.000 78.240,62.000 78.013 C 62.000 77.786,61.665 77.600,61.255 77.600 C 60.700 77.600,60.554 77.829,60.679 78.500 C 61.201 81.284,57.650 84.349,56.239 82.334 L 55.600 81.422 55.600 82.682 C 55.600 84.989,53.867 85.882,52.416 84.325 L 51.600 83.449 51.600 84.351 C 51.600 86.664,49.908 87.526,48.446 85.957 C 47.571 85.018,46.800 85.238,46.800 86.429 C 46.800 86.859,46.631 87.523,46.424 87.905 C 46.217 88.287,45.947 89.083,45.823 89.673 C 45.458 91.417,42.400 91.518,42.400 89.786 C 42.400 89.464,42.217 89.200,41.992 89.200 C 41.762 89.200,41.690 89.618,41.826 90.163 C 42.375 92.347,39.852 93.833,38.707 92.000 C 37.971 90.821,37.311 91.013,37.507 92.349 C 37.623 93.137,37.426 93.734,36.881 94.249 C 36.444 94.662,36.018 95.360,35.934 95.800 C 35.811 96.450,35.465 96.600,34.095 96.600 C 32.613 96.600,32.361 96.734,32.024 97.700 C 31.526 99.133,29.610 99.247,28.670 97.900 C 28.049 97.010,28.042 97.016,28.021 98.451 C 27.994 100.319,27.145 101.086,25.788 100.467 C 25.245 100.220,24.800 99.833,24.800 99.609 C 24.800 99.384,24.239 99.200,23.553 99.200 C 22.456 99.200,22.336 99.308,22.548 100.100 C 22.681 100.595,22.792 119.675,22.795 142.500 L 22.800 184.000 23.700 184.002 C 24.195 184.004,25.116 184.274,25.746 184.602 C 27.586 185.562,28.290 185.395,28.092 184.047 C 27.999 183.413,28.120 182.773,28.362 182.624 C 28.603 182.475,28.800 181.949,28.800 181.456 C 28.800 179.560,30.611 179.002,31.984 180.475 L 32.800 181.351 32.800 180.155 C 32.800 178.068,35.089 177.098,36.000 178.800 C 36.617 179.954,37.200 179.783,37.200 178.449 C 37.200 177.816,37.448 177.092,37.752 176.840 C 38.055 176.588,38.406 175.869,38.532 175.242 C 38.908 173.359,41.767 173.117,42.123 174.938 C 42.225 175.460,42.313 175.240,42.346 174.380 C 42.434 172.079,45.355 170.775,45.884 172.800 C 46.242 174.167,47.000 173.692,47.000 172.100 C 47.000 170.414,48.554 169.740,49.583 170.980 C 50.394 171.957,51.716 171.794,51.387 170.758 C 51.235 170.279,51.384 169.374,51.734 168.658 C 52.072 167.966,52.445 167.085,52.562 166.700 C 52.881 165.652,54.951 165.782,55.730 166.900 C 56.350 167.789,56.358 167.781,56.379 166.314 C 56.393 165.296,56.632 164.704,57.135 164.435 C 58.066 163.937,59.600 164.318,59.600 165.047 C 59.600 165.351,59.839 165.600,60.131 165.600 C 60.485 165.600,60.607 165.226,60.497 164.477 C 60.243 162.748,61.333 162.032,62.874 162.917 C 64.624 163.921,65.531 163.820,65.307 162.647 C 65.207 162.123,65.322 161.572,65.562 161.423 C 65.803 161.275,66.000 160.618,66.000 159.964 C 66.000 158.077,69.031 157.468,69.500 159.261 C 69.606 159.667,69.987 159.986,70.347 159.968 C 70.761 159.948,70.817 159.863,70.500 159.735 C 69.893 159.490,69.850 158.227,70.414 157.174 C 70.949 156.174,72.186 156.186,73.200 157.200 C 74.329 158.329,74.690 158.197,74.476 156.735 C 74.354 155.907,74.494 155.319,74.879 155.035 C 75.203 154.796,75.591 154.105,75.741 153.500 C 76.039 152.304,79.141 151.773,79.247 152.900 C 79.273 153.175,79.408 152.879,79.547 152.243 C 79.958 150.361,83.200 149.620,83.200 151.408 C 83.200 151.733,83.380 152.000,83.600 152.000 C 83.820 152.000,84.000 151.376,84.000 150.614 C 84.000 149.701,84.239 149.103,84.700 148.861 C 85.488 148.448,87.200 148.946,87.200 149.587 C 87.200 149.814,87.543 150.000,87.963 150.000 C 88.534 150.000,88.671 149.795,88.511 149.180 C 88.393 148.728,88.578 147.783,88.923 147.080 C 89.267 146.376,89.645 145.485,89.762 145.100 C 90.034 144.205,92.102 144.159,92.971 145.029 C 93.543 145.600,93.600 145.547,93.600 144.443 C 93.600 142.637,94.924 142.046,96.448 143.172 L 97.600 144.024 97.600 142.892 C 97.600 140.988,99.304 140.080,100.400 141.400 C 100.674 141.730,101.371 141.986,101.949 141.968 C 102.527 141.951,102.775 141.846,102.500 141.735 C 101.813 141.458,101.871 140.205,102.600 139.600 C 102.930 139.326,103.200 138.680,103.200 138.165 C 103.200 136.932,104.425 136.277,105.774 136.790 C 106.338 137.005,106.800 137.455,106.800 137.790 C 106.800 138.126,106.949 138.400,107.131 138.400 C 107.313 138.400,107.382 137.858,107.285 137.196 C 106.965 135.020,109.380 133.818,110.493 135.600 C 111.222 136.767,111.889 136.589,111.697 135.277 C 111.499 133.928,112.406 133.021,113.581 133.394 C 114.031 133.537,114.400 133.822,114.400 134.027 C 114.400 134.232,114.962 134.400,115.649 134.400 C 116.581 134.400,116.803 134.273,116.524 133.900 C 116.129 133.370,116.124 132.972,116.503 132.000 C 116.631 131.670,116.901 130.860,117.102 130.200 C 117.414 129.172,117.663 129.000,118.833 129.000 L 120.200 129.000 120.401 242.200 C 120.512 304.460,120.647 355.085,120.701 354.700 C 120.957 352.892,124.400 354.315,124.400 356.229 C 124.400 356.763,124.604 357.200,124.852 357.200 C 125.146 357.200,125.225 357.691,125.077 358.600 C 124.807 360.267,125.841 360.559,127.200 359.200 C 128.511 357.889,129.733 358.451,129.733 360.365 C 129.733 361.832,129.723 361.829,131.168 360.760 C 132.776 359.572,134.000 360.239,134.000 362.303 C 134.000 363.752,134.011 363.762,134.623 362.889 C 135.697 361.356,138.000 361.942,138.000 363.749 C 138.000 364.182,138.307 364.876,138.682 365.291 C 139.241 365.909,139.277 366.185,138.879 366.822 C 138.262 367.811,139.994 367.971,140.800 367.000 C 141.929 365.640,143.851 366.776,143.503 368.598 C 143.267 369.827,143.836 369.891,144.768 368.740 C 145.996 367.224,147.600 367.992,147.600 370.097 C 147.600 371.732,147.617 371.754,148.223 370.889 C 149.156 369.556,151.087 369.674,151.658 371.100 C 151.901 371.705,152.294 372.616,152.531 373.125 C 152.848 373.805,152.833 374.255,152.477 374.825 C 151.800 375.909,153.294 375.898,154.680 374.809 C 156.144 373.657,157.339 374.355,157.120 376.235 C 156.946 377.729,157.753 378.187,158.116 376.800 C 158.679 374.648,161.919 376.418,161.494 378.645 C 161.393 379.170,161.466 379.600,161.655 379.600 C 161.845 379.600,162.000 379.260,162.000 378.843 C 162.000 377.910,163.689 377.406,164.808 378.004 C 165.318 378.277,165.600 378.842,165.600 379.590 C 165.600 380.230,165.797 380.875,166.038 381.023 C 166.278 381.172,166.393 381.723,166.293 382.247 C 166.077 383.375,167.268 383.589,168.257 382.600 C 169.503 381.354,171.392 382.494,170.957 384.229 C 170.696 385.270,171.334 385.575,171.880 384.670 C 172.944 382.906,175.187 383.740,175.227 385.914 C 175.252 387.275,175.291 387.325,175.688 386.500 C 176.172 385.497,178.719 385.185,178.953 386.100 C 179.023 386.375,179.361 387.435,179.705 388.456 C 180.162 389.816,180.210 390.430,179.884 390.756 C 179.559 391.081,179.715 391.200,180.471 391.200 C 181.038 391.200,181.726 390.930,182.000 390.600 C 183.129 389.240,185.051 390.376,184.703 392.198 C 184.471 393.409,185.004 393.514,185.613 392.377 C 186.498 390.723,188.576 391.473,188.723 393.500 C 188.838 395.087,188.924 395.200,190.023 395.200 L 191.200 395.200 191.199 200.700 L 191.197 6.200 189.559 6.179 C 188.449 6.165,187.798 5.939,187.540 5.479 C 187.140 4.763,186.710 4.624,186.267 5.067 M212.295 5.597 C 211.529 6.492,209.385 6.693,209.065 5.900 C 208.954 5.625,208.849 93.105,208.832 200.300 L 208.800 395.200 209.977 395.200 C 211.076 395.200,211.162 395.087,211.277 393.500 C 211.430 391.381,213.190 390.810,214.464 392.466 L 215.182 393.400 215.191 392.129 C 215.206 390.008,217.591 388.869,218.277 390.656 C 218.392 390.955,218.952 391.200,219.523 391.200 C 220.330 391.200,220.453 391.093,220.080 390.720 C 219.414 390.054,219.479 388.932,220.200 388.655 C 220.530 388.529,220.800 388.074,220.800 387.645 C 220.800 385.454,223.607 384.558,224.388 386.500 C 224.701 387.280,224.753 387.198,224.775 385.891 C 224.795 384.705,225.003 384.290,225.749 383.950 C 226.750 383.494,228.400 384.032,228.400 384.814 C 228.400 385.026,228.570 385.200,228.777 385.200 C 228.984 385.200,229.080 384.817,228.990 384.349 C 228.611 382.382,230.225 381.378,231.824 382.587 C 233.040 383.507,234.132 383.401,233.521 382.422 C 233.123 381.785,233.159 381.509,233.718 380.891 C 234.093 380.476,234.400 379.849,234.400 379.497 C 234.400 377.943,236.643 377.030,237.684 378.160 C 238.118 378.630,238.269 378.518,238.633 377.460 C 239.184 375.857,241.509 375.364,241.877 376.772 C 242.238 378.155,243.057 377.753,242.885 376.278 C 242.681 374.530,243.600 373.690,245.012 374.333 C 245.555 374.580,246.000 374.967,246.000 375.191 C 246.000 375.416,246.452 375.600,247.003 375.600 C 247.894 375.600,247.953 375.513,247.525 374.829 C 247.138 374.208,247.171 373.796,247.696 372.729 C 248.055 371.998,248.445 371.085,248.562 370.700 C 248.856 369.735,251.406 369.735,251.968 370.700 C 252.299 371.269,252.378 371.127,252.388 369.943 C 252.405 367.847,254.533 367.183,255.730 368.900 L 256.358 369.800 256.379 368.733 C 256.422 366.556,258.670 365.242,259.345 367.000 C 259.742 368.034,261.118 367.750,260.912 366.676 C 260.809 366.137,260.999 365.533,261.368 365.227 C 261.716 364.938,262.000 364.310,262.000 363.831 C 262.000 361.920,264.892 361.169,265.588 362.900 C 265.901 363.680,265.953 363.598,265.975 362.291 C 265.995 361.105,266.203 360.690,266.949 360.350 C 267.964 359.888,269.600 360.436,269.600 361.238 C 269.600 361.463,269.772 361.541,269.983 361.411 C 270.193 361.281,270.269 360.924,270.152 360.618 C 269.505 358.933,271.715 357.772,273.042 359.100 C 273.427 359.485,274.162 359.834,274.676 359.876 C 275.484 359.943,275.533 359.876,275.041 359.383 C 274.458 358.801,274.609 357.200,275.247 357.200 C 275.441 357.200,275.600 356.763,275.600 356.229 C 275.600 354.778,276.690 353.900,278.263 354.083 L 279.597 354.239 279.698 303.420 L 279.800 252.600 281.305 252.476 C 282.699 252.360,282.828 252.441,283.053 253.567 C 283.187 254.235,283.545 254.988,283.848 255.240 C 284.537 255.811,284.571 257.464,283.900 257.735 C 283.625 257.846,283.895 257.951,284.500 257.968 C 285.105 257.986,285.600 257.816,285.600 257.591 C 285.600 257.367,286.045 256.980,286.588 256.733 C 288.000 256.090,288.919 256.930,288.715 258.678 C 288.544 260.140,288.998 260.468,289.407 259.178 C 289.790 257.973,292.544 258.209,292.723 259.463 C 292.830 260.216,293.082 260.318,294.711 260.263 C 296.399 260.206,296.595 260.295,296.788 261.200 C 296.904 261.750,297.335 262.694,297.744 263.297 C 298.153 263.900,298.384 264.665,298.257 264.997 C 297.947 265.803,298.789 265.769,299.387 264.950 C 300.532 263.384,302.552 264.200,302.477 266.198 C 302.420 267.710,302.974 268.107,303.316 266.800 C 303.782 265.018,306.771 266.021,306.832 267.980 C 306.849 268.541,306.954 268.775,307.065 268.500 C 307.500 267.421,310.359 267.898,310.659 269.100 C 310.809 269.705,311.160 270.380,311.437 270.600 C 312.059 271.093,312.288 272.428,311.866 273.100 C 311.675 273.406,311.758 273.600,312.080 273.600 C 312.370 273.600,312.832 273.240,313.107 272.800 C 314.226 271.008,316.634 272.222,316.312 274.417 C 316.142 275.576,316.198 275.634,317.366 275.520 L 318.600 275.400 318.702 238.100 L 318.804 200.800 317.010 200.800 C 315.403 200.800,315.187 200.689,314.950 199.742 C 314.804 199.160,314.350 198.350,313.942 197.942 C 313.092 197.092,312.962 195.763,313.700 195.465 C 314.100 195.304,314.100 195.257,313.700 195.232 C 313.425 195.214,312.840 195.560,312.400 196.000 C 310.829 197.571,309.217 196.781,309.175 194.420 C 309.152 193.141,309.113 193.092,308.779 193.924 C 308.135 195.530,305.442 195.032,305.273 193.277 C 305.203 192.549,304.888 191.855,304.573 191.734 C 303.876 191.467,303.824 190.336,304.480 189.680 C 304.853 189.307,304.720 189.200,303.880 189.200 C 303.286 189.200,302.800 189.386,302.800 189.613 C 302.800 190.273,301.083 190.749,300.260 190.317 C 299.704 190.025,299.560 189.592,299.680 188.565 C 299.859 187.032,299.451 186.784,298.787 188.023 C 298.034 189.432,295.934 188.942,295.500 187.255 C 295.193 186.061,295.098 185.986,294.657 186.589 C 293.806 187.753,291.909 187.245,291.525 185.750 C 291.348 185.063,290.932 184.276,290.602 184.001 C 289.791 183.329,289.841 182.132,290.700 181.632 C 291.310 181.277,291.271 181.223,290.396 181.212 C 289.816 181.205,289.182 181.537,288.893 182.000 C 287.816 183.724,285.201 182.369,285.727 180.359 C 285.986 179.365,285.525 179.388,284.893 180.400 C 283.815 182.126,281.670 181.051,281.554 178.726 C 281.520 178.049,281.458 177.988,281.324 178.500 C 281.012 179.694,278.083 179.470,277.772 178.229 C 277.423 176.842,277.922 175.600,278.827 175.600 C 279.582 175.600,279.600 175.064,279.600 152.443 C 279.600 131.695,279.666 129.260,280.233 129.043 C 282.009 128.361,283.200 129.247,283.200 131.250 C 283.200 132.087,283.238 132.101,283.718 131.445 C 284.578 130.269,286.966 130.708,287.124 132.071 C 287.192 132.660,287.507 133.357,287.824 133.620 C 288.633 134.292,288.554 135.901,287.700 136.124 C 287.264 136.238,287.409 136.325,288.086 136.354 C 288.795 136.384,289.320 136.122,289.600 135.600 C 290.075 134.713,291.576 134.536,292.320 135.280 C 292.951 135.911,292.937 137.878,292.300 138.135 C 291.983 138.263,292.039 138.348,292.453 138.368 C 292.813 138.386,293.194 138.067,293.300 137.661 C 293.778 135.832,296.800 136.483,296.800 138.416 C 296.800 139.544,296.857 139.600,297.429 139.029 C 298.573 137.885,300.800 138.359,300.800 139.747 C 300.800 140.220,301.179 140.844,301.641 141.133 C 302.269 141.525,302.439 141.955,302.310 142.829 C 302.133 144.035,302.915 144.518,303.323 143.456 C 304.038 141.593,307.043 143.092,306.548 145.064 L 306.284 146.116 307.142 145.258 C 308.388 144.012,309.966 144.127,310.485 145.500 C 310.864 146.504,311.052 146.588,312.650 146.460 C 314.168 146.338,314.400 146.423,314.400 147.101 C 314.400 147.531,314.864 148.383,315.430 148.995 C 316.172 149.795,316.394 150.371,316.222 151.053 C 315.932 152.208,316.426 152.290,317.107 151.200 C 318.158 149.517,320.391 150.449,320.412 152.580 C 320.422 153.602,320.490 153.687,320.832 153.100 C 321.578 151.818,323.972 152.162,324.258 153.591 C 324.389 154.246,324.745 154.988,325.048 155.240 C 325.838 155.895,325.742 157.504,324.900 157.724 C 324.431 157.847,324.533 157.922,325.211 157.954 C 325.774 157.979,326.526 157.645,326.907 157.200 C 328.297 155.577,330.237 156.606,329.915 158.796 C 329.721 160.121,330.205 160.444,330.586 159.243 C 331.212 157.273,333.980 158.108,334.046 160.287 C 334.072 161.119,334.175 161.485,334.276 161.100 C 334.694 159.501,338.000 159.779,338.000 161.413 C 338.000 161.978,338.345 162.557,338.840 162.822 C 339.476 163.162,339.639 163.555,339.509 164.436 C 339.333 165.636,340.117 166.115,340.523 165.056 C 341.217 163.249,344.081 164.597,343.707 166.553 C 343.475 167.769,344.204 167.991,344.516 166.800 C 344.862 165.476,347.136 165.697,347.626 167.102 C 347.979 168.117,348.153 168.194,349.788 168.064 C 351.455 167.931,351.583 167.993,351.849 169.061 C 352.005 169.687,352.360 170.380,352.637 170.600 C 353.259 171.093,353.488 172.428,353.066 173.100 C 352.875 173.406,352.958 173.600,353.280 173.600 C 353.570 173.600,354.032 173.240,354.307 172.800 C 355.420 171.018,357.835 172.220,357.515 174.396 C 357.418 175.058,357.487 175.600,357.669 175.600 C 357.851 175.600,358.000 175.326,358.000 174.990 C 358.000 173.259,361.117 173.484,361.468 175.242 C 361.594 175.869,361.945 176.588,362.248 176.840 C 362.928 177.404,362.962 178.478,362.320 179.120 C 361.947 179.493,362.059 179.600,362.824 179.600 C 363.374 179.600,364.028 179.248,364.307 178.800 C 365.309 177.195,367.200 178.077,367.200 180.150 L 367.200 181.339 368.126 180.470 C 369.794 178.902,371.200 179.588,371.200 181.969 C 371.200 183.373,371.202 183.375,371.838 182.467 C 372.669 181.281,374.917 181.372,375.136 182.600 C 375.320 183.639,375.664 183.981,376.729 184.186 L 377.600 184.354 377.600 141.777 L 377.600 99.200 376.400 99.200 C 375.607 99.200,375.200 99.401,375.200 99.792 C 375.200 100.590,373.346 101.019,372.595 100.396 C 372.268 100.124,372.000 99.254,372.000 98.462 C 372.000 97.029,371.997 97.027,371.362 97.933 C 370.344 99.386,368.311 99.008,367.965 97.302 C 367.820 96.589,367.487 95.745,367.223 95.428 C 366.868 94.999,366.858 94.639,367.186 94.026 C 367.579 93.291,367.515 93.200,366.602 93.200 C 366.037 93.200,365.478 93.452,365.360 93.761 C 364.683 95.525,362.207 94.294,362.495 92.335 C 362.606 91.575,362.486 91.200,362.131 91.200 C 361.839 91.200,361.600 91.467,361.600 91.792 C 361.600 92.455,359.926 93.011,359.001 92.656 C 358.599 92.501,358.400 91.872,358.400 90.754 L 358.400 89.083 357.395 90.167 C 355.982 91.692,354.023 91.059,354.006 89.071 C 354.003 88.671,353.746 88.089,353.436 87.778 C 353.125 87.468,352.961 86.871,353.070 86.452 C 353.371 85.303,352.445 85.001,351.554 85.957 C 350.116 87.501,348.400 86.668,348.400 84.426 L 348.400 83.600 347.600 84.400 C 346.126 85.874,344.420 84.960,344.375 82.671 C 344.351 81.509,344.318 81.477,343.988 82.300 C 343.344 83.900,340.400 83.311,340.400 81.582 C 340.400 81.220,340.065 80.621,339.656 80.251 C 339.228 79.863,338.959 79.158,339.021 78.589 C 339.152 77.392,338.672 77.328,337.600 78.400 C 336.236 79.764,334.816 78.894,334.779 76.671 L 334.758 75.400 334.130 76.300 C 332.988 77.938,330.800 77.242,330.800 75.240 C 330.800 74.462,330.693 74.347,330.320 74.720 C 329.361 75.679,327.221 75.307,326.762 74.101 C 326.532 73.496,326.065 72.692,325.723 72.315 C 325.356 71.910,325.181 71.212,325.295 70.614 C 325.529 69.392,324.803 69.262,324.093 70.400 C 323.451 71.427,321.758 71.443,321.214 70.426 C 320.650 69.373,320.693 68.110,321.300 67.865 C 321.599 67.744,321.518 67.650,321.100 67.632 C 320.670 67.612,320.400 67.891,320.400 68.353 C 320.400 68.820,320.057 69.168,319.500 69.269 C 317.855 69.565,317.236 69.198,316.968 67.769 C 316.826 67.011,316.550 66.293,316.355 66.172 C 315.819 65.841,315.930 64.094,316.500 63.874 C 316.775 63.768,316.507 63.723,315.905 63.774 C 315.303 63.825,314.479 64.167,314.074 64.533 C 313.155 65.364,312.631 65.373,311.829 64.571 C 310.922 63.664,311.052 62.434,312.100 62.012 C 312.965 61.665,312.957 61.650,311.900 61.625 C 311.295 61.611,310.800 61.767,310.800 61.971 C 310.800 64.520,307.248 63.567,307.181 61.000 C 307.151 59.880,307.125 59.860,306.788 60.700 C 306.092 62.431,303.200 61.680,303.200 59.769 C 303.200 59.290,302.918 58.664,302.574 58.379 C 302.177 58.049,302.034 57.520,302.182 56.930 C 302.368 56.187,302.253 56.000,301.608 56.000 C 301.163 56.000,300.800 56.186,300.800 56.413 C 300.800 57.054,299.088 57.552,298.300 57.139 C 297.832 56.893,297.593 56.279,297.579 55.286 C 297.558 53.819,297.550 53.811,296.930 54.700 C 295.941 56.118,293.967 55.832,293.458 54.197 C 293.246 53.517,292.930 53.416,291.404 53.537 C 289.828 53.662,289.600 53.581,289.600 52.894 C 289.600 52.462,289.240 51.650,288.800 51.091 C 287.815 49.838,287.782 48.967,288.700 48.432 C 289.310 48.077,289.271 48.023,288.396 48.012 C 287.816 48.005,287.182 48.337,286.893 48.800 C 285.781 50.581,283.091 48.991,283.854 47.003 C 283.981 46.672,283.906 46.400,283.686 46.400 C 283.466 46.400,283.192 46.645,283.077 46.944 C 282.464 48.540,279.600 47.792,279.600 46.036 C 279.600 45.382,279.420 44.736,279.200 44.600 C 278.667 44.270,278.686 42.800,279.224 42.800 C 279.457 42.800,279.536 42.620,279.400 42.400 C 278.994 41.743,277.825 41.945,277.093 42.800 C 276.322 43.700,275.198 43.838,274.480 43.120 C 273.849 42.489,273.863 40.522,274.500 40.265 C 274.799 40.144,274.718 40.050,274.300 40.032 C 273.915 40.014,273.600 40.274,273.600 40.609 C 273.600 41.516,271.886 42.181,270.904 41.656 C 270.298 41.332,270.040 40.639,269.829 38.774 L 269.551 36.318 268.076 36.564 C 265.093 37.062,265.007 37.048,264.865 36.045 C 264.791 35.520,264.971 34.938,265.265 34.751 C 265.633 34.518,265.457 34.410,264.700 34.406 C 264.095 34.403,263.600 34.586,263.600 34.813 C 263.600 35.454,261.888 35.952,261.100 35.539 C 260.632 35.293,260.393 34.679,260.379 33.686 C 260.358 32.219,260.350 32.211,259.730 33.100 C 258.127 35.398,255.965 33.849,255.939 30.383 C 255.921 28.168,254.726 27.619,253.108 29.083 C 252.537 29.600,252.188 29.663,251.677 29.343 C 250.700 28.732,250.564 26.917,251.477 26.680 C 251.994 26.546,251.914 26.480,251.196 26.446 C 250.589 26.418,249.995 26.716,249.693 27.200 C 248.580 28.982,246.165 27.780,246.485 25.604 C 246.693 24.182,246.351 24.032,245.795 25.300 C 245.354 26.306,243.840 26.697,243.020 26.017 C 242.529 25.609,242.172 24.195,241.903 21.600 C 241.801 20.613,240.000 19.816,240.000 20.758 C 240.000 20.986,239.628 21.371,239.174 21.614 C 238.068 22.206,237.200 21.475,237.200 19.951 C 237.200 19.195,236.994 18.800,236.600 18.800 C 236.270 18.800,236.000 19.058,236.000 19.373 C 236.000 20.164,234.602 20.536,233.615 20.008 C 233.021 19.690,232.800 19.172,232.800 18.097 C 232.800 16.632,232.796 16.628,232.162 17.533 C 231.249 18.836,229.060 18.622,228.861 17.211 C 228.784 16.668,228.474 15.869,228.171 15.438 C 227.868 15.005,227.726 14.237,227.854 13.726 C 228.098 12.753,226.744 12.320,226.201 13.198 C 225.627 14.127,224.465 14.407,223.828 13.771 C 223.077 13.020,222.998 11.348,223.700 11.065 C 223.975 10.954,223.816 10.849,223.347 10.832 C 222.804 10.812,222.414 11.102,222.277 11.628 C 221.886 13.121,219.515 12.536,218.923 10.800 C 218.660 10.030,218.435 9.613,218.423 9.873 C 218.393 10.489,217.008 10.920,216.042 10.613 C 215.374 10.401,214.124 7.595,213.819 5.622 C 213.681 4.725,213.051 4.715,212.295 5.597 " stroke="none" fill="#1c64c4" fill-rule="evenodd"></path><path id="path1" d="M187.817 3.338 C 186.094 4.598,188.928 7.357,190.774 6.216 C 191.630 5.687,191.274 3.313,190.300 3.052 C 188.986 2.700,188.634 2.740,187.817 3.338 M209.500 3.076 C 208.792 3.261,208.574 4.545,209.043 5.767 C 209.358 6.590,211.351 6.592,212.171 5.771 C 213.842 4.100,212.143 2.385,209.500 3.076 M184.854 5.088 C 184.333 5.187,183.817 5.613,183.707 6.034 C 183.582 6.511,183.157 6.800,182.580 6.800 C 181.463 6.800,181.025 7.887,181.567 9.313 C 182.358 11.395,185.200 11.001,185.200 8.810 C 185.200 8.170,185.359 7.549,185.554 7.429 C 185.948 7.185,186.395 4.768,186.031 4.854 C 185.904 4.884,185.374 4.990,184.854 5.088 M213.781 5.498 C 214.234 7.838,215.366 10.399,216.042 10.613 C 217.008 10.920,218.393 10.489,218.423 9.873 C 218.435 9.613,218.660 10.030,218.923 10.800 C 219.722 13.144,222.150 12.900,222.325 10.458 L 222.450 8.715 220.642 8.859 C 218.966 8.993,218.826 8.930,218.717 8.002 C 218.628 7.242,218.334 6.969,217.500 6.873 C 216.895 6.804,216.400 6.499,216.400 6.197 C 216.400 5.554,216.175 5.400,214.723 5.053 C 213.838 4.842,213.670 4.922,213.781 5.498 M177.600 10.151 C 177.600 12.544,180.194 13.315,180.953 11.147 C 181.541 9.466,181.048 8.800,179.213 8.800 C 177.647 8.800,177.600 8.840,177.600 10.151 M173.867 11.067 C 173.432 11.501,173.563 13.003,174.080 13.520 C 175.427 14.867,177.372 13.268,176.656 11.401 C 176.425 10.800,174.379 10.554,173.867 11.067 M223.700 11.056 C 222.991 11.355,223.080 13.023,223.846 13.789 C 224.780 14.723,226.200 13.734,226.200 12.151 C 226.200 10.989,225.054 10.486,223.700 11.056 M227.860 13.691 C 227.732 14.181,227.874 14.959,228.177 15.420 C 228.479 15.881,228.788 16.695,228.863 17.229 C 229.020 18.341,230.835 18.801,231.824 17.980 C 232.884 17.101,232.568 14.800,231.387 14.800 C 230.788 14.800,230.269 14.514,230.117 14.100 C 229.569 12.615,228.206 12.368,227.860 13.691 M170.116 14.000 C 169.968 14.567,169.570 14.800,168.753 14.800 C 167.715 14.800,167.600 14.932,167.600 16.120 C 167.600 18.414,170.405 19.504,171.153 17.500 C 172.017 15.186,172.357 13.854,172.164 13.541 C 171.753 12.877,170.326 13.196,170.116 14.000 M163.786 17.223 C 162.742 18.912,165.557 21.234,166.795 19.705 C 168.007 18.209,167.416 16.800,165.577 16.800 C 164.736 16.800,163.930 16.990,163.786 17.223 M232.800 18.186 C 232.800 20.653,235.680 21.166,236.202 18.792 C 236.556 17.179,236.209 16.800,234.376 16.800 C 232.845 16.800,232.800 16.839,232.800 18.186 M160.285 19.048 C 159.261 20.073,161.184 22.443,162.293 21.523 C 163.221 20.752,162.757 19.018,161.585 18.882 C 161.027 18.817,160.442 18.892,160.285 19.048 M237.200 19.951 C 237.200 21.475,238.068 22.206,239.174 21.614 C 240.706 20.794,240.299 18.800,238.600 18.800 C 237.324 18.800,237.200 18.902,237.200 19.951 M241.893 21.565 C 241.786 21.976,241.853 22.556,242.043 22.856 C 242.233 23.155,242.391 23.859,242.394 24.420 C 242.401 25.672,243.077 26.400,244.231 26.400 C 246.320 26.400,246.760 22.710,244.700 22.473 C 244.095 22.404,243.600 22.185,243.600 21.988 C 243.600 21.167,242.095 20.794,241.893 21.565 M157.373 21.978 C 157.168 22.179,156.370 22.401,155.600 22.471 C 153.676 22.648,153.244 25.273,155.007 26.076 C 156.551 26.780,157.345 26.094,157.679 23.769 C 157.982 21.661,157.942 21.423,157.373 21.978 M150.500 24.665 C 149.121 25.221,150.712 28.233,152.227 27.935 C 154.114 27.564,153.992 24.377,152.092 24.432 C 151.492 24.449,150.775 24.554,150.500 24.665 M246.686 24.648 C 246.228 25.105,246.356 26.996,246.880 27.520 C 248.172 28.812,250.149 27.648,249.929 25.724 C 249.800 24.602,247.496 23.837,246.686 24.648 M147.100 26.698 C 146.715 26.786,146.400 27.205,146.400 27.629 C 146.400 28.180,146.121 28.400,145.424 28.400 C 144.164 28.400,143.861 28.934,144.174 30.603 C 144.589 32.814,147.344 33.017,147.853 30.873 C 147.993 30.283,148.343 29.527,148.632 29.193 C 149.692 27.965,148.689 26.333,147.100 26.698 M251.477 26.680 C 250.564 26.917,250.700 28.732,251.677 29.343 C 253.014 30.180,254.498 28.155,253.371 27.029 C 252.720 26.378,252.676 26.369,251.477 26.680 M255.958 29.851 C 255.660 32.304,256.495 34.000,258.000 34.000 C 260.420 34.000,260.796 30.694,258.402 30.467 C 257.632 30.394,256.777 30.147,256.502 29.918 C 256.226 29.689,255.981 29.659,255.958 29.851 M140.476 32.076 C 140.613 33.977,142.446 34.790,143.563 33.445 C 144.687 32.090,143.947 30.611,142.076 30.476 L 140.352 30.352 140.476 32.076 M136.686 32.648 C 135.630 33.703,136.905 35.754,138.478 35.531 C 140.066 35.306,139.810 32.640,138.186 32.481 C 137.518 32.416,136.843 32.491,136.686 32.648 M260.400 33.786 C 260.400 35.391,261.306 36.092,262.700 35.566 C 264.507 34.883,263.958 32.400,262.000 32.400 C 260.441 32.400,260.400 32.436,260.400 33.786 M133.371 34.706 C 133.135 34.868,132.825 35.315,132.683 35.700 C 132.531 36.114,132.012 36.400,131.413 36.400 C 130.529 36.400,130.400 36.572,130.400 37.751 C 130.400 40.357,133.527 41.003,134.035 38.502 C 134.180 37.789,134.513 36.945,134.777 36.628 C 135.615 35.618,134.422 33.986,133.371 34.706 M265.265 34.751 C 264.567 35.194,264.824 36.958,265.608 37.107 C 266.787 37.332,267.756 36.238,267.237 35.268 C 266.745 34.350,266.146 34.193,265.265 34.751 M126.406 39.500 C 126.417 41.372,127.765 42.368,129.229 41.584 C 130.981 40.647,130.255 38.400,128.200 38.400 C 126.502 38.400,126.400 38.462,126.406 39.500 M270.000 39.786 C 270.000 41.506,271.166 42.326,272.651 41.650 C 274.601 40.761,273.983 38.400,271.800 38.400 C 270.013 38.400,270.000 38.410,270.000 39.786 M122.697 41.424 C 122.549 42.199,122.743 42.606,123.491 43.097 C 124.780 43.941,125.756 43.365,125.925 41.660 C 126.101 39.895,123.033 39.671,122.697 41.424 M274.000 41.551 C 274.000 42.982,274.887 43.765,276.151 43.448 C 278.336 42.900,277.846 40.400,275.553 40.400 C 274.109 40.400,274.000 40.481,274.000 41.551 M279.300 42.665 C 278.703 42.906,278.634 44.250,279.200 44.600 C 279.420 44.736,279.600 45.382,279.600 46.036 C 279.600 47.792,282.464 48.540,283.077 46.944 C 283.192 46.645,283.466 46.400,283.686 46.400 C 283.906 46.400,283.981 46.672,283.854 47.003 C 283.147 48.845,285.551 50.505,286.780 49.024 C 287.943 47.622,287.137 46.209,285.100 46.078 C 283.385 45.968,283.200 45.861,283.200 44.978 C 283.200 44.205,282.993 44.000,282.214 44.000 C 281.638 44.000,281.050 43.668,280.800 43.200 C 280.362 42.381,280.172 42.313,279.300 42.665 M119.466 43.371 C 119.346 43.685,118.742 44.000,118.124 44.071 C 117.321 44.163,116.964 44.451,116.875 45.079 C 116.769 45.821,116.456 45.977,114.875 46.079 C 113.090 46.194,112.994 46.261,112.877 47.473 C 112.697 49.328,115.825 50.507,116.061 48.673 C 116.094 48.413,116.164 48.020,116.215 47.800 C 116.266 47.580,116.334 47.130,116.366 46.800 C 116.413 46.317,116.504 46.337,116.832 46.900 C 117.311 47.722,119.937 47.879,120.183 47.100 C 121.048 44.354,120.395 40.952,119.466 43.371 M109.452 48.606 C 109.093 48.964,108.800 49.424,108.800 49.629 C 108.800 49.833,108.393 50.000,107.895 50.000 C 107.340 50.000,106.837 50.348,106.595 50.900 C 106.314 51.540,105.795 51.837,104.800 51.929 C 102.985 52.095,102.661 52.456,102.987 53.942 C 103.471 56.142,106.117 56.095,106.759 53.875 C 106.962 53.174,107.144 52.825,107.164 53.100 C 107.245 54.228,110.290 53.694,110.588 52.500 C 110.739 51.895,111.110 51.125,111.413 50.789 C 111.969 50.171,112.069 48.400,111.548 48.400 C 111.392 48.400,111.004 48.300,110.684 48.177 C 110.365 48.054,109.810 48.247,109.452 48.606 M288.700 48.427 C 287.782 48.968,287.815 49.838,288.800 51.091 C 289.240 51.650,289.600 52.462,289.600 52.894 C 289.600 53.582,289.828 53.662,291.416 53.536 C 293.030 53.408,293.258 53.493,293.461 54.299 C 293.902 56.058,296.585 55.997,297.031 54.218 C 297.400 52.748,296.975 52.000,295.770 52.000 C 295.121 52.000,294.412 51.615,293.929 51.000 C 293.496 50.450,292.748 50.000,292.266 50.000 C 291.742 50.000,291.231 49.639,290.995 49.102 C 290.543 48.074,289.712 47.830,288.700 48.427 M99.200 55.392 C 99.200 56.849,100.376 57.602,101.799 57.056 C 103.332 56.468,102.525 54.000,100.800 54.000 C 99.240 54.000,99.200 54.035,99.200 55.392 M297.600 55.386 C 297.600 56.991,298.506 57.692,299.900 57.166 C 301.707 56.483,301.158 54.000,299.200 54.000 C 297.641 54.000,297.600 54.036,297.600 55.386 M95.680 56.480 C 95.416 56.744,95.200 57.194,95.200 57.480 C 95.200 57.771,94.750 58.000,94.176 58.000 C 92.966 58.000,92.859 60.580,94.038 61.318 C 95.039 61.945,96.800 61.330,96.800 60.354 C 96.800 59.897,97.102 59.012,97.471 58.388 C 98.463 56.709,97.005 55.155,95.680 56.480 M302.198 56.805 C 302.027 57.345,302.161 57.915,302.564 58.360 C 302.914 58.747,303.200 59.418,303.200 59.851 C 303.200 61.692,306.112 62.381,306.788 60.700 C 307.125 59.860,307.151 59.880,307.181 61.000 C 307.264 64.175,310.800 64.342,310.800 61.171 C 310.800 60.104,310.678 60.000,309.429 60.000 C 308.443 60.000,307.837 59.719,307.271 59.000 C 306.839 58.450,306.118 58.000,305.670 58.000 C 305.130 58.000,304.813 57.697,304.728 57.100 C 304.547 55.829,302.581 55.600,302.198 56.805 M89.275 61.255 C 89.545 63.965,92.800 64.111,92.800 61.413 C 92.800 60.002,92.797 60.000,90.975 60.000 C 89.169 60.000,89.151 60.013,89.275 61.255 M85.410 62.768 C 85.248 63.280,84.645 63.623,83.600 63.800 C 82.555 63.977,81.952 64.320,81.790 64.832 C 81.637 65.312,81.181 65.600,80.573 65.600 C 79.703 65.600,79.600 65.771,79.600 67.213 C 79.600 70.226,83.151 70.213,83.206 67.200 C 83.222 66.327,83.276 66.289,83.632 66.900 C 84.432 68.273,87.200 67.561,87.200 65.982 C 87.200 65.620,87.556 65.002,87.991 64.608 C 88.426 64.214,88.747 63.466,88.704 62.946 C 88.599 61.676,85.805 61.525,85.410 62.768 M311.400 62.401 C 310.934 63.154,311.557 64.732,312.430 65.009 C 313.490 65.346,314.878 64.141,314.718 63.022 C 314.585 62.094,311.900 61.592,311.400 62.401 M315.700 63.899 C 315.865 63.991,316.000 64.491,316.000 65.010 C 316.000 65.528,316.160 66.051,316.355 66.172 C 316.550 66.293,316.826 67.011,316.968 67.769 C 317.236 69.198,317.855 69.565,319.500 69.269 C 320.902 69.016,320.852 65.600,319.447 65.600 C 318.830 65.600,318.419 65.318,318.284 64.800 C 318.162 64.334,317.738 64.000,317.270 64.000 C 316.828 64.000,316.226 63.940,315.933 63.866 C 315.640 63.792,315.535 63.807,315.700 63.899 M75.867 67.867 C 74.870 68.863,75.945 71.200,77.400 71.200 C 79.062 71.200,80.033 68.405,78.567 67.843 C 77.726 67.520,76.200 67.534,75.867 67.867 M321.300 67.865 C 320.068 68.362,321.118 71.200,322.534 71.200 C 323.798 71.200,324.400 70.464,324.400 68.920 C 324.400 67.590,323.088 67.144,321.300 67.865 M72.080 70.080 C 71.816 70.344,71.600 70.794,71.600 71.080 C 71.600 71.366,71.175 71.600,70.655 71.600 C 70.135 71.600,69.277 72.032,68.749 72.560 C 68.221 73.088,67.342 73.583,66.795 73.660 C 65.670 73.818,65.425 76.189,66.465 76.849 C 67.993 77.817,69.913 76.500,69.305 74.900 C 69.200 74.625,69.314 74.400,69.557 74.400 C 69.801 74.400,70.000 74.580,70.000 74.800 C 70.000 75.364,72.541 75.299,73.120 74.720 C 73.384 74.456,73.600 73.938,73.600 73.569 C 73.600 73.200,73.870 72.674,74.200 72.400 C 75.130 71.628,74.954 70.135,73.900 69.852 C 72.680 69.525,72.628 69.532,72.080 70.080 M325.467 69.867 C 325.039 70.294,325.159 71.928,325.641 72.225 C 325.883 72.375,326.336 73.106,326.646 73.849 C 327.252 75.300,329.263 75.777,330.320 74.720 C 330.693 74.347,330.800 74.462,330.800 75.240 C 330.800 77.137,333.139 78.008,333.986 76.426 C 334.778 74.947,334.507 73.600,333.418 73.600 C 332.878 73.600,331.986 73.150,331.436 72.600 C 330.886 72.050,329.978 71.600,329.418 71.600 C 328.686 71.600,328.400 71.387,328.400 70.843 C 328.400 69.814,326.238 69.095,325.467 69.867 M61.902 76.600 C 61.560 78.388,63.436 79.686,64.562 78.442 C 64.913 78.054,65.200 77.256,65.200 76.669 C 65.200 75.097,62.201 75.034,61.902 76.600 M334.800 76.771 C 334.800 78.893,336.259 79.741,337.600 78.400 C 338.456 77.544,338.538 77.225,338.157 76.233 C 337.661 74.940,334.800 75.399,334.800 76.771 M58.285 77.848 C 58.128 78.005,58.000 78.463,58.000 78.867 C 58.000 79.361,57.706 79.600,57.096 79.600 C 56.599 79.600,55.983 79.935,55.728 80.344 C 55.460 80.773,54.572 81.198,53.632 81.349 C 52.357 81.552,52.000 81.784,52.000 82.405 C 52.000 83.038,51.731 83.200,50.676 83.200 C 48.783 83.200,47.816 84.014,48.147 85.332 C 48.736 87.676,51.600 86.943,51.600 84.448 L 51.600 83.449 52.416 84.325 C 53.867 85.882,55.600 84.989,55.600 82.682 L 55.600 81.422 56.239 82.334 C 57.616 84.300,61.114 81.388,60.716 78.607 C 60.599 77.793,58.878 77.255,58.285 77.848 M339.167 77.675 C 338.885 78.735,339.076 79.726,339.667 80.261 C 340.070 80.625,340.400 81.220,340.400 81.582 C 340.400 83.311,343.344 83.900,343.988 82.300 C 344.318 81.477,344.351 81.509,344.375 82.671 C 344.420 84.960,346.126 85.874,347.600 84.400 L 348.400 83.600 348.400 84.426 C 348.400 86.521,350.052 87.491,351.371 86.171 C 352.939 84.604,351.879 83.219,349.100 83.205 C 348.290 83.201,348.000 83.001,348.000 82.443 C 348.000 81.957,347.618 81.591,346.932 81.419 C 346.344 81.271,345.420 80.802,344.878 80.375 C 344.336 79.949,343.479 79.600,342.974 79.600 C 342.326 79.600,342.018 79.335,341.928 78.700 C 341.820 77.941,339.341 77.021,339.167 77.675 M45.654 85.488 C 45.133 85.587,44.617 86.013,44.507 86.434 C 44.382 86.912,43.957 87.200,43.377 87.200 C 42.184 87.200,41.876 87.727,42.203 89.213 C 42.693 91.444,45.374 91.784,45.830 89.673 C 45.958 89.083,46.213 88.240,46.398 87.800 C 46.903 86.595,47.159 85.193,46.863 85.254 C 46.718 85.284,46.174 85.390,45.654 85.488 M353.042 86.475 C 353.092 87.191,353.328 87.843,353.566 87.922 C 353.805 88.002,354.003 88.457,354.006 88.933 C 354.020 90.883,355.871 91.729,357.204 90.396 C 358.432 89.168,358.154 87.441,356.700 87.273 C 355.923 87.184,355.600 86.920,355.600 86.373 C 355.600 85.878,355.325 85.600,354.833 85.600 C 354.411 85.600,353.815 85.504,353.509 85.386 C 353.094 85.227,352.975 85.504,353.042 86.475 M38.400 90.520 C 38.400 92.747,40.659 93.759,41.620 91.963 C 42.474 90.367,41.786 89.200,39.992 89.200 C 38.458 89.200,38.400 89.248,38.400 90.520 M358.400 90.813 C 358.400 92.592,358.952 93.049,360.601 92.636 C 362.557 92.145,362.042 89.200,360.000 89.200 L 358.400 89.200 358.400 90.813 M34.686 91.448 C 34.529 91.605,34.400 92.040,34.400 92.416 C 34.400 92.905,33.936 93.172,32.760 93.360 C 31.595 93.546,31.059 93.851,30.913 94.411 C 30.768 94.966,30.365 95.200,29.553 95.200 C 28.582 95.200,28.400 95.362,28.400 96.226 C 28.400 98.852,31.224 100.000,32.024 97.700 C 32.361 96.734,32.613 96.600,34.095 96.600 C 35.465 96.600,35.811 96.450,35.934 95.800 C 36.018 95.360,36.437 94.668,36.866 94.263 C 38.092 93.104,37.710 91.430,36.186 91.281 C 35.518 91.216,34.843 91.291,34.686 91.448 M362.667 91.467 C 362.191 91.943,362.385 93.527,362.993 94.136 C 364.246 95.389,366.143 93.591,365.456 91.801 C 365.225 91.200,363.179 90.954,362.667 91.467 M367.186 94.026 C 366.858 94.639,366.868 94.999,367.223 95.428 C 367.487 95.745,367.820 96.589,367.965 97.302 C 368.473 99.803,371.600 99.157,371.600 96.551 C 371.600 95.372,371.471 95.200,370.587 95.200 C 369.988 95.200,369.469 94.914,369.317 94.500 C 368.788 93.067,367.815 92.850,367.186 94.026 M24.586 97.623 C 23.688 99.076,26.102 101.477,27.388 100.410 C 28.781 99.254,28.164 97.200,26.424 97.200 C 25.557 97.200,24.730 97.390,24.586 97.623 M372.000 98.551 C 372.000 101.104,374.860 101.659,375.398 99.210 C 375.756 97.578,375.413 97.200,373.576 97.200 C 372.052 97.200,372.000 97.245,372.000 98.551 M22.521 142.000 C 22.437 188.928,22.348 187.000,24.607 187.000 C 27.109 187.000,27.025 184.783,24.502 184.224 L 22.804 183.847 22.700 142.024 L 22.596 100.200 22.521 142.000 M117.200 129.801 C 116.980 130.379,116.800 131.100,116.800 131.402 C 116.800 131.705,116.636 132.054,116.436 132.178 C 115.951 132.477,116.152 133.717,116.716 133.905 C 116.961 133.987,117.480 133.682,117.870 133.227 C 118.259 132.772,118.998 132.400,119.512 132.400 C 121.218 132.400,120.635 129.042,118.900 128.875 C 117.809 128.769,117.535 128.918,117.200 129.801 M280.100 129.065 C 279.065 129.482,279.485 132.400,280.579 132.400 C 281.118 132.400,282.044 132.850,282.638 133.400 C 283.231 133.950,284.067 134.400,284.496 134.400 C 284.938 134.400,285.365 134.745,285.484 135.200 C 285.818 136.477,288.400 136.344,288.400 135.049 C 288.400 134.526,288.141 133.883,287.824 133.620 C 287.507 133.357,287.192 132.660,287.124 132.071 C 286.966 130.708,284.578 130.269,283.718 131.445 C 283.238 132.101,283.200 132.087,283.200 131.250 C 283.200 129.261,281.895 128.341,280.100 129.065 M112.018 133.778 C 111.114 134.867,111.659 136.210,112.967 136.116 C 114.696 135.990,115.261 134.918,114.171 133.829 C 113.388 133.045,112.641 133.028,112.018 133.778 M107.620 135.376 C 106.917 136.223,107.253 138.165,108.132 138.332 C 109.711 138.632,110.800 138.036,110.800 136.872 C 110.800 134.974,108.753 134.011,107.620 135.376 M289.614 135.574 C 288.572 137.520,289.804 138.897,291.971 138.209 C 292.909 137.911,293.127 136.087,292.320 135.280 C 291.585 134.545,290.077 134.709,289.614 135.574 M103.900 136.832 C 103.515 137.056,103.200 137.659,103.200 138.171 C 103.200 138.683,102.930 139.326,102.600 139.600 C 101.742 140.312,101.860 141.502,102.819 141.806 C 103.723 142.093,104.800 141.411,104.800 140.551 C 104.800 140.230,105.217 140.000,105.800 140.000 C 107.303 140.000,107.281 137.363,105.774 136.790 C 104.567 136.331,104.767 136.327,103.900 136.832 M294.100 136.839 C 292.695 137.362,292.789 140.000,294.213 140.000 C 294.812 140.000,295.331 140.286,295.483 140.700 C 295.848 141.687,296.407 141.987,297.900 141.994 C 299.027 141.999,299.200 142.137,299.200 143.024 C 299.200 143.963,299.325 144.038,300.700 143.924 C 302.526 143.773,303.097 142.042,301.625 141.123 C 301.171 140.839,300.800 140.220,300.800 139.747 C 300.800 138.376,298.575 137.882,297.454 139.003 C 296.917 139.540,296.837 139.469,296.726 138.346 C 296.583 136.915,295.526 136.308,294.100 136.839 M98.080 141.280 C 96.875 142.485,97.499 144.000,99.200 144.000 C 100.686 144.000,100.800 143.920,100.800 142.880 C 100.800 141.628,100.163 140.800,99.200 140.800 C 98.848 140.800,98.344 141.016,98.080 141.280 M94.300 142.832 C 93.878 143.078,93.600 143.719,93.600 144.448 C 93.600 145.547,93.543 145.600,92.971 145.029 C 92.102 144.159,90.033 144.205,89.767 145.100 C 89.653 145.485,89.298 146.310,88.980 146.932 C 88.304 148.253,88.231 149.448,88.804 149.802 C 89.463 150.210,90.741 149.617,91.006 148.780 C 91.153 148.319,91.613 148.000,92.132 148.000 C 92.659 148.000,93.168 147.640,93.405 147.100 C 93.692 146.446,94.237 146.145,95.400 146.000 C 97.382 145.752,97.894 144.131,96.334 143.039 C 95.276 142.297,95.226 142.292,94.300 142.832 M304.135 142.827 C 303.165 143.188,302.654 144.354,303.034 145.344 C 303.442 146.408,306.244 146.241,306.533 145.135 C 306.973 143.453,305.713 142.240,304.135 142.827 M307.500 144.832 C 306.180 145.601,306.559 148.000,308.000 148.000 C 308.909 148.000,309.200 148.183,309.200 148.753 C 309.200 149.516,310.207 149.984,311.872 149.995 C 312.470 149.998,312.785 150.283,312.872 150.900 C 312.971 151.599,313.303 151.829,314.358 151.930 C 316.541 152.138,317.036 150.728,315.400 148.962 C 314.850 148.369,314.400 147.531,314.400 147.101 C 314.400 146.423,314.168 146.338,312.650 146.460 C 311.052 146.588,310.864 146.504,310.485 145.500 C 310.042 144.326,308.833 144.056,307.500 144.832 M84.677 148.861 C 83.164 149.708,83.798 152.065,85.500 151.924 C 86.914 151.807,87.000 151.722,87.000 150.446 C 87.000 148.940,85.889 148.182,84.677 148.861 M80.080 150.880 C 79.816 151.144,79.586 151.819,79.568 152.380 C 79.551 152.941,79.446 153.175,79.335 152.900 C 78.877 151.764,75.999 152.304,75.745 153.574 C 75.616 154.220,75.260 154.845,74.955 154.962 C 74.436 155.161,74.162 157.229,74.598 157.664 C 75.127 158.194,77.200 157.469,77.200 156.755 C 77.200 156.229,77.486 156.000,78.142 156.000 C 78.659 156.000,79.569 155.550,80.162 155.000 C 80.756 154.450,81.682 154.000,82.221 154.000 C 83.092 154.000,83.200 153.828,83.200 152.443 C 83.200 150.510,81.368 149.592,80.080 150.880 M317.280 150.880 C 316.131 152.029,316.694 154.000,318.171 154.000 C 319.157 154.000,319.763 154.281,320.329 155.000 C 320.761 155.550,321.494 156.000,321.958 156.000 C 322.533 156.000,322.800 156.253,322.800 156.800 C 322.800 157.448,323.067 157.600,324.200 157.600 C 325.727 157.600,326.224 156.216,325.048 155.240 C 324.745 154.988,324.389 154.246,324.258 153.591 C 323.972 152.162,321.578 151.818,320.832 153.100 C 320.490 153.687,320.422 153.602,320.412 152.580 C 320.398 151.151,319.774 150.400,318.600 150.400 C 318.138 150.400,317.544 150.616,317.280 150.880 M70.414 157.174 C 69.697 158.513,69.917 159.564,70.971 159.828 C 72.603 160.238,73.600 159.691,73.600 158.387 C 73.600 156.554,71.229 155.651,70.414 157.174 M327.029 157.029 C 325.663 158.394,326.855 160.219,328.921 159.925 C 329.549 159.836,329.837 159.479,329.929 158.676 C 330.160 156.663,328.396 155.661,327.029 157.029 M66.900 158.439 C 66.290 158.666,66.000 159.102,66.000 159.793 C 66.000 160.353,65.792 161.145,65.537 161.552 C 64.830 162.684,65.381 163.745,66.394 163.203 C 66.837 162.966,67.200 162.508,67.200 162.186 C 67.200 161.799,67.616 161.600,68.424 161.600 C 69.588 161.600,69.642 161.529,69.524 160.143 C 69.385 158.508,68.412 157.876,66.900 158.439 M331.600 158.318 C 330.039 158.843,329.855 161.600,331.382 161.600 C 331.922 161.600,332.814 162.050,333.364 162.600 C 333.914 163.150,334.809 163.600,335.354 163.600 C 336.076 163.600,336.379 163.843,336.472 164.500 C 336.680 165.961,339.353 165.809,339.524 164.327 C 339.611 163.571,339.404 163.123,338.824 162.813 C 338.337 162.552,338.000 161.972,338.000 161.394 C 338.000 159.756,334.481 159.499,334.343 161.127 C 334.312 161.497,334.177 161.100,334.043 160.244 C 333.794 158.647,332.845 157.900,331.600 158.318 M60.818 162.978 C 60.554 163.296,60.397 163.971,60.469 164.478 C 60.669 165.884,63.338 165.836,63.538 164.422 C 63.763 162.825,61.807 161.786,60.818 162.978 M57.100 164.435 C 56.643 164.699,56.400 165.327,56.400 166.243 L 56.400 167.646 58.100 167.523 C 60.309 167.363,60.691 164.877,58.600 164.265 C 58.160 164.136,57.485 164.213,57.100 164.435 M341.300 164.434 C 340.601 164.698,340.400 165.089,340.400 166.187 C 340.400 167.994,343.346 168.440,343.682 166.685 C 344.026 164.883,342.908 163.827,341.300 164.434 M52.562 166.700 C 52.445 167.085,52.072 167.966,51.734 168.658 C 51.019 170.120,51.341 171.785,52.269 171.429 C 52.597 171.303,53.031 171.200,53.233 171.200 C 53.435 171.200,53.600 170.852,53.600 170.427 C 53.600 169.880,53.923 169.616,54.700 169.527 C 55.945 169.383,56.346 168.194,55.611 166.821 C 55.045 165.763,52.873 165.677,52.562 166.700 M344.374 167.068 C 343.785 168.618,344.062 169.383,345.263 169.523 C 345.901 169.597,346.398 169.949,346.519 170.411 C 346.659 170.946,347.215 171.257,348.360 171.440 C 349.596 171.638,350.000 171.885,350.000 172.444 C 350.000 173.336,351.824 173.909,352.762 173.311 C 353.486 172.849,353.411 171.213,352.637 170.600 C 352.360 170.380,352.005 169.687,351.849 169.061 C 351.583 167.993,351.455 167.931,349.788 168.064 C 348.153 168.194,347.979 168.117,347.626 167.102 C 347.079 165.533,344.966 165.511,344.374 167.068 M47.067 170.667 C 46.554 171.179,46.800 173.225,47.401 173.456 C 49.268 174.172,50.867 172.227,49.520 170.880 C 49.003 170.363,47.501 170.232,47.067 170.667 M42.898 172.462 C 42.624 172.736,42.375 173.599,42.346 174.380 C 42.313 175.240,42.225 175.460,42.123 174.938 C 41.767 173.117,38.908 173.359,38.532 175.242 C 38.406 175.869,38.055 176.588,37.752 176.840 C 36.515 177.866,37.068 179.455,38.600 179.276 C 39.649 179.153,40.000 178.923,40.000 178.356 C 40.000 177.837,40.284 177.600,40.905 177.600 C 41.460 177.600,41.963 177.252,42.205 176.700 C 42.492 176.046,43.037 175.745,44.200 175.600 C 45.767 175.404,45.800 175.367,45.800 173.800 C 45.800 172.075,44.079 171.281,42.898 172.462 M354.420 172.576 C 353.327 173.892,354.064 175.400,355.800 175.400 C 357.257 175.400,357.412 175.299,357.529 174.276 C 357.687 172.900,357.003 172.000,355.800 172.000 C 355.304 172.000,354.683 172.259,354.420 172.576 M358.876 174.021 C 357.585 174.539,357.732 177.333,359.059 177.522 C 359.532 177.590,360.013 178.008,360.129 178.452 C 360.290 179.065,360.611 179.228,361.470 179.129 C 362.782 178.979,363.215 177.643,362.219 176.816 C 361.879 176.533,361.600 175.977,361.600 175.580 C 361.600 174.863,360.593 173.577,360.071 173.625 C 359.922 173.639,359.384 173.818,358.876 174.021 M277.784 176.522 C 277.318 178.378,277.875 179.200,279.598 179.200 C 280.731 179.200,281.190 179.014,281.324 178.500 C 281.458 177.988,281.520 178.049,281.554 178.726 C 281.716 181.978,285.200 182.163,285.200 178.920 C 285.200 177.797,285.058 177.600,284.249 177.600 C 283.722 177.600,283.045 177.220,282.733 176.749 C 281.790 175.329,278.125 175.161,277.784 176.522 M33.280 178.480 C 33.016 178.744,32.800 179.464,32.800 180.080 C 32.800 181.527,35.750 181.818,36.195 180.415 C 36.759 178.638,34.573 177.187,33.280 178.480 M364.200 178.944 C 363.268 180.367,363.801 181.200,365.643 181.200 C 367.082 181.200,367.200 181.115,367.200 180.080 C 367.200 177.969,365.308 177.252,364.200 178.944 M29.280 180.080 C 29.016 180.344,28.800 180.963,28.800 181.456 C 28.800 181.949,28.620 182.464,28.400 182.600 C 28.180 182.736,28.000 183.287,28.000 183.824 C 28.000 185.067,29.567 185.214,29.884 184.000 C 30.032 183.433,30.430 183.200,31.247 183.200 C 32.255 183.200,32.400 183.053,32.400 182.029 C 32.400 180.073,30.484 178.876,29.280 180.080 M285.735 180.226 C 285.336 181.264,286.277 182.800,287.311 182.800 C 288.549 182.800,289.200 182.083,289.200 180.720 C 289.200 179.397,286.216 178.971,285.735 180.226 M368.262 180.331 C 366.956 181.775,367.388 183.200,369.132 183.200 C 370.358 183.200,370.772 183.400,371.200 184.200 C 371.529 184.814,372.084 185.200,372.640 185.200 C 373.273 185.200,373.583 185.470,373.672 186.100 C 373.805 187.039,376.126 187.651,376.816 186.929 C 377.301 186.423,377.427 184.617,376.989 184.461 C 375.804 184.036,375.242 183.505,375.128 182.701 C 374.939 181.374,372.715 181.215,371.838 182.467 C 371.202 183.375,371.200 183.373,371.200 181.969 C 371.200 179.701,369.627 178.824,368.262 180.331 M290.124 182.254 C 289.986 182.614,290.083 183.199,290.339 183.554 C 290.862 184.277,291.424 185.448,291.755 186.500 C 292.049 187.437,294.223 187.445,294.746 186.511 C 295.070 185.932,295.188 186.043,295.489 187.211 C 295.940 188.966,298.023 189.452,298.807 187.986 C 299.625 186.459,298.989 185.200,297.402 185.200 C 296.368 185.200,295.853 184.948,295.363 184.200 C 295.003 183.650,294.381 183.200,293.981 183.200 C 293.581 183.200,293.140 182.840,293.000 182.400 C 292.678 181.386,290.499 181.275,290.124 182.254 M299.886 187.448 C 299.320 188.013,299.601 189.972,300.300 190.339 C 301.610 191.025,302.868 190.177,302.726 188.703 C 302.601 187.413,300.743 186.591,299.886 187.448 M304.434 189.726 C 303.818 190.342,303.897 191.475,304.573 191.734 C 304.888 191.855,305.203 192.549,305.273 193.277 C 305.497 195.615,308.551 195.281,308.723 192.900 C 308.837 191.322,308.774 191.200,307.850 191.200 C 307.224 191.200,306.765 190.919,306.614 190.443 C 306.327 189.540,305.043 189.117,304.434 189.726 M309.200 194.528 C 309.200 196.302,310.077 197.068,311.524 196.559 C 313.536 195.852,313.077 193.434,310.900 193.277 C 309.206 193.154,309.200 193.159,309.200 194.528 M313.700 195.465 C 312.962 195.763,313.092 197.092,313.942 197.942 C 314.350 198.350,314.804 199.160,314.950 199.742 C 315.188 200.692,315.401 200.800,317.031 200.800 L 318.846 200.800 318.723 199.100 C 318.621 197.687,318.448 197.378,317.701 197.272 C 317.140 197.193,316.710 196.779,316.557 196.172 C 316.317 195.215,315.079 194.909,313.700 195.465 M279.867 252.667 C 279.082 253.451,279.607 256.000,280.553 256.000 C 281.170 256.000,281.581 256.282,281.716 256.800 C 282.047 258.065,284.400 257.933,284.400 256.649 C 284.400 256.126,284.152 255.492,283.848 255.240 C 283.545 254.988,283.189 254.246,283.058 253.591 C 282.825 252.424,280.719 251.814,279.867 252.667 M285.975 257.225 C 284.925 258.275,285.116 259.281,286.457 259.752 C 287.956 260.280,288.800 259.826,288.800 258.493 C 288.800 256.429,287.399 255.801,285.975 257.225 M289.451 259.012 C 288.847 260.585,289.162 261.600,290.254 261.600 C 290.865 261.600,291.698 262.021,292.235 262.600 C 292.745 263.150,293.608 263.600,294.153 263.600 C 294.877 263.600,295.179 263.843,295.272 264.500 C 295.370 265.190,295.704 265.429,296.703 265.526 C 298.353 265.685,298.765 264.803,297.744 263.297 C 297.335 262.694,296.904 261.750,296.788 261.200 C 296.595 260.295,296.399 260.206,294.711 260.263 C 293.082 260.318,292.830 260.216,292.723 259.463 C 292.563 258.339,289.852 257.966,289.451 259.012 M300.085 264.447 C 299.400 264.700,299.200 265.094,299.200 266.187 C 299.200 267.981,302.155 268.445,302.469 266.700 C 302.838 264.649,301.910 263.772,300.085 264.447 M303.174 267.068 C 302.582 268.625,302.863 269.383,304.084 269.525 C 304.727 269.599,305.261 269.962,305.408 270.424 C 305.571 270.940,306.154 271.279,307.149 271.438 C 308.152 271.599,308.768 271.961,309.022 272.539 C 309.449 273.512,310.973 273.886,311.781 273.216 C 312.376 272.722,312.167 271.223,311.415 270.600 C 311.150 270.380,310.809 269.705,310.659 269.100 C 310.359 267.898,307.500 267.421,307.065 268.500 C 306.954 268.775,306.849 268.541,306.832 267.980 C 306.764 265.804,303.924 265.096,303.174 267.068 M313.220 272.576 C 312.127 273.892,312.864 275.400,314.600 275.400 C 316.057 275.400,316.212 275.299,316.329 274.276 C 316.487 272.900,315.803 272.000,314.600 272.000 C 314.104 272.000,313.483 272.259,313.220 272.576 M120.643 354.972 C 120.301 356.335,121.016 358.000,121.943 358.000 C 122.380 358.000,122.800 358.356,122.924 358.832 C 123.263 360.128,124.963 359.718,125.127 358.300 C 125.196 357.695,125.061 357.200,124.827 357.200 C 124.592 357.200,124.400 356.763,124.400 356.229 C 124.400 354.082,121.140 352.992,120.643 354.972 M276.250 354.607 C 275.893 354.965,275.600 355.679,275.600 356.195 C 275.600 356.711,275.422 357.193,275.203 357.267 C 274.985 357.340,274.743 357.950,274.665 358.622 C 274.498 360.060,276.719 360.195,277.092 358.770 C 277.202 358.348,277.724 357.994,278.341 357.923 C 280.113 357.717,279.941 354.253,278.150 354.078 C 277.391 354.005,276.645 354.212,276.250 354.607 M127.175 359.225 C 125.992 360.408,126.321 361.373,127.961 361.530 C 129.475 361.675,130.119 361.048,129.737 359.800 C 129.265 358.257,128.349 358.051,127.175 359.225 M270.434 359.136 C 270.217 359.541,270.070 360.270,270.107 360.755 C 270.203 362.039,273.336 361.851,273.521 360.550 C 273.772 358.792,271.239 357.632,270.434 359.136 M131.289 360.623 C 129.536 361.851,130.071 363.600,132.200 363.600 C 134.257 363.600,134.981 361.353,133.226 360.414 C 132.254 359.894,132.344 359.884,131.289 360.623 M266.700 360.432 C 266.242 360.699,265.991 361.352,265.975 362.320 C 265.953 363.610,265.903 363.684,265.588 362.900 C 264.892 361.169,262.000 361.920,262.000 363.831 C 262.000 364.310,261.721 364.933,261.381 365.216 C 261.040 365.499,260.815 366.106,260.881 366.565 C 261.050 367.753,262.866 367.706,263.395 366.500 C 263.612 366.005,264.126 365.600,264.537 365.600 C 264.948 365.600,265.639 365.150,266.071 364.600 C 266.637 363.881,267.243 363.600,268.229 363.600 C 269.527 363.600,269.600 363.526,269.600 362.214 C 269.600 360.354,268.254 359.527,266.700 360.432 M134.880 362.480 C 133.921 363.439,134.281 365.600,135.400 365.600 C 136.012 365.600,136.400 365.828,136.400 366.186 C 136.400 367.086,137.920 367.764,138.626 367.179 C 139.366 366.565,139.356 365.827,138.600 365.200 C 138.270 364.926,138.000 364.310,138.000 363.831 C 138.000 362.730,137.282 362.000,136.200 362.000 C 135.738 362.000,135.144 362.216,134.880 362.480 M140.818 366.978 C 139.851 368.144,140.463 369.400,142.000 369.400 C 143.157 369.400,143.423 369.240,143.531 368.478 C 143.687 367.374,142.970 366.400,142.000 366.400 C 141.614 366.400,141.082 366.660,140.818 366.978 M256.643 367.033 C 255.950 368.837,256.340 369.600,257.953 369.600 C 259.695 369.600,260.350 368.550,259.478 367.154 C 258.901 366.230,256.982 366.148,256.643 367.033 M144.576 368.980 C 143.530 370.577,143.950 371.381,145.903 371.523 L 147.600 371.646 147.600 370.066 C 147.600 367.819,145.768 367.162,144.576 368.980 M252.900 368.265 C 252.625 368.376,252.395 369.127,252.388 369.933 C 252.378 371.124,252.299 371.268,251.968 370.700 C 251.703 370.245,251.072 370.000,250.168 370.000 C 249.189 370.000,248.712 370.208,248.562 370.700 C 248.445 371.085,248.067 371.975,247.723 372.678 C 247.379 373.381,247.205 374.236,247.336 374.578 C 247.690 375.499,249.493 375.368,249.800 374.400 C 249.952 373.920,250.405 373.600,250.932 373.600 C 251.459 373.600,251.968 373.240,252.205 372.700 C 252.492 372.046,253.037 371.745,254.200 371.600 C 255.467 371.442,255.826 371.217,255.925 370.521 C 256.195 368.621,254.728 367.527,252.900 368.265 M148.420 370.576 C 147.630 371.528,148.057 373.380,149.101 373.528 C 149.596 373.598,150.188 374.003,150.415 374.428 C 151.348 376.171,153.338 374.879,152.503 373.073 C 152.281 372.593,151.901 371.705,151.658 371.100 C 151.159 369.854,149.272 369.549,148.420 370.576 M154.862 374.642 C 153.522 375.580,153.728 377.046,155.241 377.348 C 156.838 377.668,157.200 377.416,157.200 375.990 C 157.200 374.461,156.059 373.803,154.862 374.642 M243.280 374.480 C 242.694 375.066,242.646 377.057,243.210 377.406 C 244.252 378.050,246.000 377.158,246.000 375.982 C 246.000 374.381,244.312 373.448,243.280 374.480 M158.158 376.566 C 157.502 378.276,158.153 379.400,159.800 379.400 C 161.569 379.400,162.086 378.455,161.211 376.821 C 160.696 375.858,158.500 375.675,158.158 376.566 M238.800 377.001 C 238.580 377.579,238.400 378.233,238.400 378.455 C 238.400 378.676,238.117 378.574,237.771 378.229 C 236.598 377.055,234.400 377.882,234.400 379.497 C 234.400 379.849,234.093 380.477,233.717 380.892 C 232.847 381.853,233.460 383.000,234.844 383.000 C 235.531 383.000,235.836 382.747,235.928 382.100 C 236.027 381.400,236.317 381.200,237.228 381.200 C 238.304 381.200,238.572 380.857,238.480 379.600 C 238.472 379.490,239.216 379.400,240.133 379.400 L 241.800 379.400 241.800 377.800 C 241.800 375.712,239.521 375.104,238.800 377.001 M162.746 377.867 C 161.203 378.278,161.446 381.200,163.024 381.200 C 163.722 381.200,164.000 381.420,164.000 381.973 C 164.000 382.774,165.289 383.439,165.996 383.002 C 166.517 382.681,166.519 381.321,166.000 381.000 C 165.780 380.864,165.600 380.230,165.600 379.590 C 165.600 378.851,165.319 378.278,164.826 378.014 C 164.026 377.586,163.849 377.573,162.746 377.867 M168.207 382.650 C 167.064 383.793,167.589 384.983,169.300 385.124 C 170.125 385.192,170.800 385.072,170.800 384.857 C 170.800 384.642,170.900 384.204,171.023 383.884 C 171.556 382.495,169.336 381.521,168.207 382.650 M229.239 382.727 C 228.453 384.196,228.948 385.000,230.638 385.000 C 231.990 385.000,232.219 384.869,232.338 384.022 C 232.582 382.295,230.039 381.232,229.239 382.727 M172.800 383.892 C 170.677 384.700,171.131 387.200,173.400 387.200 C 175.187 387.200,175.200 387.190,175.200 385.814 C 175.200 384.631,174.287 383.441,173.526 383.632 C 173.457 383.649,173.130 383.766,172.800 383.892 M225.500 384.032 C 225.042 384.299,224.791 384.952,224.775 385.920 C 224.753 387.210,224.703 387.284,224.388 386.500 C 223.607 384.558,220.800 385.454,220.800 387.645 C 220.800 388.074,220.530 388.529,220.200 388.655 C 219.438 388.948,219.424 390.156,220.174 390.779 C 220.880 391.364,222.400 390.686,222.400 389.786 C 222.400 389.428,222.788 389.200,223.400 389.200 C 223.950 389.200,224.400 388.995,224.400 388.744 C 224.400 387.979,225.728 387.226,227.100 387.213 C 228.314 387.201,228.400 387.108,228.400 385.814 C 228.400 383.954,227.054 383.127,225.500 384.032 M175.843 386.233 C 175.223 387.847,175.569 389.200,176.600 389.200 C 177.232 389.200,177.600 389.426,177.600 389.813 C 177.600 390.585,179.232 391.243,179.871 390.729 C 180.230 390.440,180.192 389.900,179.712 388.475 C 179.365 387.444,179.023 386.375,178.953 386.100 C 178.762 385.353,176.137 385.465,175.843 386.233 M215.793 390.264 C 215.467 390.590,215.200 391.384,215.200 392.029 C 215.200 393.517,217.650 393.801,218.400 392.400 C 219.268 390.778,217.076 388.982,215.793 390.264 M182.018 390.578 C 181.051 391.744,181.663 393.000,183.200 393.000 C 184.357 393.000,184.623 392.840,184.731 392.078 C 184.887 390.974,184.170 390.000,183.200 390.000 C 182.814 390.000,182.282 390.260,182.018 390.578 M185.601 392.397 C 184.709 394.065,185.223 394.987,187.124 395.124 L 188.848 395.248 188.724 393.524 C 188.575 391.459,186.504 390.712,185.601 392.397 M211.486 391.848 C 210.350 392.983,211.227 395.200,212.813 395.200 C 214.647 395.200,215.141 394.535,214.554 392.853 C 214.188 391.808,212.183 391.150,211.486 391.848 " stroke="none" fill="#2064c4" fill-rule="evenodd"></path><path id="path2" d="M187.817 3.338 C 186.094 4.598,188.928 7.357,190.774 6.216 C 191.630 5.687,191.274 3.313,190.300 3.052 C 188.986 2.700,188.634 2.740,187.817 3.338 M209.500 3.076 C 208.792 3.261,208.574 4.545,209.043 5.767 C 209.358 6.590,211.351 6.592,212.171 5.771 C 213.842 4.100,212.143 2.385,209.500 3.076 M184.854 5.088 C 184.333 5.187,183.817 5.613,183.707 6.034 C 183.582 6.511,183.157 6.800,182.580 6.800 C 181.463 6.800,181.025 7.887,181.567 9.313 C 182.358 11.395,185.200 11.001,185.200 8.810 C 185.200 8.170,185.359 7.549,185.554 7.429 C 185.948 7.185,186.395 4.768,186.031 4.854 C 185.904 4.884,185.374 4.990,184.854 5.088 M213.781 5.498 C 214.234 7.838,215.366 10.399,216.042 10.613 C 217.008 10.920,218.393 10.489,218.423 9.873 C 218.435 9.613,218.660 10.030,218.923 10.800 C 219.722 13.144,222.150 12.900,222.325 10.458 L 222.450 8.715 220.642 8.859 C 218.966 8.993,218.826 8.930,218.717 8.002 C 218.628 7.242,218.334 6.969,217.500 6.873 C 216.895 6.804,216.400 6.499,216.400 6.197 C 216.400 5.554,216.175 5.400,214.723 5.053 C 213.838 4.842,213.670 4.922,213.781 5.498 M177.600 10.151 C 177.600 12.544,180.194 13.315,180.953 11.147 C 181.541 9.466,181.048 8.800,179.213 8.800 C 177.647 8.800,177.600 8.840,177.600 10.151 M173.867 11.067 C 173.432 11.501,173.563 13.003,174.080 13.520 C 175.427 14.867,177.372 13.268,176.656 11.401 C 176.425 10.800,174.379 10.554,173.867 11.067 M223.700 11.056 C 222.991 11.355,223.080 13.023,223.846 13.789 C 224.780 14.723,226.200 13.734,226.200 12.151 C 226.200 10.989,225.054 10.486,223.700 11.056 M227.860 13.691 C 227.732 14.181,227.874 14.959,228.177 15.420 C 228.479 15.881,228.788 16.695,228.863 17.229 C 229.020 18.341,230.835 18.801,231.824 17.980 C 232.884 17.101,232.568 14.800,231.387 14.800 C 230.788 14.800,230.269 14.514,230.117 14.100 C 229.569 12.615,228.206 12.368,227.860 13.691 M170.116 14.000 C 169.968 14.567,169.570 14.800,168.753 14.800 C 167.715 14.800,167.600 14.932,167.600 16.120 C 167.600 18.414,170.405 19.504,171.153 17.500 C 172.017 15.186,172.357 13.854,172.164 13.541 C 171.753 12.877,170.326 13.196,170.116 14.000 M163.786 17.223 C 162.742 18.912,165.557 21.234,166.795 19.705 C 168.007 18.209,167.416 16.800,165.577 16.800 C 164.736 16.800,163.930 16.990,163.786 17.223 M232.800 18.186 C 232.800 20.653,235.680 21.166,236.202 18.792 C 236.556 17.179,236.209 16.800,234.376 16.800 C 232.845 16.800,232.800 16.839,232.800 18.186 M160.285 19.048 C 159.261 20.073,161.184 22.443,162.293 21.523 C 163.221 20.752,162.757 19.018,161.585 18.882 C 161.027 18.817,160.442 18.892,160.285 19.048 M237.200 19.951 C 237.200 21.475,238.068 22.206,239.174 21.614 C 240.706 20.794,240.299 18.800,238.600 18.800 C 237.324 18.800,237.200 18.902,237.200 19.951 M241.893 21.565 C 241.786 21.976,241.853 22.556,242.043 22.856 C 242.233 23.155,242.391 23.859,242.394 24.420 C 242.401 25.672,243.077 26.400,244.231 26.400 C 246.320 26.400,246.760 22.710,244.700 22.473 C 244.095 22.404,243.600 22.185,243.600 21.988 C 243.600 21.167,242.095 20.794,241.893 21.565 M157.373 21.978 C 157.168 22.179,156.370 22.401,155.600 22.471 C 153.676 22.648,153.244 25.273,155.007 26.076 C 156.551 26.780,157.345 26.094,157.679 23.769 C 157.982 21.661,157.942 21.423,157.373 21.978 M150.500 24.665 C 149.121 25.221,150.712 28.233,152.227 27.935 C 154.114 27.564,153.992 24.377,152.092 24.432 C 151.492 24.449,150.775 24.554,150.500 24.665 M246.686 24.648 C 246.228 25.105,246.356 26.996,246.880 27.520 C 248.172 28.812,250.149 27.648,249.929 25.724 C 249.800 24.602,247.496 23.837,246.686 24.648 M147.100 26.698 C 146.715 26.786,146.400 27.205,146.400 27.629 C 146.400 28.180,146.121 28.400,145.424 28.400 C 144.164 28.400,143.861 28.934,144.174 30.603 C 144.589 32.814,147.344 33.017,147.853 30.873 C 147.993 30.283,148.343 29.527,148.632 29.193 C 149.692 27.965,148.689 26.333,147.100 26.698 M251.477 26.680 C 250.564 26.917,250.700 28.732,251.677 29.343 C 253.014 30.180,254.498 28.155,253.371 27.029 C 252.720 26.378,252.676 26.369,251.477 26.680 M255.958 29.851 C 255.660 32.304,256.495 34.000,258.000 34.000 C 260.420 34.000,260.796 30.694,258.402 30.467 C 257.632 30.394,256.777 30.147,256.502 29.918 C 256.226 29.689,255.981 29.659,255.958 29.851 M140.476 32.076 C 140.613 33.977,142.446 34.790,143.563 33.445 C 144.687 32.090,143.947 30.611,142.076 30.476 L 140.352 30.352 140.476 32.076 M136.686 32.648 C 135.630 33.703,136.905 35.754,138.478 35.531 C 140.066 35.306,139.810 32.640,138.186 32.481 C 137.518 32.416,136.843 32.491,136.686 32.648 M260.400 33.786 C 260.400 35.391,261.306 36.092,262.700 35.566 C 264.507 34.883,263.958 32.400,262.000 32.400 C 260.441 32.400,260.400 32.436,260.400 33.786 M133.371 34.706 C 133.135 34.868,132.825 35.315,132.683 35.700 C 132.531 36.114,132.012 36.400,131.413 36.400 C 130.529 36.400,130.400 36.572,130.400 37.751 C 130.400 40.357,133.527 41.003,134.035 38.502 C 134.180 37.789,134.513 36.945,134.777 36.628 C 135.615 35.618,134.422 33.986,133.371 34.706 M265.265 34.751 C 264.567 35.194,264.824 36.958,265.608 37.107 C 266.787 37.332,267.756 36.238,267.237 35.268 C 266.745 34.350,266.146 34.193,265.265 34.751 M126.406 39.500 C 126.417 41.372,127.765 42.368,129.229 41.584 C 130.981 40.647,130.255 38.400,128.200 38.400 C 126.502 38.400,126.400 38.462,126.406 39.500 M270.000 39.786 C 270.000 41.506,271.166 42.326,272.651 41.650 C 274.601 40.761,273.983 38.400,271.800 38.400 C 270.013 38.400,270.000 38.410,270.000 39.786 M122.697 41.424 C 122.549 42.199,122.743 42.606,123.491 43.097 C 124.780 43.941,125.756 43.365,125.925 41.660 C 126.101 39.895,123.033 39.671,122.697 41.424 M274.000 41.551 C 274.000 42.982,274.887 43.765,276.151 43.448 C 278.336 42.900,277.846 40.400,275.553 40.400 C 274.109 40.400,274.000 40.481,274.000 41.551 M279.300 42.665 C 278.703 42.906,278.634 44.250,279.200 44.600 C 279.420 44.736,279.600 45.382,279.600 46.036 C 279.600 47.792,282.464 48.540,283.077 46.944 C 283.192 46.645,283.466 46.400,283.686 46.400 C 283.906 46.400,283.981 46.672,283.854 47.003 C 283.147 48.845,285.551 50.505,286.780 49.024 C 287.943 47.622,287.137 46.209,285.100 46.078 C 283.385 45.968,283.200 45.861,283.200 44.978 C 283.200 44.205,282.993 44.000,282.214 44.000 C 281.638 44.000,281.050 43.668,280.800 43.200 C 280.362 42.381,280.172 42.313,279.300 42.665 M119.466 43.371 C 119.346 43.685,118.742 44.000,118.124 44.071 C 117.321 44.163,116.964 44.451,116.875 45.079 C 116.769 45.821,116.456 45.977,114.875 46.079 C 113.090 46.194,112.994 46.261,112.877 47.473 C 112.697 49.328,115.825 50.507,116.061 48.673 C 116.094 48.413,116.164 48.020,116.215 47.800 C 116.266 47.580,116.334 47.130,116.366 46.800 C 116.413 46.317,116.504 46.337,116.832 46.900 C 117.311 47.722,119.937 47.879,120.183 47.100 C 121.048 44.354,120.395 40.952,119.466 43.371 M109.452 48.606 C 109.093 48.964,108.800 49.424,108.800 49.629 C 108.800 49.833,108.393 50.000,107.895 50.000 C 107.340 50.000,106.837 50.348,106.595 50.900 C 106.314 51.540,105.795 51.837,104.800 51.929 C 102.985 52.095,102.661 52.456,102.987 53.942 C 103.471 56.142,106.117 56.095,106.759 53.875 C 106.962 53.174,107.144 52.825,107.164 53.100 C 107.245 54.228,110.290 53.694,110.588 52.500 C 110.739 51.895,111.110 51.125,111.413 50.789 C 111.969 50.171,112.069 48.400,111.548 48.400 C 111.392 48.400,111.004 48.300,110.684 48.177 C 110.365 48.054,109.810 48.247,109.452 48.606 M288.700 48.427 C 287.782 48.968,287.815 49.838,288.800 51.091 C 289.240 51.650,289.600 52.462,289.600 52.894 C 289.600 53.582,289.828 53.662,291.416 53.536 C 293.030 53.408,293.258 53.493,293.461 54.299 C 293.902 56.058,296.585 55.997,297.031 54.218 C 297.400 52.748,296.975 52.000,295.770 52.000 C 295.121 52.000,294.412 51.615,293.929 51.000 C 293.496 50.450,292.748 50.000,292.266 50.000 C 291.742 50.000,291.231 49.639,290.995 49.102 C 290.543 48.074,289.712 47.830,288.700 48.427 M99.200 55.392 C 99.200 56.849,100.376 57.602,101.799 57.056 C 103.332 56.468,102.525 54.000,100.800 54.000 C 99.240 54.000,99.200 54.035,99.200 55.392 M297.600 55.386 C 297.600 56.991,298.506 57.692,299.900 57.166 C 301.707 56.483,301.158 54.000,299.200 54.000 C 297.641 54.000,297.600 54.036,297.600 55.386 M95.680 56.480 C 95.416 56.744,95.200 57.194,95.200 57.480 C 95.200 57.771,94.750 58.000,94.176 58.000 C 92.966 58.000,92.859 60.580,94.038 61.318 C 95.039 61.945,96.800 61.330,96.800 60.354 C 96.800 59.897,97.102 59.012,97.471 58.388 C 98.463 56.709,97.005 55.155,95.680 56.480 M302.198 56.805 C 302.027 57.345,302.161 57.915,302.564 58.360 C 302.914 58.747,303.200 59.418,303.200 59.851 C 303.200 61.692,306.112 62.381,306.788 60.700 C 307.125 59.860,307.151 59.880,307.181 61.000 C 307.264 64.175,310.800 64.342,310.800 61.171 C 310.800 60.104,310.678 60.000,309.429 60.000 C 308.443 60.000,307.837 59.719,307.271 59.000 C 306.839 58.450,306.118 58.000,305.670 58.000 C 305.130 58.000,304.813 57.697,304.728 57.100 C 304.547 55.829,302.581 55.600,302.198 56.805 M89.275 61.255 C 89.545 63.965,92.800 64.111,92.800 61.413 C 92.800 60.002,92.797 60.000,90.975 60.000 C 89.169 60.000,89.151 60.013,89.275 61.255 M85.410 62.768 C 85.248 63.280,84.645 63.623,83.600 63.800 C 82.555 63.977,81.952 64.320,81.790 64.832 C 81.637 65.312,81.181 65.600,80.573 65.600 C 79.703 65.600,79.600 65.771,79.600 67.213 C 79.600 70.226,83.151 70.213,83.206 67.200 C 83.222 66.327,83.276 66.289,83.632 66.900 C 84.432 68.273,87.200 67.561,87.200 65.982 C 87.200 65.620,87.556 65.002,87.991 64.608 C 88.426 64.214,88.747 63.466,88.704 62.946 C 88.599 61.676,85.805 61.525,85.410 62.768 M311.400 62.401 C 310.934 63.154,311.557 64.732,312.430 65.009 C 313.490 65.346,314.878 64.141,314.718 63.022 C 314.585 62.094,311.900 61.592,311.400 62.401 M315.700 63.899 C 315.865 63.991,316.000 64.491,316.000 65.010 C 316.000 65.528,316.160 66.051,316.355 66.172 C 316.550 66.293,316.826 67.011,316.968 67.769 C 317.236 69.198,317.855 69.565,319.500 69.269 C 320.902 69.016,320.852 65.600,319.447 65.600 C 318.830 65.600,318.419 65.318,318.284 64.800 C 318.162 64.334,317.738 64.000,317.270 64.000 C 316.828 64.000,316.226 63.940,315.933 63.866 C 315.640 63.792,315.535 63.807,315.700 63.899 M75.867 67.867 C 74.870 68.863,75.945 71.200,77.400 71.200 C 79.062 71.200,80.033 68.405,78.567 67.843 C 77.726 67.520,76.200 67.534,75.867 67.867 M321.300 67.865 C 320.068 68.362,321.118 71.200,322.534 71.200 C 323.798 71.200,324.400 70.464,324.400 68.920 C 324.400 67.590,323.088 67.144,321.300 67.865 M72.080 70.080 C 71.816 70.344,71.600 70.794,71.600 71.080 C 71.600 71.366,71.175 71.600,70.655 71.600 C 70.135 71.600,69.277 72.032,68.749 72.560 C 68.221 73.088,67.342 73.583,66.795 73.660 C 65.670 73.818,65.425 76.189,66.465 76.849 C 67.993 77.817,69.913 76.500,69.305 74.900 C 69.200 74.625,69.314 74.400,69.557 74.400 C 69.801 74.400,70.000 74.580,70.000 74.800 C 70.000 75.364,72.541 75.299,73.120 74.720 C 73.384 74.456,73.600 73.938,73.600 73.569 C 73.600 73.200,73.870 72.674,74.200 72.400 C 75.130 71.628,74.954 70.135,73.900 69.852 C 72.680 69.525,72.628 69.532,72.080 70.080 M325.467 69.867 C 325.039 70.294,325.159 71.928,325.641 72.225 C 325.883 72.375,326.336 73.106,326.646 73.849 C 327.252 75.300,329.263 75.777,330.320 74.720 C 330.693 74.347,330.800 74.462,330.800 75.240 C 330.800 77.137,333.139 78.008,333.986 76.426 C 334.778 74.947,334.507 73.600,333.418 73.600 C 332.878 73.600,331.986 73.150,331.436 72.600 C 330.886 72.050,329.978 71.600,329.418 71.600 C 328.686 71.600,328.400 71.387,328.400 70.843 C 328.400 69.814,326.238 69.095,325.467 69.867 M61.902 76.600 C 61.560 78.388,63.436 79.686,64.562 78.442 C 64.913 78.054,65.200 77.256,65.200 76.669 C 65.200 75.097,62.201 75.034,61.902 76.600 M334.800 76.771 C 334.800 78.893,336.259 79.741,337.600 78.400 C 338.456 77.544,338.538 77.225,338.157 76.233 C 337.661 74.940,334.800 75.399,334.800 76.771 M58.285 77.848 C 58.128 78.005,58.000 78.463,58.000 78.867 C 58.000 79.361,57.706 79.600,57.096 79.600 C 56.599 79.600,55.983 79.935,55.728 80.344 C 55.460 80.773,54.572 81.198,53.632 81.349 C 52.357 81.552,52.000 81.784,52.000 82.405 C 52.000 83.038,51.731 83.200,50.676 83.200 C 48.783 83.200,47.816 84.014,48.147 85.332 C 48.736 87.676,51.600 86.943,51.600 84.448 L 51.600 83.449 52.416 84.325 C 53.867 85.882,55.600 84.989,55.600 82.682 L 55.600 81.422 56.239 82.334 C 57.616 84.300,61.114 81.388,60.716 78.607 C 60.599 77.793,58.878 77.255,58.285 77.848 M339.167 77.675 C 338.885 78.735,339.076 79.726,339.667 80.261 C 340.070 80.625,340.400 81.220,340.400 81.582 C 340.400 83.311,343.344 83.900,343.988 82.300 C 344.318 81.477,344.351 81.509,344.375 82.671 C 344.420 84.960,346.126 85.874,347.600 84.400 L 348.400 83.600 348.400 84.426 C 348.400 86.521,350.052 87.491,351.371 86.171 C 352.939 84.604,351.879 83.219,349.100 83.205 C 348.290 83.201,348.000 83.001,348.000 82.443 C 348.000 81.957,347.618 81.591,346.932 81.419 C 346.344 81.271,345.420 80.802,344.878 80.375 C 344.336 79.949,343.479 79.600,342.974 79.600 C 342.326 79.600,342.018 79.335,341.928 78.700 C 341.820 77.941,339.341 77.021,339.167 77.675 M45.654 85.488 C 45.133 85.587,44.617 86.013,44.507 86.434 C 44.382 86.912,43.957 87.200,43.377 87.200 C 42.184 87.200,41.876 87.727,42.203 89.213 C 42.693 91.444,45.374 91.784,45.830 89.673 C 45.958 89.083,46.213 88.240,46.398 87.800 C 46.903 86.595,47.159 85.193,46.863 85.254 C 46.718 85.284,46.174 85.390,45.654 85.488 M353.042 86.475 C 353.092 87.191,353.328 87.843,353.566 87.922 C 353.805 88.002,354.003 88.457,354.006 88.933 C 354.020 90.883,355.871 91.729,357.204 90.396 C 358.432 89.168,358.154 87.441,356.700 87.273 C 355.923 87.184,355.600 86.920,355.600 86.373 C 355.600 85.878,355.325 85.600,354.833 85.600 C 354.411 85.600,353.815 85.504,353.509 85.386 C 353.094 85.227,352.975 85.504,353.042 86.475 M38.400 90.520 C 38.400 92.747,40.659 93.759,41.620 91.963 C 42.474 90.367,41.786 89.200,39.992 89.200 C 38.458 89.200,38.400 89.248,38.400 90.520 M358.400 90.813 C 358.400 92.592,358.952 93.049,360.601 92.636 C 362.557 92.145,362.042 89.200,360.000 89.200 L 358.400 89.200 358.400 90.813 M34.686 91.448 C 34.529 91.605,34.400 92.040,34.400 92.416 C 34.400 92.905,33.936 93.172,32.760 93.360 C 31.595 93.546,31.059 93.851,30.913 94.411 C 30.768 94.966,30.365 95.200,29.553 95.200 C 28.582 95.200,28.400 95.362,28.400 96.226 C 28.400 98.852,31.224 100.000,32.024 97.700 C 32.361 96.734,32.613 96.600,34.095 96.600 C 35.465 96.600,35.811 96.450,35.934 95.800 C 36.018 95.360,36.437 94.668,36.866 94.263 C 38.092 93.104,37.710 91.430,36.186 91.281 C 35.518 91.216,34.843 91.291,34.686 91.448 M362.667 91.467 C 362.191 91.943,362.385 93.527,362.993 94.136 C 364.246 95.389,366.143 93.591,365.456 91.801 C 365.225 91.200,363.179 90.954,362.667 91.467 M367.186 94.026 C 366.858 94.639,366.868 94.999,367.223 95.428 C 367.487 95.745,367.820 96.589,367.965 97.302 C 368.473 99.803,371.600 99.157,371.600 96.551 C 371.600 95.372,371.471 95.200,370.587 95.200 C 369.988 95.200,369.469 94.914,369.317 94.500 C 368.788 93.067,367.815 92.850,367.186 94.026 M24.586 97.623 C 23.688 99.076,26.102 101.477,27.388 100.410 C 28.781 99.254,28.164 97.200,26.424 97.200 C 25.557 97.200,24.730 97.390,24.586 97.623 M372.000 98.551 C 372.000 101.104,374.860 101.659,375.398 99.210 C 375.756 97.578,375.413 97.200,373.576 97.200 C 372.052 97.200,372.000 97.245,372.000 98.551 M22.521 142.000 C 22.437 188.928,22.348 187.000,24.607 187.000 C 27.109 187.000,27.025 184.783,24.502 184.224 L 22.804 183.847 22.700 142.024 L 22.596 100.200 22.521 142.000 M117.200 129.801 C 116.980 130.379,116.800 131.100,116.800 131.402 C 116.800 131.705,116.636 132.054,116.436 132.178 C 115.951 132.477,116.152 133.717,116.716 133.905 C 116.961 133.987,117.480 133.682,117.870 133.227 C 118.259 132.772,118.998 132.400,119.512 132.400 C 121.218 132.400,120.635 129.042,118.900 128.875 C 117.809 128.769,117.535 128.918,117.200 129.801 M280.100 129.065 C 279.065 129.482,279.485 132.400,280.579 132.400 C 281.118 132.400,282.044 132.850,282.638 133.400 C 283.231 133.950,284.067 134.400,284.496 134.400 C 284.938 134.400,285.365 134.745,285.484 135.200 C 285.818 136.477,288.400 136.344,288.400 135.049 C 288.400 134.526,288.141 133.883,287.824 133.620 C 287.507 133.357,287.192 132.660,287.124 132.071 C 286.966 130.708,284.578 130.269,283.718 131.445 C 283.238 132.101,283.200 132.087,283.200 131.250 C 283.200 129.261,281.895 128.341,280.100 129.065 M112.018 133.778 C 111.114 134.867,111.659 136.210,112.967 136.116 C 114.696 135.990,115.261 134.918,114.171 133.829 C 113.388 133.045,112.641 133.028,112.018 133.778 M107.620 135.376 C 106.917 136.223,107.253 138.165,108.132 138.332 C 109.711 138.632,110.800 138.036,110.800 136.872 C 110.800 134.974,108.753 134.011,107.620 135.376 M289.614 135.574 C 288.572 137.520,289.804 138.897,291.971 138.209 C 292.909 137.911,293.127 136.087,292.320 135.280 C 291.585 134.545,290.077 134.709,289.614 135.574 M103.900 136.832 C 103.515 137.056,103.200 137.659,103.200 138.171 C 103.200 138.683,102.930 139.326,102.600 139.600 C 101.742 140.312,101.860 141.502,102.819 141.806 C 103.723 142.093,104.800 141.411,104.800 140.551 C 104.800 140.230,105.217 140.000,105.800 140.000 C 107.303 140.000,107.281 137.363,105.774 136.790 C 104.567 136.331,104.767 136.327,103.900 136.832 M294.100 136.839 C 292.695 137.362,292.789 140.000,294.213 140.000 C 294.812 140.000,295.331 140.286,295.483 140.700 C 295.848 141.687,296.407 141.987,297.900 141.994 C 299.027 141.999,299.200 142.137,299.200 143.024 C 299.200 143.963,299.325 144.038,300.700 143.924 C 302.526 143.773,303.097 142.042,301.625 141.123 C 301.171 140.839,300.800 140.220,300.800 139.747 C 300.800 138.376,298.575 137.882,297.454 139.003 C 296.917 139.540,296.837 139.469,296.726 138.346 C 296.583 136.915,295.526 136.308,294.100 136.839 M98.080 141.280 C 96.875 142.485,97.499 144.000,99.200 144.000 C 100.686 144.000,100.800 143.920,100.800 142.880 C 100.800 141.628,100.163 140.800,99.200 140.800 C 98.848 140.800,98.344 141.016,98.080 141.280 M94.300 142.832 C 93.878 143.078,93.600 143.719,93.600 144.448 C 93.600 145.547,93.543 145.600,92.971 145.029 C 92.102 144.159,90.033 144.205,89.767 145.100 C 89.653 145.485,89.298 146.310,88.980 146.932 C 88.304 148.253,88.231 149.448,88.804 149.802 C 89.463 150.210,90.741 149.617,91.006 148.780 C 91.153 148.319,91.613 148.000,92.132 148.000 C 92.659 148.000,93.168 147.640,93.405 147.100 C 93.692 146.446,94.237 146.145,95.400 146.000 C 97.382 145.752,97.894 144.131,96.334 143.039 C 95.276 142.297,95.226 142.292,94.300 142.832 M304.135 142.827 C 303.165 143.188,302.654 144.354,303.034 145.344 C 303.442 146.408,306.244 146.241,306.533 145.135 C 306.973 143.453,305.713 142.240,304.135 142.827 M307.500 144.832 C 306.180 145.601,306.559 148.000,308.000 148.000 C 308.909 148.000,309.200 148.183,309.200 148.753 C 309.200 149.516,310.207 149.984,311.872 149.995 C 312.470 149.998,312.785 150.283,312.872 150.900 C 312.971 151.599,313.303 151.829,314.358 151.930 C 316.541 152.138,317.036 150.728,315.400 148.962 C 314.850 148.369,314.400 147.531,314.400 147.101 C 314.400 146.423,314.168 146.338,312.650 146.460 C 311.052 146.588,310.864 146.504,310.485 145.500 C 310.042 144.326,308.833 144.056,307.500 144.832 M84.677 148.861 C 83.164 149.708,83.798 152.065,85.500 151.924 C 86.914 151.807,87.000 151.722,87.000 150.446 C 87.000 148.940,85.889 148.182,84.677 148.861 M80.080 150.880 C 79.816 151.144,79.586 151.819,79.568 152.380 C 79.551 152.941,79.446 153.175,79.335 152.900 C 78.877 151.764,75.999 152.304,75.745 153.574 C 75.616 154.220,75.260 154.845,74.955 154.962 C 74.436 155.161,74.162 157.229,74.598 157.664 C 75.127 158.194,77.200 157.469,77.200 156.755 C 77.200 156.229,77.486 156.000,78.142 156.000 C 78.659 156.000,79.569 155.550,80.162 155.000 C 80.756 154.450,81.682 154.000,82.221 154.000 C 83.092 154.000,83.200 153.828,83.200 152.443 C 83.200 150.510,81.368 149.592,80.080 150.880 M317.280 150.880 C 316.131 152.029,316.694 154.000,318.171 154.000 C 319.157 154.000,319.763 154.281,320.329 155.000 C 320.761 155.550,321.494 156.000,321.958 156.000 C 322.533 156.000,322.800 156.253,322.800 156.800 C 322.800 157.448,323.067 157.600,324.200 157.600 C 325.727 157.600,326.224 156.216,325.048 155.240 C 324.745 154.988,324.389 154.246,324.258 153.591 C 323.972 152.162,321.578 151.818,320.832 153.100 C 320.490 153.687,320.422 153.602,320.412 152.580 C 320.398 151.151,319.774 150.400,318.600 150.400 C 318.138 150.400,317.544 150.616,317.280 150.880 M70.414 157.174 C 69.697 158.513,69.917 159.564,70.971 159.828 C 72.603 160.238,73.600 159.691,73.600 158.387 C 73.600 156.554,71.229 155.651,70.414 157.174 M327.029 157.029 C 325.663 158.394,326.855 160.219,328.921 159.925 C 329.549 159.836,329.837 159.479,329.929 158.676 C 330.160 156.663,328.396 155.661,327.029 157.029 M66.900 158.439 C 66.290 158.666,66.000 159.102,66.000 159.793 C 66.000 160.353,65.792 161.145,65.537 161.552 C 64.830 162.684,65.381 163.745,66.394 163.203 C 66.837 162.966,67.200 162.508,67.200 162.186 C 67.200 161.799,67.616 161.600,68.424 161.600 C 69.588 161.600,69.642 161.529,69.524 160.143 C 69.385 158.508,68.412 157.876,66.900 158.439 M331.600 158.318 C 330.039 158.843,329.855 161.600,331.382 161.600 C 331.922 161.600,332.814 162.050,333.364 162.600 C 333.914 163.150,334.809 163.600,335.354 163.600 C 336.076 163.600,336.379 163.843,336.472 164.500 C 336.680 165.961,339.353 165.809,339.524 164.327 C 339.611 163.571,339.404 163.123,338.824 162.813 C 338.337 162.552,338.000 161.972,338.000 161.394 C 338.000 159.756,334.481 159.499,334.343 161.127 C 334.312 161.497,334.177 161.100,334.043 160.244 C 333.794 158.647,332.845 157.900,331.600 158.318 M60.818 162.978 C 60.554 163.296,60.397 163.971,60.469 164.478 C 60.669 165.884,63.338 165.836,63.538 164.422 C 63.763 162.825,61.807 161.786,60.818 162.978 M57.100 164.435 C 56.643 164.699,56.400 165.327,56.400 166.243 L 56.400 167.646 58.100 167.523 C 60.309 167.363,60.691 164.877,58.600 164.265 C 58.160 164.136,57.485 164.213,57.100 164.435 M341.300 164.434 C 340.601 164.698,340.400 165.089,340.400 166.187 C 340.400 167.994,343.346 168.440,343.682 166.685 C 344.026 164.883,342.908 163.827,341.300 164.434 M52.562 166.700 C 52.445 167.085,52.072 167.966,51.734 168.658 C 51.019 170.120,51.341 171.785,52.269 171.429 C 52.597 171.303,53.031 171.200,53.233 171.200 C 53.435 171.200,53.600 170.852,53.600 170.427 C 53.600 169.880,53.923 169.616,54.700 169.527 C 55.945 169.383,56.346 168.194,55.611 166.821 C 55.045 165.763,52.873 165.677,52.562 166.700 M344.374 167.068 C 343.785 168.618,344.062 169.383,345.263 169.523 C 345.901 169.597,346.398 169.949,346.519 170.411 C 346.659 170.946,347.215 171.257,348.360 171.440 C 349.596 171.638,350.000 171.885,350.000 172.444 C 350.000 173.336,351.824 173.909,352.762 173.311 C 353.486 172.849,353.411 171.213,352.637 170.600 C 352.360 170.380,352.005 169.687,351.849 169.061 C 351.583 167.993,351.455 167.931,349.788 168.064 C 348.153 168.194,347.979 168.117,347.626 167.102 C 347.079 165.533,344.966 165.511,344.374 167.068 M47.067 170.667 C 46.554 171.179,46.800 173.225,47.401 173.456 C 49.268 174.172,50.867 172.227,49.520 170.880 C 49.003 170.363,47.501 170.232,47.067 170.667 M42.898 172.462 C 42.624 172.736,42.375 173.599,42.346 174.380 C 42.313 175.240,42.225 175.460,42.123 174.938 C 41.767 173.117,38.908 173.359,38.532 175.242 C 38.406 175.869,38.055 176.588,37.752 176.840 C 36.515 177.866,37.068 179.455,38.600 179.276 C 39.649 179.153,40.000 178.923,40.000 178.356 C 40.000 177.837,40.284 177.600,40.905 177.600 C 41.460 177.600,41.963 177.252,42.205 176.700 C 42.492 176.046,43.037 175.745,44.200 175.600 C 45.767 175.404,45.800 175.367,45.800 173.800 C 45.800 172.075,44.079 171.281,42.898 172.462 M354.420 172.576 C 353.327 173.892,354.064 175.400,355.800 175.400 C 357.257 175.400,357.412 175.299,357.529 174.276 C 357.687 172.900,357.003 172.000,355.800 172.000 C 355.304 172.000,354.683 172.259,354.420 172.576 M358.876 174.021 C 357.585 174.539,357.732 177.333,359.059 177.522 C 359.532 177.590,360.013 178.008,360.129 178.452 C 360.290 179.065,360.611 179.228,361.470 179.129 C 362.782 178.979,363.215 177.643,362.219 176.816 C 361.879 176.533,361.600 175.977,361.600 175.580 C 361.600 174.863,360.593 173.577,360.071 173.625 C 359.922 173.639,359.384 173.818,358.876 174.021 M277.784 176.522 C 277.318 178.378,277.875 179.200,279.598 179.200 C 280.731 179.200,281.190 179.014,281.324 178.500 C 281.458 177.988,281.520 178.049,281.554 178.726 C 281.716 181.978,285.200 182.163,285.200 178.920 C 285.200 177.797,285.058 177.600,284.249 177.600 C 283.722 177.600,283.045 177.220,282.733 176.749 C 281.790 175.329,278.125 175.161,277.784 176.522 M33.280 178.480 C 33.016 178.744,32.800 179.464,32.800 180.080 C 32.800 181.527,35.750 181.818,36.195 180.415 C 36.759 178.638,34.573 177.187,33.280 178.480 M364.200 178.944 C 363.268 180.367,363.801 181.200,365.643 181.200 C 367.082 181.200,367.200 181.115,367.200 180.080 C 367.200 177.969,365.308 177.252,364.200 178.944 M29.280 180.080 C 29.016 180.344,28.800 180.963,28.800 181.456 C 28.800 181.949,28.620 182.464,28.400 182.600 C 28.180 182.736,28.000 183.287,28.000 183.824 C 28.000 185.067,29.567 185.214,29.884 184.000 C 30.032 183.433,30.430 183.200,31.247 183.200 C 32.255 183.200,32.400 183.053,32.400 182.029 C 32.400 180.073,30.484 178.876,29.280 180.080 M285.735 180.226 C 285.336 181.264,286.277 182.800,287.311 182.800 C 288.549 182.800,289.200 182.083,289.200 180.720 C 289.200 179.397,286.216 178.971,285.735 180.226 M368.262 180.331 C 366.956 181.775,367.388 183.200,369.132 183.200 C 370.358 183.200,370.772 183.400,371.200 184.200 C 371.529 184.814,372.084 185.200,372.640 185.200 C 373.273 185.200,373.583 185.470,373.672 186.100 C 373.805 187.039,376.126 187.651,376.816 186.929 C 377.301 186.423,377.427 184.617,376.989 184.461 C 375.804 184.036,375.242 183.505,375.128 182.701 C 374.939 181.374,372.715 181.215,371.838 182.467 C 371.202 183.375,371.200 183.373,371.200 181.969 C 371.200 179.701,369.627 178.824,368.262 180.331 M290.124 182.254 C 289.986 182.614,290.083 183.199,290.339 183.554 C 290.862 184.277,291.424 185.448,291.755 186.500 C 292.049 187.437,294.223 187.445,294.746 186.511 C 295.070 185.932,295.188 186.043,295.489 187.211 C 295.940 188.966,298.023 189.452,298.807 187.986 C 299.625 186.459,298.989 185.200,297.402 185.200 C 296.368 185.200,295.853 184.948,295.363 184.200 C 295.003 183.650,294.381 183.200,293.981 183.200 C 293.581 183.200,293.140 182.840,293.000 182.400 C 292.678 181.386,290.499 181.275,290.124 182.254 M299.886 187.448 C 299.320 188.013,299.601 189.972,300.300 190.339 C 301.610 191.025,302.868 190.177,302.726 188.703 C 302.601 187.413,300.743 186.591,299.886 187.448 M304.434 189.726 C 303.818 190.342,303.897 191.475,304.573 191.734 C 304.888 191.855,305.203 192.549,305.273 193.277 C 305.497 195.615,308.551 195.281,308.723 192.900 C 308.837 191.322,308.774 191.200,307.850 191.200 C 307.224 191.200,306.765 190.919,306.614 190.443 C 306.327 189.540,305.043 189.117,304.434 189.726 M309.200 194.528 C 309.200 196.302,310.077 197.068,311.524 196.559 C 313.536 195.852,313.077 193.434,310.900 193.277 C 309.206 193.154,309.200 193.159,309.200 194.528 M313.700 195.465 C 312.962 195.763,313.092 197.092,313.942 197.942 C 314.350 198.350,314.804 199.160,314.950 199.742 C 315.188 200.692,315.401 200.800,317.031 200.800 L 318.846 200.800 318.723 199.100 C 318.621 197.687,318.448 197.378,317.701 197.272 C 317.140 197.193,316.710 196.779,316.557 196.172 C 316.317 195.215,315.079 194.909,313.700 195.465 M279.867 252.667 C 279.082 253.451,279.607 256.000,280.553 256.000 C 281.170 256.000,281.581 256.282,281.716 256.800 C 282.047 258.065,284.400 257.933,284.400 256.649 C 284.400 256.126,284.152 255.492,283.848 255.240 C 283.545 254.988,283.189 254.246,283.058 253.591 C 282.825 252.424,280.719 251.814,279.867 252.667 M285.975 257.225 C 284.925 258.275,285.116 259.281,286.457 259.752 C 287.956 260.280,288.800 259.826,288.800 258.493 C 288.800 256.429,287.399 255.801,285.975 257.225 M289.451 259.012 C 288.847 260.585,289.162 261.600,290.254 261.600 C 290.865 261.600,291.698 262.021,292.235 262.600 C 292.745 263.150,293.608 263.600,294.153 263.600 C 294.877 263.600,295.179 263.843,295.272 264.500 C 295.370 265.190,295.704 265.429,296.703 265.526 C 298.353 265.685,298.765 264.803,297.744 263.297 C 297.335 262.694,296.904 261.750,296.788 261.200 C 296.595 260.295,296.399 260.206,294.711 260.263 C 293.082 260.318,292.830 260.216,292.723 259.463 C 292.563 258.339,289.852 257.966,289.451 259.012 M300.085 264.447 C 299.400 264.700,299.200 265.094,299.200 266.187 C 299.200 267.981,302.155 268.445,302.469 266.700 C 302.838 264.649,301.910 263.772,300.085 264.447 M303.174 267.068 C 302.582 268.625,302.863 269.383,304.084 269.525 C 304.727 269.599,305.261 269.962,305.408 270.424 C 305.571 270.940,306.154 271.279,307.149 271.438 C 308.152 271.599,308.768 271.961,309.022 272.539 C 309.449 273.512,310.973 273.886,311.781 273.216 C 312.376 272.722,312.167 271.223,311.415 270.600 C 311.150 270.380,310.809 269.705,310.659 269.100 C 310.359 267.898,307.500 267.421,307.065 268.500 C 306.954 268.775,306.849 268.541,306.832 267.980 C 306.764 265.804,303.924 265.096,303.174 267.068 M313.220 272.576 C 312.127 273.892,312.864 275.400,314.600 275.400 C 316.057 275.400,316.212 275.299,316.329 274.276 C 316.487 272.900,315.803 272.000,314.600 272.000 C 314.104 272.000,313.483 272.259,313.220 272.576 M120.643 354.972 C 120.301 356.335,121.016 358.000,121.943 358.000 C 122.380 358.000,122.800 358.356,122.924 358.832 C 123.263 360.128,124.963 359.718,125.127 358.300 C 125.196 357.695,125.061 357.200,124.827 357.200 C 124.592 357.200,124.400 356.763,124.400 356.229 C 124.400 354.082,121.140 352.992,120.643 354.972 M276.250 354.607 C 275.893 354.965,275.600 355.679,275.600 356.195 C 275.600 356.711,275.422 357.193,275.203 357.267 C 274.985 357.340,274.743 357.950,274.665 358.622 C 274.498 360.060,276.719 360.195,277.092 358.770 C 277.202 358.348,277.724 357.994,278.341 357.923 C 280.113 357.717,279.941 354.253,278.150 354.078 C 277.391 354.005,276.645 354.212,276.250 354.607 M127.175 359.225 C 125.992 360.408,126.321 361.373,127.961 361.530 C 129.475 361.675,130.119 361.048,129.737 359.800 C 129.265 358.257,128.349 358.051,127.175 359.225 M270.434 359.136 C 270.217 359.541,270.070 360.270,270.107 360.755 C 270.203 362.039,273.336 361.851,273.521 360.550 C 273.772 358.792,271.239 357.632,270.434 359.136 M131.289 360.623 C 129.536 361.851,130.071 363.600,132.200 363.600 C 134.257 363.600,134.981 361.353,133.226 360.414 C 132.254 359.894,132.344 359.884,131.289 360.623 M266.700 360.432 C 266.242 360.699,265.991 361.352,265.975 362.320 C 265.953 363.610,265.903 363.684,265.588 362.900 C 264.892 361.169,262.000 361.920,262.000 363.831 C 262.000 364.310,261.721 364.933,261.381 365.216 C 261.040 365.499,260.815 366.106,260.881 366.565 C 261.050 367.753,262.866 367.706,263.395 366.500 C 263.612 366.005,264.126 365.600,264.537 365.600 C 264.948 365.600,265.639 365.150,266.071 364.600 C 266.637 363.881,267.243 363.600,268.229 363.600 C 269.527 363.600,269.600 363.526,269.600 362.214 C 269.600 360.354,268.254 359.527,266.700 360.432 M134.880 362.480 C 133.921 363.439,134.281 365.600,135.400 365.600 C 136.012 365.600,136.400 365.828,136.400 366.186 C 136.400 367.086,137.920 367.764,138.626 367.179 C 139.366 366.565,139.356 365.827,138.600 365.200 C 138.270 364.926,138.000 364.310,138.000 363.831 C 138.000 362.730,137.282 362.000,136.200 362.000 C 135.738 362.000,135.144 362.216,134.880 362.480 M140.818 366.978 C 139.851 368.144,140.463 369.400,142.000 369.400 C 143.157 369.400,143.423 369.240,143.531 368.478 C 143.687 367.374,142.970 366.400,142.000 366.400 C 141.614 366.400,141.082 366.660,140.818 366.978 M256.643 367.033 C 255.950 368.837,256.340 369.600,257.953 369.600 C 259.695 369.600,260.350 368.550,259.478 367.154 C 258.901 366.230,256.982 366.148,256.643 367.033 M144.576 368.980 C 143.530 370.577,143.950 371.381,145.903 371.523 L 147.600 371.646 147.600 370.066 C 147.600 367.819,145.768 367.162,144.576 368.980 M252.900 368.265 C 252.625 368.376,252.395 369.127,252.388 369.933 C 252.378 371.124,252.299 371.268,251.968 370.700 C 251.703 370.245,251.072 370.000,250.168 370.000 C 249.189 370.000,248.712 370.208,248.562 370.700 C 248.445 371.085,248.067 371.975,247.723 372.678 C 247.379 373.381,247.205 374.236,247.336 374.578 C 247.690 375.499,249.493 375.368,249.800 374.400 C 249.952 373.920,250.405 373.600,250.932 373.600 C 251.459 373.600,251.968 373.240,252.205 372.700 C 252.492 372.046,253.037 371.745,254.200 371.600 C 255.467 371.442,255.826 371.217,255.925 370.521 C 256.195 368.621,254.728 367.527,252.900 368.265 M148.420 370.576 C 147.630 371.528,148.057 373.380,149.101 373.528 C 149.596 373.598,150.188 374.003,150.415 374.428 C 151.348 376.171,153.338 374.879,152.503 373.073 C 152.281 372.593,151.901 371.705,151.658 371.100 C 151.159 369.854,149.272 369.549,148.420 370.576 M154.862 374.642 C 153.522 375.580,153.728 377.046,155.241 377.348 C 156.838 377.668,157.200 377.416,157.200 375.990 C 157.200 374.461,156.059 373.803,154.862 374.642 M243.280 374.480 C 242.694 375.066,242.646 377.057,243.210 377.406 C 244.252 378.050,246.000 377.158,246.000 375.982 C 246.000 374.381,244.312 373.448,243.280 374.480 M158.158 376.566 C 157.502 378.276,158.153 379.400,159.800 379.400 C 161.569 379.400,162.086 378.455,161.211 376.821 C 160.696 375.858,158.500 375.675,158.158 376.566 M238.800 377.001 C 238.580 377.579,238.400 378.233,238.400 378.455 C 238.400 378.676,238.117 378.574,237.771 378.229 C 236.598 377.055,234.400 377.882,234.400 379.497 C 234.400 379.849,234.093 380.477,233.717 380.892 C 232.847 381.853,233.460 383.000,234.844 383.000 C 235.531 383.000,235.836 382.747,235.928 382.100 C 236.027 381.400,236.317 381.200,237.228 381.200 C 238.304 381.200,238.572 380.857,238.480 379.600 C 238.472 379.490,239.216 379.400,240.133 379.400 L 241.800 379.400 241.800 377.800 C 241.800 375.712,239.521 375.104,238.800 377.001 M162.746 377.867 C 161.203 378.278,161.446 381.200,163.024 381.200 C 163.722 381.200,164.000 381.420,164.000 381.973 C 164.000 382.774,165.289 383.439,165.996 383.002 C 166.517 382.681,166.519 381.321,166.000 381.000 C 165.780 380.864,165.600 380.230,165.600 379.590 C 165.600 378.851,165.319 378.278,164.826 378.014 C 164.026 377.586,163.849 377.573,162.746 377.867 M168.207 382.650 C 167.064 383.793,167.589 384.983,169.300 385.124 C 170.125 385.192,170.800 385.072,170.800 384.857 C 170.800 384.642,170.900 384.204,171.023 383.884 C 171.556 382.495,169.336 381.521,168.207 382.650 M229.239 382.727 C 228.453 384.196,228.948 385.000,230.638 385.000 C 231.990 385.000,232.219 384.869,232.338 384.022 C 232.582 382.295,230.039 381.232,229.239 382.727 M172.800 383.892 C 170.677 384.700,171.131 387.200,173.400 387.200 C 175.187 387.200,175.200 387.190,175.200 385.814 C 175.200 384.631,174.287 383.441,173.526 383.632 C 173.457 383.649,173.130 383.766,172.800 383.892 M225.500 384.032 C 225.042 384.299,224.791 384.952,224.775 385.920 C 224.753 387.210,224.703 387.284,224.388 386.500 C 223.607 384.558,220.800 385.454,220.800 387.645 C 220.800 388.074,220.530 388.529,220.200 388.655 C 219.438 388.948,219.424 390.156,220.174 390.779 C 220.880 391.364,222.400 390.686,222.400 389.786 C 222.400 389.428,222.788 389.200,223.400 389.200 C 223.950 389.200,224.400 388.995,224.400 388.744 C 224.400 387.979,225.728 387.226,227.100 387.213 C 228.314 387.201,228.400 387.108,228.400 385.814 C 228.400 383.954,227.054 383.127,225.500 384.032 M175.843 386.233 C 175.223 387.847,175.569 389.200,176.600 389.200 C 177.232 389.200,177.600 389.426,177.600 389.813 C 177.600 390.585,179.232 391.243,179.871 390.729 C 180.230 390.440,180.192 389.900,179.712 388.475 C 179.365 387.444,179.023 386.375,178.953 386.100 C 178.762 385.353,176.137 385.465,175.843 386.233 M215.793 390.264 C 215.467 390.590,215.200 391.384,215.200 392.029 C 215.200 393.517,217.650 393.801,218.400 392.400 C 219.268 390.778,217.076 388.982,215.793 390.264 M182.018 390.578 C 181.051 391.744,181.663 393.000,183.200 393.000 C 184.357 393.000,184.623 392.840,184.731 392.078 C 184.887 390.974,184.170 390.000,183.200 390.000 C 182.814 390.000,182.282 390.260,182.018 390.578 M185.601 392.397 C 184.709 394.065,185.223 394.987,187.124 395.124 L 188.848 395.248 188.724 393.524 C 188.575 391.459,186.504 390.712,185.601 392.397 M211.486 391.848 C 210.350 392.983,211.227 395.200,212.813 395.200 C 214.647 395.200,215.141 394.535,214.554 392.853 C 214.188 391.808,212.183 391.150,211.486 391.848 " stroke="none" fill="#2064c4" fill-rule="evenodd"></path></g></svg>